<?xml version="1.0" standalone="no"?>
<!DOCTYPE svg PUBLIC "-//W3C//DTD SVG 1.1//EN" "http://www.w3.org/Graphics/SVG/1.1/DTD/svg11.dtd" >
<svg xmlns="http://www.w3.org/2000/svg" xmlns:xlink="http://www.w3.org/1999/xlink" version="1.1">
<metadata>
Created by FontForge 20150824 at Sat Feb 27 04:48:30 2016
 By Everything Fonts
Copyright (c) 2011 by Pablo Impallari. www.impallari.com Igino Marini. www.ikern.com. All rights reserved.
</metadata>
<defs>
<font id="CabinSketchRegular" horiz-adv-x="500" >
  <font-face 
    font-family="CabinSketchRegular"
    font-weight="400"
    font-stretch="normal"
    units-per-em="1000"
    panose-1="2 11 5 3 5 2 2 2 0 4"
    ascent="800"
    descent="-200"
    x-height="460"
    cap-height="658"
    bbox="-39 -249 1079 865"
    underline-thickness="45"
    underline-position="-133"
    unicode-range="U+0020-2122"
  />
<missing-glyph horiz-adv-x="216" 
d="M21 274q0 15 4 33.5t4 26.5q0 11 46 11q9 0 35 -3.5t36 -3.5l17 -1q5 0 18 -33t13 -37q0 -2 -4 -11t-4 -11v-59q0 -9 -10 -9q-6 0 -19 4.5t-15 4.5q-14 0 -40.5 -5t-56.5 -5q-11 0 -17.5 36t-6.5 62zM55 241q0 -17 5 -34q10 5 24 5q0 16 31 32t36 23q-1 0 -6.5 0.5
t-7.5 0.5q-7 0 -21.5 -4.5t-20.5 -4.5q-5 0 -9 4q-6 -4 -12.5 -5.5t-10 -1.5t-6 -3.5t-2.5 -11.5zM155 228q-17 -11 -47 -17q8 0 23.5 2.5t23.5 2.5v12zM47 276l5 -5q6 1 41.5 15.5t40.5 19.5q-4 1 -20.5 1.5t-27.5 3t-11 9.5q9 0 18 -0.5t11 -0.5q8 0 25 4q-34 5 -82 5v-52
z" />
    <glyph glyph-name=".notdef" horiz-adv-x="216" 
d="M21 274q0 15 4 33.5t4 26.5q0 11 46 11q9 0 35 -3.5t36 -3.5l17 -1q5 0 18 -33t13 -37q0 -2 -4 -11t-4 -11v-59q0 -9 -10 -9q-6 0 -19 4.5t-15 4.5q-14 0 -40.5 -5t-56.5 -5q-11 0 -17.5 36t-6.5 62zM55 241q0 -17 5 -34q10 5 24 5q0 16 31 32t36 23q-1 0 -6.5 0.5
t-7.5 0.5q-7 0 -21.5 -4.5t-20.5 -4.5q-5 0 -9 4q-6 -4 -12.5 -5.5t-10 -1.5t-6 -3.5t-2.5 -11.5zM155 228q-17 -11 -47 -17q8 0 23.5 2.5t23.5 2.5v12zM47 276l5 -5q6 1 41.5 15.5t40.5 19.5q-4 1 -20.5 1.5t-27.5 3t-11 9.5q9 0 18 -0.5t11 -0.5q8 0 25 4q-34 5 -82 5v-52
z" />
    <glyph glyph-name=".null" horiz-adv-x="0" 
 />
    <glyph glyph-name="nonmarkingreturn" horiz-adv-x="333" 
 />
    <glyph glyph-name="space" unicode=" " horiz-adv-x="225" 
 />
    <glyph glyph-name="exclam" unicode="!" horiz-adv-x="250" 
d="M79 17v9q0 50 12 50q54 0 63 -15q1 -5 3.5 -24.5t2.5 -20.5q0 -3 -5 -9t-5 -7q-1 0 -8 2l-7 3q-2 0 -18.5 -2.5t-17.5 -2.5q-20 0 -20 17zM104 40q0 -11 15 -11q14 0 16 6q-5 10 -23 10q-6 0 -8 -5zM94 76q-5 0 -5 -6q0 -5 5 -5q4 0 4 5q0 6 -4 6zM79 172q-3 30 -9 87.5
t-9 86.5t-6.5 71.5t-5 77t-1.5 69.5q0 19 15 19q4 0 10 -3.5t10 -3.5l1 1q1 1 3.5 1.5t6 1t10.5 0t16 -2.5q10 6 27 2.5t17 -21.5q0 -51 -10 -142.5t-10 -141.5l-4 -11q0 -1 -1 -17.5t-2.5 -36.5t-1.5 -30q0 -8 -5 -10.5t-19 -2.5q-27 0 -32 6zM94 262q0 -4 -0.5 -13
t-0.5 -14q0 -27 11 -38q7 18 7 78q-17 0 -17 -13zM114 304l-10 -5h10v5zM109 344q-15 -4 -18 -8.5t-3 -22.5q21 12 21 31zM122 392q-10 0 -15 -9.5t-5 -19.5q20 0 20 29zM91 399q-9 0 -9 -12q10 0 12 12h-3zM126 456q-13 0 -22 -21q22 0 22 21zM78 486v-5q-1 -5 -1 -9
q0 -21 7 -27q2 6 9 13.5t7 10.5q-17 0 -17 14q0 8 7.5 19t8.5 14l-20 -10q-1 0 -1 -20zM135 521q-12 -9 -12 -15h12v15zM94 551l-6 -15h3q19 5 29 15h-26zM68 556q1 -1 2 -4q4 -5 6 -6q9 0 9 10h-17z" />
    <glyph glyph-name="quotedbl" unicode="&#x22;" horiz-adv-x="399" 
d="M23 561q0 8 -0.5 22t-0.5 20q0 31 8.5 45t35.5 14q56 0 56 -19q0 -42 -11.5 -121t-13.5 -94q-1 -6 -1 -17t-0.5 -16t-3.5 -11.5t-9 -9t-17 -2.5q-45 0 -45 125q0 15 1 37.5t1 26.5zM54 452q0 -3 3 -22t3 -20q2 2 19 79q0 15 -13 15q-2 0 -6 -2q14 16 14 28
q-21 0 -25 -7.5t-4 -33.5h15q-7 -7 -7 -22q0 -3 0.5 -8t0.5 -7zM48 545q3 -6 12 -6q16 0 20.5 8t4.5 28q-13 -2 -37 -30zM54 589q0 -16 -6 -19q17 0 31.5 11.5t14.5 28.5q0 4 -1 7.5t-3.5 6t-4.5 4t-6 2.5t-6.5 2t-8 1h-8h-8h-7.5q0 -7 1 -13.5t2.5 -12t3 -10t3.5 -6.5t3 -2
zM203 561q0 8 -0.5 22t-0.5 20q0 31 8.5 45t35.5 14q56 0 56 -19q0 -42 -11.5 -121t-13.5 -94q-1 -6 -1 -17t-0.5 -16t-3.5 -11.5t-9 -9t-17 -2.5q-45 0 -45 125q0 15 1 37.5t1 26.5zM234 452q0 -3 3 -22t3 -20q2 2 19 79q0 15 -13 15q-2 0 -6 -2q14 16 14 28
q-21 0 -25 -7.5t-4 -33.5h15q-7 -7 -7 -22q0 -3 0.5 -8t0.5 -7zM228 545q3 -6 12 -6q16 0 20.5 8t4.5 28q-13 -2 -37 -30zM234 589q0 -16 -6 -19q17 0 31.5 11.5t14.5 28.5q0 4 -1 7.5t-3.5 6t-4.5 4t-6 2.5t-6.5 2t-8 1h-8h-8h-7.5q0 -7 1 -13.5t2.5 -12t3 -10t3.5 -6.5
t3 -2z" />
    <glyph glyph-name="numbersign" unicode="#" horiz-adv-x="716" 
d="M64 -11q0 6 -11 12.5t-11 8.5l42 155q0 15 -3 22.5t-7 8.5t-14 2t-18 4q-2 0 -5 3t-9 3q0 9 4.5 33.5t9 44.5t5.5 20h44q8 11 21.5 15t24.5 4t19.5 11t8.5 36q0 14 -6 14h-80q-4 0 -7 9t-6 10q17 56 18 68q0 17 46 17q4 0 14 -0.5t16 -0.5q55 0 79 15q6 19 11.5 46.5
t10 44.5t13 34.5t26.5 26t46 8.5q9 0 13 -10.5t4 -20.5q0 -8 -3.5 -12.5t-16.5 -11.5q-1 -7 -8.5 -49t-9.5 -50l1 -6v-6h72q6 -6 14 -6t18 18.5t15.5 36t5.5 19.5h6q0 74 28 93q6 0 35.5 5.5t32.5 5.5h3l3 1v-7h13q-7 -7 -7 -13q0 -2 1 -6.5t1 -7.5q0 -10 -11.5 -27.5
t-14.5 -25.5q-1 -3 -2 -17t-4 -23.5t-10 -9.5h-1l-2 1l7 -7q-13 -26 -13 -27q0 -16 17.5 -21t42.5 -4.5t33 -2.5q-6 -9 -11.5 -28.5t-9.5 -33t-9 -13.5q-13 -11 -70 -11q-54 0 -54 -81q0 -19 60 -19q21 0 26 1q6 -6 6 -18q0 -9 -15.5 -32.5t-20.5 -23.5q-12 0 -19 12l-7 -6
l-67 -18q-7 -2 -15 -23t-16 -45t-12 -30q-5 -8 -8.5 -20.5t-7.5 -19.5t-13 -7q0 -7 1.5 -14t1.5 -9q0 -7 -11 -17h7q0 -19 -20 -25q2 9 -15 8q-6 0 -23 -3q-44 -7 -53 2l-1 -1q16 46 43 111q1 2 13 26.5t12 39.5q0 22 -53 22q-48 0 -52 -13q-65 -204 -87 -204
q-7 0 -21.5 4.5t-23.5 4.5zM106 23q-18 0 -18 -14q12 0 21 14h-3zM286 37q0 -14 27 -14h-6q16 3 26 37.5t10 46.5v2q-57 -15 -57 -72zM119 72q-23 0 -29 -8t-6 -35q6 0 21 21t17 22h-3zM115 54v-5l7 5h-7zM106 104q-9 -3 -9 -14l12 14h-3zM131 98q-2 0 -5.5 -2.5t-3.5 -5.5
q12 0 12 7q-2 1 -3 1zM338 127q-27 -2 -27 -19q36 0 57 50l-43 -18zM152 146q-18 -11 -24 -19q22 0 24 7q1 3 1 6zM128 153q-19 0 -19 -19q19 9 25 18q-5 1 -6 1zM134 171q4 0 8.5 -3.5t4.5 -6.5l-1 -3q19 11 19 31zM359 172q-30 0 -30 -14q30 0 30 14zM128 189v-5l12 5h-12
zM357 189q1 -6 12 -6t11 19zM287 229q0 -5 26 -9t26 -26q11 0 48.5 29.5t37.5 40.5l-1 1q-3 0 -29.5 -9.5t-37.5 -9.5v13q-15 0 -42.5 -9.5t-27.5 -20.5zM134 220q-1 -2 -1 -5q0 -8 13 -8q26 0 56 32q2 -8 14 -8q4 0 8.5 1.5t7.5 3.5t7 6.5t6 6.5t6.5 7.5t5.5 6.5
q-6 2 -24 2q-26 0 -60 -13.5t-39 -31.5zM61 263q1 -3 3.5 -11t4.5 -11.5t8 -6.5t17 -3q39 0 46 14h-22q0 11 13.5 15.5t32 8t25.5 7.5q-1 2 -1 5q0 7 7 19t7 19q0 1 -3.5 4t-3.5 5q0 3 13 16h-4q-4 1 -6 1q-10 0 -18 -25.5t-8 -37.5q-3 0 -19 3t-19 3v12q-7 -7 -34 -17
t-39 -20zM516 265q-31 0 -43 -2q-8 0 -26.5 -9t-18.5 -16h4q3 1 4 1q6 2 26 3.5t36.5 3.5t17.5 5v14zM307 263q-13 0 -13 -12zM418 300q-26 -8 -38 -24q1 0 5.5 -0.5t7.5 -0.5q26 0 26 15zM220 313l13 -13q12 0 35.5 -0.5t34.5 -0.5q40 0 47 7l37 75q0 7 -44 19
q1 -8 -73 -14q-3 0 -26 -36.5t-24 -36.5zM424 337q-32 -8 -32 -33q10 0 19.5 11t12.5 22zM424 363q-5 0 -10 -4t-5 -9h9q1 0 7 5.5t13 13t10 12.5q5 7 4.5 17.5t6.5 15t33 4.5q14 4 40 16t27 14l7 13q-6 -5 -27 -12t-28 -7q-2 0 -5 3t-4 3h-7l-5 -1q0 9 -3.5 19t-3.5 22h-22
q43 32 43 66l-31 -32l6 -6q-24 -9 -24 -31q0 -12 18 -18q-27 -34 -27 -37h9q-7 -12 -17.5 -15t-16 -9t-5.5 -28q0 -15 8 -15zM224 376q-10 0 -20.5 -6t-10.5 -16q31 0 31 22zM208 393l-12 -12q1 0 8 2.5t10 2.5zM208 405q3 -6 15 -6q1 0 28 19q11 4 24.5 5.5t24.5 5t25 13.5
l-18 -24q14 0 22 2.5t16 7.5t16 8q-6 -10 -6 -20q9 0 22.5 10t18.5 10q9 0 9 -6q22 10 37 34h-37v9l-3 -1q-2 0 -6 -1t-9.5 -2t-11.5 -1.5t-10 -0.5q-3 0 -4 0.5t-2 2.5t-2 3q-25 0 -73 -23.5t-76 -44.5zM120 436q2 -5 2 -6q-2 -7 -13 -12q1 0 7.5 -1t7.5 -1q32 0 54 29
q0 10 -16 10q-15 0 -28 -7l6 13q-2 1 -12 1q-20 0 -20 -26h12zM220 462q-13 0 -25.5 -16.5t-12.5 -30.5q36 0 51 21l-19 12l12 13l-3 1h-3zM430 430q-13 -5 -18 -12h3l3 1q2 1 6.5 4t5.5 7zM566 436q-7 0 -17.5 -4.5t-18 -8.5t-8.5 -5q6 0 16.5 -0.5t14.5 -0.5q7 0 10 3.5
t3 15.5zM289 541q-13 -13 -13 -33q0 -13 -21.5 -32.5t-21.5 -27.5l37 6q-2 4 -2 12q0 26 32 62zM479 566v-20q20 0 35 30t21 57q-6 2 -16 2q-28 0 -28 -21l1 -2v-3h19zM289 559q6 -6 9 -6q10 0 10 32q-19 0 -19 -26zM294 602q0 -2 2 -4t4 -2q20 16 20 21q0 3 -5.5 7.5
t-9.5 4.5q-5 0 -8 -10t-3 -17z" />
    <glyph glyph-name="dollar" unicode="$" horiz-adv-x="506" 
d="M154 36q0 4 7 7q0 3 2 22.5t3 22.5q0 8 -36 20t-56 14l-13 1q0 11 -12 16v45q6 1 6 10q0 2 -0.5 7t-0.5 8q0 11 10 11q5 0 15 -10q7 -2 31 -3.5t42.5 -6.5t23.5 -16l5 6q4 -1 13 -1q28 0 51 10t23 34q0 27 -40.5 49t-69.5 22q0 4 -22.5 13.5t-47.5 19.5t-29 14
q-25 25 -25 67q0 90 71 120q48 7 48 17v60q5 5 12 5q0 -10 5.5 -28t10.5 -18t15 5v-5q0 -4 -13 -25t-17 -21q3 -2 6 -9t7 -7q2 0 7 3.5t11.5 7.5t8.5 5v66l-5 5q5 0 5 6q0 11 -5 14h20q6 0 6 -64l40 -17v-5q7 0 15 -3t18 -3q0 -1 12.5 -4.5t25.5 -12t14 -22.5q0 -1 -2 -8
l-1 -7q0 -5 2 -14t2 -14q0 -12 -4 -15t-13 -3q-24 0 -61.5 15t-58.5 16q-23 0 -54.5 -11t-31.5 -30l41 -40q4 1 12 1q21 0 61.5 -15t52.5 -16v-7q5 0 18 -5.5t13 -10.5q0 -2 -1 -3q9 -3 21.5 -17t16.5 -14q2 0 3 1q0 -4 6 -24.5t10 -20.5q0 -41 -4 -57.5t-11.5 -25
t-36.5 -29.5l-1 -2l-2.5 -5t-1.5 -4q-4 -6 -22 -8t-18 -12h-51v-40q12 -4 12 -34q0 -14 -57 -14v8h-15l5 -5h-14q0 1 -6.5 6.5t-6.5 11.5zM209 63q-3 0 -23 -20q4 0 11 -1t12 -1q12 0 12 7q-3 1 -6 8t-6 7zM203 89q-5 0 -8.5 -9.5t-3.5 -15.5v-1q7 1 12 9.5t8 10.5q0 6 -8 6
zM191 113v-15q12 0 12 15h-12zM231 137q0 -10 18 -10q1 0 6.5 0.5t7.5 0.5l-32 11v-2zM135 146q-9 0 -9 -12h9v12zM74 144q2 -3 8.5 -4.5t7.5 -2.5v18q-8 0 -16 -11zM271 151q5 -8 9 -8q1 1 2 1l-10 11zM302 155q2 -9 11 -11q1 -1 11 3.5t14 7.5h-36zM126 178q-16 0 -16 -19
q16 0 16 19zM297 200q6 -8 22.5 -18t22.5 -18q17 17 17 56h-10q4 -8 4 -15q0 -10 -4 -10q-9 0 -25 2.5t-27 2.5zM272 180l15 -6v6h-15zM352 255q-7 -3 -25 -9q1 0 5.5 -0.5t5.5 -0.5q15 0 15 7zM332 287q-14 -3 -14 -7h14v7zM297 316q-7 -12 -7 -16q3 0 11 2.5t12 2.5z
M224 317q-9 0 -9 -13q10 0 12 12zM166 326q1 0 3 -2t4.5 -5.5t2.5 -7.5q11 2 16 6.5t5 14.5q-9 0 -31 -6zM269 337q-1 0 -8.5 -9.5t-8.5 -11.5h5q15 0 26 7q0 3 -6 8.5t-8 5.5zM239 342v1l-2 -1q-2 -2 -4 -3.5t-5.5 -3.5t-6.5 -3h3q4 -1 5 -1q11 0 18 5q-6 6 -8 6zM120 347
q6 -11 19 -11q2 0 8.5 5.5t7.5 9.5l-4 6zM74 372q2 -6 11 -6t14 11h-4.5t-9.5 -1t-11 -4zM54 405q0 -28 14 -28q2 0 2 21q0 15 -8 15t-8 -8zM74 433q7 -6 17 -6l44 31q1 0 3 16t2 19q-7 -3 -10 -10q-8 -15 -14 -21.5t-20 -14.5t-22 -14zM60 483q0 -7 -3 -19t-3 -18
q20 0 28 26.5t13 31.5l-5 4l-26 -25h-4zM318 455l-1 -1q0 -2 4 -4.5t6 -2.5v29q-9 0 -9 -22v1zM227 488l-6 -5h10zM226 517q15 0 20.5 -5.5t5.5 -19.5q25 0 25 14q0 13 -46 18q0 -2 -3 -4zM291 504q3 -12 13 -12q0 12 -13 12z" />
    <glyph glyph-name="percent" unicode="%" horiz-adv-x="835" 
d="M172 -1q0 5 9 18t20.5 28t13.5 18q4 7 11 22.5t12.5 26.5t7.5 12l160 266l7 6q5 4 99 160q3 6 16 37t26.5 49.5t30.5 18.5q9 0 23 -9.5t23 -9.5q0 -1 -16 -30.5t-34 -61.5t-20 -37q-31 -71 -38 -80q-51 -92 -141 -235q-11 -5 -13.5 -18t-6.5 -18q-17 -29 -52.5 -83
t-40.5 -54q-1 0 -5 2t-5 2q0 -5 3 -11t3 -13q0 -16 -7 -16h-79q-7 0 -7 10zM265 100l-44 -81h8h6.5h5t4 1t2.5 2t2.5 3.5t1.5 5.5t2 7q5 27 35 68.5t38 61.5q11 33 13 37q1 1 6 4t8.5 5.5t3.5 5.5q0 9 -6 9q19 0 19 12v5.5v5.5l-1 3q15 0 15 14q-11 0 -40.5 -42.5t-54 -83.5
t-24.5 -43zM302 100q-5 0 -5 -6t5 -6q4 0 4 6t-4 6zM339 155q-5 0 -5 -6t5 -6q4 0 4 6t-4 6zM376 217q-5 0 -5 -6t5 -6q4 0 4 6t-4 6zM401 260q-5 0 -5 -6t5 -6q4 0 4 6t-4 6zM407 304q-11 0 -22 -8.5t-11 -19.5q33 0 33 28zM172 303q-5 1 -6 1q-12 0 -13 -10h-30l6 16
q-5 0 -19 -7q-6 3 -19.5 18t-23.5 15q-6 0 -12 -3q3 2 7.5 9.5t4.5 10.5l-12 12q-11 18 -18 55.5t-7 65.5q0 66 47 118t111 52q46 0 90.5 -16t53.5 -52q20 0 20 -54q0 -75 -24 -127t-82 -85q-5 -3 -13.5 -10.5t-16 -11.5t-16.5 -4h-5l-4 1l6 13q-18 -14 -31 -18zM141 347
q0 -25 25 -25q28 0 72.5 26.5t50.5 53.5h-5q-59 -62 -90 -62q-15 0 -33 12t-32 13q-6 0 -15.5 -6t-9.5 -9t9 -13t12 -10q10 0 16 20zM425 340q-6 0 -10.5 -3.5t-4.5 -8.5q16 0 16 9zM456 359q-5 0 -5 -6t5 -6q4 0 4 6t-4 6zM61 492q0 -18 10 -72.5t24 -54.5q16 0 16 14
q0 35 -13 35h-8q0 6 1 10.5t1 5.5q0 4 -6 16v110q-25 -25 -25 -64zM129 408q28 -37 55 -37q40 0 66.5 41t26.5 83q0 36 -23.5 76t-59.5 40q-40 0 -59 -37.5t-19 -80.5q0 -39 13 -85zM505 420l-6 -12q6 6 6 12zM309 453q-14 0 -14 -29q14 0 14 29zM321 513q-17 -5 -17 -31h17
v31zM302 541l2 -9q3 -9 3 -12q17 4 17 44q-9 0 -15.5 -6.5t-6.5 -16.5zM549 562q-7 -3 -7 -18q4 2 5.5 4.5t1.5 7.5v6zM275 601q0 -23 20 -39l8 9q0 12 -8 21t-20 9zM591 593q-5 0 -5 -6t5 -6t5 6t-5 6zM603 618q-4 0 -4 -6t4 -6q5 0 5 6t-5 6zM567 -4q-6 -2 -17 -2
q-17 0 -17 17q-72 0 -72 154l1 33q3 6 15.5 28t18.5 31.5t19.5 27.5t24 26.5t27 15.5t33.5 7q23 0 46.5 -4t46 -18t22.5 -36q9 0 20 -17t11 -30q0 -1 -2.5 -3t-3.5 -2q14 -10 14 -34q0 -117 -32 -152h-13l6 6l-2 1q-16 0 -16 -26q0 2 4 5t5 3l3 -1q-2 -6 -28 -21.5
t-34 -15.5h-92zM592 14q0 3 -3 3q-4 0 -4 -3q0 -4 3 -4t4 4zM542 26q4 -7 13 -7v7h-13zM647 32v-6h6v6h-6zM494 152q-1 -5 -1 -16q0 -18 4 -39t9 -34t8 -13q11 0 11 10q0 1 -4 11.5t-8 22.5l-9.5 28.5t-9.5 29.5zM549 94q3 -11 22.5 -27.5t29.5 -16.5q29 0 50.5 40.5
t21.5 71.5q0 2 -0.5 12t-0.5 12h-2l-2 -1q-10 0 -10 16q0 7 4 13.5t4 9.5q-6 31 -54 31q-32 0 -54 -35.5t-22 -68.5q0 -13 9.5 -23.5t9.5 -18.5l-3 -7q-3 -6 -3 -8zM690 96q-5 0 -5 -6t5 -6q4 0 4 6t-4 6zM722 168q-4 0 -4 -4q0 -2 3 -2q4 0 4 3t-3 3zM716 140q-5 0 -5 -6
t5 -6t5 6t-5 6zM493 186q4 -7 12 -7v7h-12zM716 218q-5 0 -5 -6t5 -6t5 6t-5 6zM518 236q-5 0 -5 -6t5 -6q4 0 4 6t-4 6zM573 292q-2 0 -2 -4q0 -3 1 -3l5 3q0 2 -4 4zM647 292q18 -9 31 -9v9q0 1 -4.5 2t-10.5 2t-10 1q-6 -4 -6 -5zM623 297q0 3 -3 3t-3 -3q0 -2 2 -2
q3 0 4 2z" />
    <glyph glyph-name="ampersand" unicode="&#x26;" horiz-adv-x="580" 
d="M27 151q0 94 63 157q1 1 13 11t17.5 18t5.5 18q0 12 -20 34.5t-23 30.5q-19 51 -19 92q0 60 27.5 88.5t84.5 40.5q9 2 32.5 10.5t40.5 8.5q47 0 68 -6q5 0 18.5 -7.5t18.5 -7.5q0 -9 16 -32.5t16 -38.5q0 -10 -3.5 -16.5t-3.5 -8.5l3 -5q4 -6 4 -7q0 -26 -8.5 -44.5
t-22.5 -37.5t-20 -35l-67 -68q-12 0 -19 -7t-7 -18q0 -8 32.5 -31t65 -51.5t32.5 -49.5q11 0 23 -13.5t21 -15.5l37 136q-1 2 -1 6q0 10 11.5 15t31 7t20.5 2l-6 8q11 0 15.5 -5t5 -11t3 -12.5t7.5 -9.5q-7 -1 -7 -10q0 -2 0.5 -8t0.5 -8q0 -10 -7 -11l7 -6q-7 -5 -18 -38.5
t-11 -44.5q-3 0 -8.5 -28.5t-16.5 -28.5q0 -32 5 -41.5t18 -17t24 -23.5q6 -11 6 -16q0 -8 -12 -10.5t-27.5 -4t-21.5 -6.5q-10 0 -23 21.5t-23 21.5t-32.5 -14.5t-32.5 -15.5q-112 -20 -139 -20q-76 0 -135.5 45.5t-59.5 118.5zM227 33q-17 0 -27 -14q1 0 6 -1h4
q17 0 17 15zM243 24q2 -6 17 -6q12 0 14 6h-31zM144 31q17 -7 25 -7t8 15q-33 0 -33 -8zM195 37q-7 0 -7 -13l12 7zM296 32q-9 -2 -9 -8q1 -1 2 -1q3 0 11 8l-2 1h-2zM471 37q0 -14 22 -14q0 14 -22 14zM335 31q0 3 -9 3t-9 -2q0 -4 10 -4q7 0 8 3zM76 87q0 -11 13.5 -22.5
t25.5 -15.5q1 0 6.5 3.5t5.5 6.5t-7 13t-9 10t-5.5 -2.5t-3.5 -5.5q0 25 -7 25q-19 0 -19 -12zM232 54q37 0 86.5 7t49.5 22q0 16 -28 48.5t-64 68t-45 48.5q-14 0 -30 14t-37 21q-4 -20 -30.5 -59.5t-26.5 -67.5q0 -15 3 -20.5t8 -9t8 -9.5q46 -63 106 -63zM397 99
q0 -10 8 -13l5 13h-13zM65 210q-3 0 -8 -26.5t-5 -38.5q0 -40 17 -40q2 0 8 2.5t6 3.5v99h-18zM434 128q0 -6 4 -14t4 -10q8 0 13.5 14t10.5 17q-32 0 -32 -7zM392 135l-6 -5h12zM441 148q0 -5 7 -5q19 0 30 17l-12 13q2 -1 6 -1q19 0 19 44q0 2 -3 4t-5 2q34 13 34 77
q-31 0 -35.5 -6t-4.5 -40h14q-8 -4 -20.5 -21.5t-12.5 -26.5q0 -1 1.5 -2.5t4.5 -2.5l2 -2q0 -10 -12.5 -25t-12.5 -25zM348 186v-7h7v7h-7zM324 198l-7 -7h7v7zM268 234l38 -18q4 0 8 3t4 7q0 1 -27.5 22.5t-29.5 21.5q0 10 -2.5 12t-11 3t-16.5 6q-12 7 -32.5 37.5
t-41.5 35.5v-3q0 -9 22.5 -36.5t46.5 -46.5l4 -4q5 -3 11 -7.5t12.5 -9.5t10.5 -9.5t4 -7.5v-6zM102 244q-16 0 -21 -5t-5 -21q19 0 19 16l7 -6v16zM157 326q-15 -10 -41 -36.5t-26 -30.5v-6h25l-7 12q1 -1 4 -1q15 0 30 24.5t15 37.5zM478 315q-5 0 -5 -7q0 -6 5 -6
q4 0 4 6q0 7 -4 7zM182 364q8 -12 29 -12q3 0 36.5 22t39.5 27q2 2 10 13t15.5 20.5t10.5 9.5q4 2 12 25q4 9 15 17.5t11 17.5q0 3 -3 9.5t-3 11.5q0 7 3 22t3 24q0 18 -5 27.5t-21 12.5q8 4 8 9q0 9 -21.5 13t-43.5 4h-21v-7q34 -8 49 -18t14 -18.5t1 -19.5t14 -19
q0 -1 0.5 -10t0.5 -11q0 -22 -15 -43t-15 -34l-6 6l-13 -19l6 -5q-4 -3 -7.5 -8l-7 -10t-4.5 -7l-79 -38zM152 389q-6 0 -6 -7q0 -6 6 -6q4 0 4 6q0 7 -4 7zM139 482q0 -19 12.5 -47.5t27.5 -28.5l9 1q26 13 43 23.5t38.5 27.5t32.5 38t11 46q0 20 -12 41.5t-32 21.5
q-10 0 -28.5 -3.5t-27.5 -3.5q-10 0 -13 7q-3 -14 -21.5 -24.5t-21.5 -18.5q-2 -13 -6.5 -32.5t-8 -33t-3.5 -14.5zM126 431q-5 0 -5 -6q0 -5 5 -5t5 5q0 6 -5 6zM95 518v-12l13 6q-3 6 -13 6zM115 568q-9 0 -13 -6h13v6zM231 636q-4 0 -4 -7q0 -6 4 -6q5 0 5 6q0 7 -5 7z
" />
    <glyph glyph-name="quotesingle" unicode="'" horiz-adv-x="193" 
d="M22 561q0 8 -0.5 22t-0.5 20q0 31 8.5 45t35.5 14q56 0 56 -19q0 -42 -11.5 -121t-13.5 -94q-1 -6 -1 -17t-0.5 -16t-3.5 -11.5t-9 -9t-17 -2.5q-45 0 -45 125q0 15 1 37.5t1 26.5zM53 452q0 -3 3 -22t3 -20q2 2 19 79q0 15 -13 15q-2 0 -6 -2q14 16 14 28
q-21 0 -25 -7.5t-4 -33.5h15q-7 -7 -7 -22q0 -3 0.5 -8t0.5 -7zM47 545q3 -6 12 -6q16 0 20.5 8t4.5 28q-13 -2 -37 -30zM53 589q0 -16 -6 -19q17 0 31.5 11.5t14.5 28.5q0 4 -1 7.5t-3.5 6t-4.5 4t-6 2.5t-6.5 2t-8 1h-8h-8h-7.5q0 -7 1 -13.5t2.5 -12t3 -10t3.5 -6.5t3 -2
z" />
    <glyph glyph-name="parenleft" unicode="(" horiz-adv-x="289" 
d="M51 361q2 69 13 121.5t37 136.5q3 9 17 37.5t20 37.5q25 30 29 30q20 0 63.5 -9.5t43.5 -22.5q0 -16 -4.5 -27.5t-14 -24.5t-13.5 -21q-13 -25 -23.5 -51t-19.5 -57t-15 -52.5t-12.5 -58.5t-9.5 -53.5t-9.5 -59.5t-8.5 -55q6 -4 6 -12q0 -14 -6 -26h6q0 -11 15 -79.5
t15 -105.5h7q13 0 28.5 -55.5t20.5 -55.5q7 0 13 6q-1 -2 -1 -4q0 -4 4 -10t4 -10v-3q-1 -3 -1 -4q0 2 -2.5 4.5t-3.5 2.5q-10 0 -31.5 -6.5t-32.5 -6.5t-21 9.5t-13.5 15.5t-12.5 25q-45 55 -66 197t-21 247zM187 -90q5 0 10 -10t16 -10q0 1 -13.5 30.5t-13.5 30.5q0 3 1 3
l-37 68q1 4 1 14q0 22 -14.5 64.5t-16.5 57.5q0 2 3 9t3 17q0 14 -3.5 40t-3.5 39q0 14 3 27.5t3 20.5t-5 7q-3 0 -10 -3.5t-9 -3.5q23 33 33 57t10 60q-16 -5 -33 -17.5t-17 -25.5h13q-3 -5 -14.5 -11.5t-11.5 -20.5q11 0 24.5 15t19.5 15v-3l-37 -39q3 -6 5 -6q1 0 5 1.5
t6 1.5q0 -8 -8 -10.5t-8 -9.5q0 -22 19 -25q-13 -5 -16.5 -10.5t-3.5 -19.5l1 -13l13 -7l-13 -6q-1 -11 -1 -14q0 -12 7 -38t7 -34q0 -1 -3.5 -6t-3.5 -6q0 -5 7 -19q6 -6 8.5 -51t21.5 -54q-6 0 -6 -11q0 -12 8.5 -21.5t10.5 -22.5q1 -8 17 -25t16 -25q0 -2 -2 -6q2 6 12 6
zM88 416v-12l13 12h-13zM150 478q-17 -10 -33 -23t-16 -20q1 0 7 -1h5q23 0 30 8.5t7 35.5zM131 490q-4 -8 -15.5 -11.5t-20 -8t-8.5 -17.5q0 -1 0.5 -3t0.5 -3q87 48 87 92q-43 -25 -62 -49h18zM150 546q-1 -1 -14.5 -7t-18.5 -9t-11.5 -11t-6.5 -17h8q2 0 28.5 19t32.5 25
l-6 6q22 5 42 42t20 57q-76 -36 -80 -50q27 0 50 6l1 -2q-28 -34 -70 -59h25zM147 582q-15 0 -24.5 -8t-9.5 -22l43 30h-9zM162 637q-7 0 -16 -4t-9 -11l1 -1v-2q1 1 11 8t13 10zM187 669v-13l49 20l2 2q0 3 -23 12.5t-28 9.5q-9 0 -18.5 -14.5t-12.5 -16.5h31z" />
    <glyph glyph-name="parenright" unicode=")" horiz-adv-x="289" 
d="M138 656v13h31q-3 2 -12.5 16.5t-18.5 14.5q-5 0 -28 -9.5t-23 -12.5q1 -2 2 -2zM163 637q3 -3 13 -10t11 -8q0 1 1 3q0 7 -9 11t-16 4zM178 582h-9l43 -30q0 14 -9.5 22t-24.5 8zM175 546h25q-19 11 -36.5 26t-25.5 24l-8 9l1 2q23 -6 50 -6q-4 14 -80 50q0 -20 20 -57
t42 -42l-6 -6q6 -6 32.5 -25t28.5 -19h8q0 9 -6.5 17t-11.5 11t-18.5 9t-14.5 7zM194 490h18q-19 24 -62 49q0 -44 87 -92q0 1 0.5 3t0.5 3q0 13 -8.5 17.5t-20 8t-15.5 11.5zM175 478q0 -27 7 -35.5t30 -8.5h6l6 1q0 7 -16 20t-33 23zM237 404v12h-13zM138 -90q10 0 12 -6
q-2 4 -2 6q0 8 16 25t17 25q2 13 10.5 22.5t8.5 21.5q0 11 -6 11q19 9 21.5 54t8.5 51q7 14 7 19q0 1 -3.5 6t-3.5 6q0 8 7 34t7 38l-1 14l-13 6l13 7q1 9 1 13q0 14 -3.5 19.5t-16.5 10.5q19 3 19 25q0 7 -8 9.5t-8 10.5q2 0 6 -1.5t5 -1.5q2 0 5 6l-37 39v3q6 0 19.5 -15
t24.5 -15q0 14 -11.5 20.5t-14.5 11.5h13q0 13 -17 25.5t-33 17.5q0 -36 10 -60t33 -57q-2 0 -9 3.5t-10 3.5q-5 0 -5 -7t3 -20.5t3 -27.5q0 -13 -3.5 -39t-3.5 -40q0 -10 3 -17t3 -9q-2 -15 -16.5 -57.5t-14.5 -64.5q0 -10 1 -14l-37 -68q1 0 1 -3q0 -1 -13.5 -30.5
t-13.5 -30.5q10 0 16 10t10 10zM274 361q0 -105 -21 -247t-66 -197q-19 -39 -32 -46q-7 -4 -15 -4q-11 0 -32.5 6.5t-31.5 6.5q-1 0 -3.5 -2.5t-2.5 -4.5v4l-1 3q0 4 4 10t4 10q0 2 -1 4q6 -6 13 -6q5 0 20.5 55.5t28.5 55.5h7q0 37 15 105.5t15 79.5h6q-6 12 -6 26
q0 8 6 12q-2 12 -8.5 55t-9.5 59.5t-9.5 53.5t-12.5 58.5t-15 52.5t-19.5 57t-23.5 51q-4 8 -13.5 21t-14 24.5t-4.5 27.5q0 13 43.5 22.5t63.5 9.5q2 0 9 -7.5t13 -14.5l7 -8q6 -9 20 -37.5t17 -37.5q26 -84 37 -136.5t13 -121.5z" />
    <glyph glyph-name="asterisk" unicode="*" horiz-adv-x="423" 
d="M234 335q-5 8 -17 30t-21 33.5t-17 11.5q-6 0 -17 -18t-26 -35.5t-32 -17.5q-8 0 -20 10.5t-12 17.5q0 10 13 23.5t32.5 28.5t25.5 21l-40 21q-10 3 -34 19t-37 16q0 8 5 19t13 11q20 0 54.5 -19.5t47.5 -19.5q0 7 -1.5 19t-1.5 18q0 26 6.5 34t33.5 19q10 -6 10 -24
q0 -7 -1 -25t-1 -20q29 0 64 18l4 -4q7 11 41 14l20 -43v1q0 -22 -46.5 -35.5t-54.5 -23.5q14 -12 39.5 -44t25.5 -42q0 -4 -4.5 -10.5t-5.5 -9.5q-2 7 -15 7v3l-20 -10h5q-1 0 -6.5 3t-9.5 3zM225 392q0 -10 11 -24.5t20 -14.5q0 6 -4 13t-8 11t-11 10.5t-8 7.5v-3z
M126 389q-10 0 -17 -8t-7 -18q9 0 26 26h-2zM227 481q-4 0 -13.5 -6.5t-9.5 -13.5q7 1 16 6.5t9 13.5h-2zM239 478l-1 -1q0 -4 7 -6q10 4 10 17q0 1 -1 4v4q-6 -1 -10.5 -6.5t-4.5 -11.5zM265 502q0 -4 2.5 -8t4.5 -4h-1l13 5q12 5 12 8q0 2 -3.5 7.5t-7.5 6.5
q-10 -14 -20 -15zM164 552l10 -21l10 30q-16 0 -20 -9z" />
    <glyph glyph-name="plus" unicode="+" horiz-adv-x="472" 
d="M177 125q0 13 7 16q-10 7 -13 15.5t-3 20t-3 19.5q-4 13 -68 19h-49l5 12l-12 -6v62q-7 1 -7 16t3 17.5t23 2.5h105l12 14v48q-12 7 -12 22q0 21 12 21h49q4 0 6.5 -11.5t2.5 -15.5h-33v-45q39 0 49 48q10 -4 12 -42.5t13 -38.5h98l19 -18v-68l-6 -6q-22 0 -52 -2t-51 -5
t-21 -5v-105q0 -9 -7.5 -14t-16.5 -5q-18 0 -28.5 1t-22 9t-11.5 24zM232 153q-13 -16 -13 -26q14 0 14 17q0 1 -1 5v4zM196 165q0 -9 6 -18q18 12 24 37q-10 -3 -20 -9.5t-10 -9.5zM232 233q-17 -14 -30 -37h30q1 0 2.5 4t3 9.5t1.5 7.5q0 13 -7 16zM103 246q10 -7 19 -7
q18 0 18 31q-5 1 -6 1q-4 0 -7.5 -1.5t-7.5 -5t-5.5 -5.5t-5.5 -7t-5 -6zM184 258q-27 0 -27 -12q0 -6 1 -7q23 4 31 19h-5zM232 252v-9q29 0 42 17.5t28 17.5q0 7 -11.5 12t-11.5 10q0 2 3 7q-3 -3 -36.5 -24t-33.5 -31h20zM66 289v-37q26 16 44 37h-44zM319 276
q-3 0 -6 -1t-6 -4t-4.5 -5t-4.5 -7t-4 -7h38q-7 24 -13 24zM344 283v-32q10 0 17.5 6.5t7.5 16.5q0 3 -2 9h-23zM214 307q-4 -15 -25 -31q6 0 14 1.5t22 10.5t14 24q0 25 -7 39q-2 -1 -6.5 -3t-6.5 -2.5t-5.5 -2.5t-5 -4t-3.5 -4.5t-2.5 -5.5t-0.5 -7q0 -15 12 -15zM171 296
q-5 0 -5 -7q0 -6 5 -6q4 0 4 6q0 7 -4 7zM128 307q-5 0 -5 -6q0 -5 5 -5q4 0 4 5q0 6 -4 6z" />
    <glyph glyph-name="comma" unicode="," horiz-adv-x="221" 
d="M67 -89q-30 0 -30 12q0 13 12.5 33t12.5 31q0 2 -7 11.5t-8 13.5q0 1 -2.5 17t-2.5 19q-1 2 -1 6q0 7 5 11.5t14.5 6.5t19 2.5t24.5 1.5t24 2q10 -1 10 -6v-2q-1 -1 -1 -2q0 -4 6 -6l-4 -5q5 -2 5 -9l-1 -5l-4 5l-1 -4v-5q0 -9 5 -12q-5 0 -5 -18q0 -10 1 -12
q-13 -2 -33 -47t-39 -45v6zM117 7q-31 -7 -55 -71l3 -1l2 1q4 2 27 30.5t23 35.5v5zM88 22v-5h15v5h-15zM71 40q0 -8 11 -8q10 0 21 5v-4h17q0 8 -4 14t-4 10q-4 0 -22.5 -7.5t-18.5 -9.5z" />
    <glyph glyph-name="hyphen" unicode="-" horiz-adv-x="444" 
d="M338 203q-8 0 -45.5 7t-61 10t-35.5 -4h-148v78q48 0 142 4t143 4q15 -7 22.5 -30t7.5 -44q0 -7 -6 -16t-19 -9zM172 247q1 -2 5.5 -4.5t6.5 -2.5t7 2.5t5 4.5h74l6 5q0 -7 16 -7h5h5.5h5t5.5 0.5t4.5 1t4 1.5t3 2.5t2 3.5t0.5 5q0 13 -16 13q-23 0 -28 -7q-1 0 -7 3
l-6 3l-6 -3l-6 -3l-12 6q-19 0 -50 -6q-1 7 -11 7q-15 0 -23.5 -6.5t-10.5 -6.5q-5 0 -25.5 6.5t-24.5 6.5q-26 -4 -28 -13q0 -15 55 -15q20 0 44 3z" />
    <glyph glyph-name="period" unicode="." horiz-adv-x="242" 
d="M44 21q0 81 24 81q12 0 38 -6.5t26 -12.5v-81h-75l-12 7q-1 8 -1 12zM82 52q0 -11 -6 -14q1 -1 10 -1q15 0 15 23l-1 3l-24 7l-1 -3q0 -3 3.5 -7t3.5 -8z" />
    <glyph glyph-name="slash" unicode="/" horiz-adv-x="531" 
d="M24 -56q0 8 -6 12q19 25 19 43q2 13 9 37t9 24l12 13l129 229l43 85q0 7 17.5 52t39 99t23.5 60q23 50 38 65q11 11 24 20q3 -1 36 -6.5t51 -23.5q0 -15 -34.5 -100.5t-45.5 -91.5l-7 7l-18 -38l11 7l-141 -284l-12 -12h16l-46 -81q-1 0 -1 0.5t-1 0.5q-5 0 -29.5 -60
t-37.5 -63q-10 -1 -13 -1q-15 0 -43 3.5t-42 3.5zM42 -20q-7 -3 -7 -11h69q4 0 9.5 7.5t5.5 11.5q-15 0 -37.5 -4t-39.5 -4zM60 2q3 -4 13.5 -9.5t15.5 -5.5q4 0 7 7t11 7q3 0 7.5 -1t6.5 -1q10 0 14 16h-31q8 3 20.5 11t22.5 10q24 35 62 111q9 38 12 43q2 6 18 32t16 43
h-16q7 1 7 6q0 1 -1 5t-1 6q4 0 6 0.5t3 0.5q4 0 12 -7q10 14 11 29t13 27q7 7 37 57t30 67q0 2 -12 8.5t-12 12.5l1 3l27 -13q16 0 30 49.5t22 49.5q2 0 19 68l1 1v1q0 6 -19.5 9t-32.5 3q0 -10 8 -14q-24 -6 -39.5 -31.5t-15.5 -52.5q0 -7 18 -15q-3 1 -8 1
q-14 0 -21.5 -13.5t-7.5 -29.5q0 -7 5 -7q-10 -3 -17.5 -15.5t-12.5 -14.5l-37 -99q0 -15 -45 -91t-48 -94v-9q0 -1 -12 -13.5t-12 -21.5q0 -6 6 -6q-17 0 -42.5 -42.5t-25.5 -58.5t12 -19h-25zM215 122q-6 -10 -6 -18q6 10 6 18zM153 116h19v-7q-7 0 -19 7z" />
    <glyph glyph-name="zero" unicode="0" horiz-adv-x="689" 
d="M283 -12q-23 7 -46 17t-54 26t-33 17l-12 7q-93 117 -93 278q0 93 45 182t122 132l20 10t19.5 10t16.5 7.5t18 6.5t17 3.5t20 1.5q59 0 127.5 -44t112.5 -99q18 -23 43 -94.5t25 -97.5q0 -41 -12 -55v-80q-28 -24 -28 -57q0 -9 3 -17q-16 -6 -20 -28t-16 -27q0 2 2.5 8
t2.5 10q-17 -26 -23 -26q-1 0 -1 1q-17 -42 -55 -55l18 18q-12 0 -25 -8.5t-19 -9.5q-8 -3 -80 -13q-1 0 -6 0.5t-8 0.5q-10 0 -11 -6q3 0 10.5 0.5t12.5 0.5q21 0 21 -8q-64 -12 -114 -12zM410 5q9 -1 25 3.5t23 4.5v-6q0 -3 -20 -6t-28 -3v7zM243 37q14 -13 39 -13
q26 0 41 19q-48 6 -56 6l-1 -1h-2t-4 0.5t-5 0.5q-13 0 -13 -9zM353 44q-27 0 -30 -14q1 0 6 -0.5t8 -0.5q28 0 34 14l-8 1h-10zM378 37q9 -7 25 -7q20 0 62.5 16t42.5 22v21q2 0 8.5 -1t9.5 -1q13 0 13 11q0 5 -4 10.5t-4 11.5l1 9q4 0 9.5 -3t7.5 -3q10 0 31 57t21 73
q0 7 -3.5 16t-3.5 15l6 5q8 11 8 87h-9q0 51 -29 103t-74 52q-7 0 -7 -3q0 -12 17 -12q12 0 14 2l-12 -19q4 -1 6 -23t10 -22q4 0 8 3l-12 -19q3 -3 7.5 -18.5t16.5 -15.5q10 0 14 3q-14 -9 -14 -40q0 -16 7 -16q2 0 6.5 3t5.5 4q-12 -24 -12 -37q0 -9 6 -31t6 -31
q0 -30 -33 -98t-59 -74q6 -6 6 -10q0 -1 -13 -4.5t-27 -11t-16 -18.5q0 3 -4.5 7.5t-6.5 4.5q-5 0 -16.5 -7t-15.5 -11zM193 61l13 -12q14 10 14 21q-25 0 -27 -9zM236 56q-9 0 -12 -7q15 0 19 6l-3 1h-4zM181 80v-8q2 0 18 8h-18zM156 314q0 -119 40 -179.5t152 -60.5
q88 0 136 68t48 161q0 1 -2.5 11.5t-3.5 11.5q0 28 -12 68q-1 3 -13.5 35t-24 63t-11.5 32q-64 68 -113 68q-24 0 -53.5 -21.5t-49.5 -21.5q-47 -32 -70 -99.5t-23 -135.5zM132 111q16 -31 34 -31q3 0 9 4.5t6 9.5q0 18 -31 18q-2 0 -9.5 -0.5t-8.5 -0.5zM132 135
q2 -8 26 -8q0 12 -2 12t-6 -10zM106 175v-10q0 -31 10 -31l3 1l25 31q0 9 -38 9zM101 197v-6h39q0 25 -8 25zM82 238q0 -5 6.5 -17.5t9.5 -12.5q11 0 22.5 13.5t11.5 25.5l-37 6q-2 0 -7.5 -6.5t-5.5 -8.5zM122 303q-11 0 -24 -12.5t-16 -24.5h51q0 8 -3 22.5t-8 14.5z
M70 312q0 -1 -0.5 -4.5t-0.5 -5.5q0 -12 7 -13q2 1 12 6.5t14 8t11 7t9.5 8t2.5 7.5l-49 13q-6 0 -6 -27zM82 407l-12 -63q62 28 62 50q0 9 -14 14t-23 5q-1 0 -13 -6zM132 365q-8 0 -22.5 -4.5t-14.5 -9.5v-7h37v21zM88 425q30 -6 33 -6q0 12 -16 12q-2 0 -8 -2.5t-9 -3.5z
M132 469q2 -7 12 -7q5 0 7 0.5t3.5 3.5t1.5 9q-18 0 -24 -6zM138 536q-21 -14 -21 -38q39 0 39 14zM175 540q0 -10 9 -10t9 6l-18 7v-3zM489 549q1 -8 19 -8l8 1q7 1 10 1q0 3 -11.5 10t-12.5 8q-3 0 -8 -5t-5 -7zM457 581q0 -15 20 -15q3 0 9 0.5t9 0.5q-8 14 -38 14z
M199 599q11 -20 40 -20q0 9 -5 20.5t-13 11.5q-12 0 -22 -12zM439 606q0 -21 7 -21q8 0 12 7q-10 14 -19 14zM353 635q7 -9 19 -15.5t27.5 -12t21.5 -8.5l13 11q-20 28 -63 28l1 3v5q0 8 -6 8q-12 -7 -13 -7q-2 1 -2.5 3.5t-3 3t-12.5 0.5q-36 0 -42 -14h30q-14 -6 -14 -18
h39zM261 629q0 -9 6 -12q4 2 7 11.5t6 11.5q-19 0 -19 -11z" />
    <glyph glyph-name="one" unicode="1" horiz-adv-x="366" 
d="M223 -10q1 7 -7 9.5t-21 2.5q-2 0 -5.5 -3.5t-3.5 -8.5q-37 34 -37 56q0 10 6 13h-7q0 42 7 61q0 48 1.5 123.5t1.5 109.5q0 90 -15 106q-1 3 -1.5 9t-1.5 9t-2.5 6.5t-5 5t-8.5 1.5q-2 0 -24 -11.5t-25 -12.5q-2 -1 -3 -1q-2 1 -3 1l6 6q-2 6 -9 6q-3 0 -4 -1
q-19 38 -19 63q0 12 9.5 14t9.5 4q57 25 112 93h73q0 -6 4 -17t4 -18q0 -20 -7 -27h8q0 -23 -8 -31h9q0 -44 -3 -74q0 -1 -3 -12t-3 -13q0 -1 2.5 -3.5t3.5 -2.5v-105q7 -2 7 -15q0 -15 -7 -16l6 -5l-6 -7l6 -7v-80l7 -6v-172h-9q0 -3 1 -19.5t1 -18.5t-2.5 -7t-3.5 -5h-31z
M174 52q0 -34 67 -34v46l-12 7q19 7 19 32q0 30 -7 30q-6 0 -19 -3.5t-17 -3.5q10 0 25.5 13.5t15.5 23.5h-29q1 1 7 4.5t9 5.5t6 6.5t3 9.5q0 7 -4 9t-15 2q19 11 19 25q0 13 -13 13q2 1 6.5 5.5t5.5 6.5q0 62 -24 62q-9 0 -12 -7q10 13 24 18v56l-6 6l6 7v227q0 3 -32 7
q-9 0 -11 -7l7 -6q-20 -9 -47.5 -37t-39.5 -36q-2 -2 -13 -7t-14.5 -10.5t-3.5 -17.5q21 0 42.5 17.5t28.5 17.5q16 0 28 -13q-8 -2 -8 -13q0 -6 8 -11q0 -3 -3.5 -9t-3.5 -10q10 -34 12 -57t2 -89q0 -20 -0.5 -49.5t-0.5 -32.5q8 -8 8 -38h9q1 -3 1 -5q-5 -6 -12 -6
q0 -15 -3 -39t-3 -36q0 -5 0.5 -7t3.5 -3.5t9 -1.5q-14 -9 -14 -32q9 0 20 6.5t24 6.5q-5 -7 -27 -19.5t-22 -29.5zM226 46h-1q1 0 5.5 -2t4.5 -4q-17 -6 -30 -6q9 9 18 12h3zM217 601h6q-6 -9 -26 -16t-23 -9q17 25 43 25z" />
    <glyph glyph-name="two" unicode="2" horiz-adv-x="508" 
d="M394 -9l-92 7q-8 -9 -40 -9h-10v7q-8 0 -20.5 -5.5t-28.5 -6.5q0 4 -8 4t-17.5 -2t-10.5 -2v7h-74q-10 8 -15.5 7.5t-16 -4.5t-15.5 -4q-16 0 -16 17l1 9l104 110q3 12 45.5 60.5t42.5 65.5q0 1 -0.5 2.5t-0.5 2.5q80 92 80 133v22q0 6 6.5 20t6.5 16l-1 5
q-25 64 -53.5 93.5t-87.5 29.5q-25 0 -42.5 -7t-24.5 -16t-17 -18.5t-22 -12.5l7 -7q0 -7 -6.5 -16.5t-13.5 -9.5q-31 0 -31 81q0 14 13 20q-1 -2 -1 -6q0 -6 5.5 -15t5.5 -15q12 0 23 9.5t11 22.5q0 8 -5.5 14.5t-13.5 7.5q6 6 6 12q8 23 51.5 33t78.5 10q109 0 185 -92
q8 -10 13.5 -31.5t11.5 -30.5q0 -45 -1 -68.5t-8 -56.5t-22 -60q-47 -69 -93 -124q-7 -8 -25.5 -26t-30.5 -32t-12 -22q0 -24 185 -24v-12q2 0 8.5 3t8.5 3q21 0 21 -71q0 -2 0.5 -8.5t0.5 -9.5q0 -22 -14 -22q-13 0 -31 12zM129 16q1 -8 32 -8q16 0 24 1t20.5 6t18.5 19
t6 37h-8l-50 -50q-5 0 -5 7q0 6 18.5 24t18.5 22q0 6 -7 9q-16 0 -31 -14t-20.5 -23t-16.5 -30zM120 28q-3 0 -9 -3.5t-7 -3.5q1 0 3 -0.5t4 -0.5q8 0 12 8h-3zM246 28v-8q24 0 27.5 5t3.5 34zM332 52l-23 -24q9 -1 11 -1q19 0 19 13q0 10 -7 12zM350 49q0 -22 10 -22
q5 0 14.5 17.5t9.5 27.5h-5.5h-6t-5.5 -0.5t-5.5 -1.5t-4.5 -2.5t-4 -4t-2 -6t-1 -8.5zM394 65l-18 -37h31l-7 37h-6zM295 71q0 -5 -1.5 -13.5t-3 -15.5t-1.5 -8h6l32 31q-4 6 -32 6zM256 72q-15 0 -15 -26l24 25q-1 0 -5 1h-4zM236 194h-14q0 -1 -22.5 -25.5t-49 -59
t-33.5 -57.5q23 0 38.5 16t31.5 50.5t22 44.5q2 4 14.5 15t12.5 16zM246 226q-8 -5 -8 -13h15q0 9 -7 13zM252 241q0 -3 5 -6.5t8 -3.5q5 2 13.5 12.5t7.5 13.5q-13 0 -34 -16zM280 280q-8 0 -8 -12h1q1 0 17 7q-5 5 -10 5zM295 296q0 -2 3 -4t7.5 -3.5t5.5 -2.5l3 1l13 25
q-1 0 -9.5 -3t-15.5 -6t-7 -7zM332 358q0 -10 13 -10q14 0 14 20q-27 0 -27 -10zM345 416l25 -12q13 15 13 57q0 4 -0.5 21t-0.5 21l-12 19l-31 -32q-1 -1 -1 -3q0 -9 16 -13t16 -16l-14 -16q-13 -17 -13 -23q0 -3 2 -3zM339 571q-5 -15 -19 -25h39q0 5 -20 25zM281 609
q0 -38 9 -38q2 0 8 2t14.5 5t14.5 5q-7 9 -21 17.5t-25 8.5zM104 595q0 -6 13 -6q7 0 21 10t23 10q1 0 3 -0.5t3 -0.5l18 23q-1 0 -5 0.5t-5 0.5q-71 0 -71 -37zM272 608q-13 -5 -20 -13q8 0 11.5 0.5t6 3.5t2.5 9zM209 630q-14 0 -31 -22h68q8 0 8 20q-10 0 -23.5 -3.5
t-21.5 -3.5v9z" />
    <glyph glyph-name="three" unicode="3" horiz-adv-x="528" 
d="M44 20h-14q0 60 38 112q5 1 6 1q4 0 14 -10t12 -10t6.5 2.5t4.5 3.5q64 -37 127 -37q57 0 85.5 19.5t28.5 70.5q0 40 -37 95q3 3 3 5q0 14 -79 32.5t-79 22.5q0 1 1 2q-1 0 -13 -6q-37 6 -37 21q0 10 9.5 36t15.5 29q16 -1 38 -1q160 0 160 63q0 72 -69 104q-12 2 -39 2
q-23 0 -66.5 -11t-65.5 -11q0 11 -13.5 35.5t-13.5 38.5q0 13 85 26.5t121 13.5q76 0 117.5 -54t41.5 -132q0 -24 -6 -36q-2 -4 -13.5 -21t-20.5 -33.5t-9 -24.5q0 -2 4.5 -6t11 -8.5t8.5 -5.5q40 -36 51 -82.5t11 -119.5q0 -16 -6.5 -24t-6.5 -13q0 -2 0.5 -6.5t0.5 -7.5
q0 -23 -43 -64t-71 -41l-45 -1q-45 -1 -54 -1q-11 0 -34 0.5t-42 1t-20 0.5q-104 13 -104 25v5zM87 8l24 -6v6h-24zM278 45q2 -2 5 -16t10 -14q16 0 22 3t10.5 15.5t7.5 17.5l7 -6q8 7 18 25v-6q-4 -9 -8 -16t-5 -11t-1 -15q25 0 60 36t35 61q0 19 -7 25h20q0 29 -1 47
t-4 43.5t-10 41t-19 30.5t-31.5 22t-45.5 7q-12 0 -19 -1l4 1q5 1 10 2.5t10 4.5t6 6q-6 6 -7 6q-6 0 -12 -6l-37 12q30 7 62 30t32 50q0 7 -11 14t-19 7q0 -42 -57 -64q5 -4 5 -12q0 -5 -8 -9t-21 -8t-20 -8l6 -6h-37l7 6h-25l12 13h-31v10q-50 0 -50 -20q0 -12 19.5 -16.5
t46 -4.5t28.5 -1q15 -3 51.5 -21t58.5 -18q0 -8 -2.5 -11t-2.5 -5q0 -7 5 -12l13 5l-6 7h43q-2 -7 -17 -7t-20 -12q4 0 7.5 -18t6.5 -38t5 -24q5 -11 30 -24h-24v-56q-6 -5 -20 -25v13q-3 -2 -20.5 -13t-28.5 -19.5t-18 -17.5v14q-9 0 -21 -4t-19 -4q-34 7 -40 7
q-12 0 -28.5 -12t-16.5 -26q9 0 23.5 6.5t21.5 6.5v-20q59 0 62 32zM161 70q-14 0 -33 -18t-19 -32q34 0 52 31q-8 -8 -8 -24h8l30 31q-24 12 -30 12zM62 42q0 -9 23 -9q7 0 17.5 9t14.5 19h-18q2 7 12 12t13 9q-3 4 -9 8t-13.5 7t-8.5 4q-14 0 -22.5 -21.5t-8.5 -37.5z
M388 95q0 1 0.5 3t0.5 3q14 -21 14 -22q-1 -1 -1 -2q-14 5 -14 18zM389 193q16 0 24 -12l-6 -6zM383 218h6q15 0 37 -12h-14q-20 0 -29 12zM407 252v-9h13q-2 -7 -16 -7h-4q-4 1 -5 1q0 15 12 15zM269 385q-15 0 -22 -7h8q16 0 23 7h-9zM363 471l36 -13q5 0 9.5 26t4.5 37
q0 13 -9 13q-2 0 -6.5 -1t-6.5 -1q-7 0 -8 7q3 -1 8 -1q12 0 12 15q0 10 -1 10l-32 37q-3 1 -6 1q-9 0 -28 -4.5t-36 -4.5q0 -4 10 -8.5t20 -6.5l10 -2l-13 -5q8 -5 21 -35.5t15 -32.5l-5 -13l12 -6q-7 0 -7 -12zM173 589q-5 0 -5 -7t5 -7t5 7t-5 7zM181 616q-28 -2 -39 -16
h17q22 0 22 16zM336 625q-17 -1 -31.5 -8.5t-14.5 -16.5q10 1 25 4t26 6l11 2q-9 13 -16 13zM99 612q-5 0 -5 -6t5 -6t5 6t-5 6zM210 612q5 -5 12 -5q6 0 6 5h-18zM265 637q0 3 -9 3t-9 -2q0 -3 9 -3q8 0 9 2z" />
    <glyph glyph-name="four" unicode="4" horiz-adv-x="575" 
d="M288 -1q0 3 0.5 22.5t0.5 33.5q0 69 -11 90t-47 21v7q-2 -7 -12 -7l-5 7q-4 0 -10 -4t-11 -4q-14 0 -17 8q0 -5 -46.5 -9.5t-65.5 -4.5v7q0 -1 -4.5 -3.5t-6.5 -2.5q-2 6 -8 6q-4 0 -6.5 -1t-5 -2.5t-5.5 -2.5v8q-8 0 -12 0.5t-8 5.5t-4 14q0 7 13.5 24.5t31 37
t22.5 28.5q4 4 16.5 22.5t15.5 20.5q20 52 58.5 111t52.5 86v2q1 2 1 4q0 1 -1 4v2q18 52 42.5 97t40.5 45q12 0 32 -7t31 -7q0 -5 7 -17t7 -24q0 -53 -3.5 -172t-3.5 -174l7 -11h67q4 0 8.5 -32t4.5 -38q0 -16 -80 -16v-180h-80zM312 54q0 -31 19 -31q18 0 18 11
q0 8 -13 10.5t-13 9.5q0 8 7.5 20t7.5 19h-19q-1 0 -2.5 -7t-3 -16.5t-1.5 -15.5zM337 130q-22 0 -25 -19h25v19zM299 142q3 -7 13 -7q23 0 23 20q-29 0 -36 -13zM331 179q-12 0 -26 -13h2q2 0 4.5 -0.5t5.5 -0.5q20 0 20 9q0 5 -6 5zM319 191q-13 0 -20 -6l6 -1q11 0 18 7
h-4zM97 222q-15 0 -33.5 -9.5t-18.5 -23.5h10.5h10t9 0.5t9.5 1t8 2t8 3.5t7 5.5t7 7.5q-3 -5 -3 -7q0 -11 33 -11q20 0 30.5 3.5t16.5 9t23 24.5q-6 0 -23 -6.5t-31 -12.5l-14 -6l-6 1q1 2 16.5 12.5t15.5 18.5q-13 0 -24.5 -3.5t-29 -12t-22.5 -10.5h-6q7 6 7 13zM219 197
q22 -6 62 -6v6l-31 12q-10 0 -31 -12zM395 228l-33 -12v-7h59q0 19 -26 19zM294 252q-2 -12 -13 -16t-23.5 -3t-22.5 -2.5t-10 -15.5q19 0 54 11t44 26h-29zM331 240q-7 0 -43 -24h6l5 -1q21 0 44 13q0 3 -4.5 7.5t-7.5 4.5zM129 266q-22 0 -28 -3.5t-18 -22.5q46 0 46 26z
M170 284q27 -20 72 -20q29 0 29 52q0 82 -15 110q-4 -3 -21.5 -32t-37.5 -64.5t-27 -45.5zM337 285q-16 0 -25 -14h25v14zM141 296q-30 0 -30 -14q30 0 30 14zM319 313q-26 0 -26 -20q0 -5 10 -5q21 0 31.5 19t10.5 41q-11 0 -25.5 -7.5t-14.5 -16.5q0 -2 5 -6.5t9 -4.5z
M157 329q-24 0 -30 -20q3 0 16.5 4.5t13.5 7.5v8zM183 357q-33 -5 -33 -22q11 0 22 5t11 17zM293 357q0 -13 12 -13q9 0 20.5 8t11.5 16q0 9 -25 9q-11 0 -15 -4.5t-4 -15.5zM171 372q0 -2 -7.5 -5t-11.5 -3h4q4 -1 5 -1q19 0 36 15.5t17 34.5q-44 -20 -50 -30q7 0 7 -11z
M298 401q0 -18 39 -18v37q-8 0 -23.5 -7t-15.5 -12zM205 432h-6q-12 0 -15 -2.5t-3 -17.5q18 0 33.5 13t25 29t25.5 31.5t34 19.5v7h-54q-6 0 -12.5 -12t-6.5 -18t5 -6l-12 -14l-5 7q-4 -12 -13 -19q6 -2 6 -6l-1 -4q-1 -4 -1 -8zM294 437l-6 -18l4 -1h5q24 0 24 12
q-1 1 -2 1zM299 450q6 -6 20 -6q17 0 21.5 6t4.5 20q0 4 -1 15.5t-1 14.5l-6 5l-32 -12q1 -8 17 -8q3 0 6.5 0.5t5.5 0.5l3 1q-1 -11 -18.5 -23t-19.5 -14zM279 476q0 -21 11 -21q1 0 4.5 3t7 8t3.5 10h-26zM270 530l61 -6l12 6v98q0 8 -14 8q-22 0 -38 -16t-16 -40
q9 0 26 6.5t26 6.5l5 -1h5q-6 -6 -56 -25q3 0 15.5 -2.5t15.5 -3.5l9 1q0 -13 -23.5 -18t-27.5 -14zM266 550q-17 0 -17 -15q6 0 14 6.5t12 7.5q-1 0 -5 1h-4z" />
    <glyph glyph-name="five" unicode="5" horiz-adv-x="530" 
d="M155 -16q-2 0 -20.5 -1t-21.5 -1q-12 1 -43.5 31t-31.5 45q0 17 7.5 41t20.5 24q22 0 71 -15.5t75 -15.5q43 0 60.5 11t44.5 51v3q0 9 -13 22q10 1 17.5 11t7.5 20q0 5 -4 9.5t-4 7.5h7q0 39 -30.5 60.5t-73.5 21.5l-6 -3q-6 -4 -7 -4l-5 7q-1 0 -6 -0.5t-8 -0.5
q-8 0 -79 19q-5 5 -7 6q-8 0 -19 -6q-18 0 -18 25q0 27 9.5 79t9.5 78q0 9 -3 25t-3 24q0 16 4.5 56t7.5 40h81l5 -6l7 6q30 0 85.5 6.5t84.5 6.5q2 0 16.5 -0.5t16.5 -0.5l-5 -6h3l2 1q19 0 19 -79q0 -17 -98 -17v8l-13 -5h-105v-124q0 -6 26 -6q11 0 13 -5.5t5 -7.5
q8 -5 15.5 -6.5t17 -2.5t15.5 -2q45 -18 69 -24q4 -2 16.5 -14.5t16.5 -12.5q2 0 3 1q63 -48 63 -144q0 -19 -4 -36.5t-11.5 -39t-10.5 -33.5l-68 -68h-5v-12q0 -3 -43 -25q-28 -13 -76.5 -22.5t-79.5 -9.5v10zM94 29q0 -16 22.5 -22.5t42.5 -6.5q16 0 47.5 9t42.5 16v18
q12 -12 19 -12q6 0 24 5q-9 16 -15.5 21t-17.5 5q-10 0 -26 -4t-27 -4v-25q-8 0 -10.5 9t-8.5 12l1 -2v-5.5v-6.5q0 -17 -8 -18q-2 6 -5 17t-5.5 16t-7 11.5t-12 9.5t-19.5 3t-24.5 -18t-12.5 -28zM63 53q0 -4 3 -7.5t6 -3.5q4 0 7 6l3 7l5 -5q4 2 8.5 8t7.5 14l3 7
q-5 7 -12 7q-13 0 -22 -9.5t-9 -23.5zM279 68q1 -1 14.5 -9.5t18.5 -8.5q3 0 7 3t4 5q0 8 -8 13t-17 5q-10 0 -19 -8zM317 96q2 -14 5 -18t12 -4q17 0 32 12q-5 2 -15.5 17.5t-25.5 15.5q0 -21 21 -23h-29zM342 129q5 -4 21 -15t17 -11q6 0 15 15.5t9 24.5q-59 0 -62 -14z
M346 179q7 -13 26 -19t34 -6q17 13 17 44q-51 0 -77 -19zM378 211q-17 0 -19 -8q1 0 6.5 -0.5t6.5 -0.5q17 0 18 8h-6q-5 1 -6 1zM365 234q0 -18 35 -18q12 0 16 0.5t7.5 3.5t3.5 11q-4 21 -6 28q-56 0 -56 -25zM354 259q0 -1 2 -3.5t3 -2.5q20 0 26 13q-18 0 -31 -7z
M403 302q-32 -10 -32 -25q7 0 22.5 4t15.5 9q0 6 -6 12zM357 295q-10 0 -15 -5l4 -1q12 0 13 6h-2zM372 334q-12 0 -37 -25h7q1 0 10.5 2t21.5 4.5t16 4.5q-5 14 -18 14zM344 339q-48 0 -48 -21q27 0 58 21h-10zM261 351q-36 -6 -43 -18h6q8 0 23 4.5t15 10.5zM310 364
q-9 -1 -24.5 -16t-17.5 -15q7 1 25.5 5.5t33.5 8.5l15 4l4 7q-6 6 -29 6h-7zM101 358q38 -13 76 -13l16 1q8 3 22.5 15t14.5 16v5q-24 -11 -78 -11l-1 2q-1 2 -1 3q11 12 13 14v-1q0 12 -13 19q-23 0 -36 -14t-13 -36zM264 383q-13 0 -20.5 -5t-19.5 -20q8 -1 9 -1
q44 0 52 20q-7 6 -21 6zM155 439q-7 0 -11 -7h11v7zM137 462q-9 0 -20.5 -6.5t-11.5 -15.5l1 -2q20 10 31 24zM122 500q-1 0 -3 -1.5t-4 -4.5t-2 -8l13 13q-1 0 -4 1zM126 556l-13 -13l3 -1q2 0 5 2.5t5 5t1 2.5zM335 599q9 -7 19 -7q7 0 19 3.5t12 8.5q0 15 -19 26z
M141 624q-28 0 -35 -14h7l6 -1q21 0 31 14q-1 0 -5 1h-4z" />
    <glyph glyph-name="six" unicode="6" horiz-adv-x="550" 
d="M201 0q-1 0 -11.5 -0.5t-13.5 -0.5q-8 0 -31.5 22t-23.5 31q-40 26 -58 81t-18 113q0 14 7.5 40.5t7.5 39.5q0 2 -0.5 5.5t-0.5 5.5q38 113 83 184t127 112q4 3 15 10t17.5 11t16.5 7.5t19 3.5q8 0 31.5 -21.5t23.5 -30.5q0 -4 -0.5 -7t-1 -4.5t-3 -2t-3.5 -0.5h-5h-6v-8
l-111 -111l-37 -62v-11q12 0 33.5 2t31.5 2q9 0 36 -6.5t39 -6.5q5 0 8 1q54 -29 94 -72.5t40 -93.5h12q0 -63 -11 -105.5t-49 -74.5q-8 -5 -24.5 -17.5t-28 -21.5t-14.5 -9l-3 3q-3 3 -4 3q-13 0 -18 -19l-7 7q0 -8 -15 -12t-30 -2.5t-15 7.5q0 -3 -3 -7.5t-7 -4.5h-33
q-56 0 -56 20zM256 11q1 -7 15 -7q9 0 18.5 1t17 2.5t16.5 5t14.5 5t15 7t13.5 7.5t14.5 9.5t13 9.5t14.5 10.5t14 10.5h13q1 0 6.5 6t13 13.5t10.5 11.5q26 29 26 74q0 5 -3.5 12.5t-6.5 7.5l-3 -1q-1 -3 -16 -12.5t-15 -12.5q12 -6 16 -6q1 0 4.5 1t9.5 1
q0 -21 -26.5 -29.5t-33.5 -22.5l5 -6l-24 -12q7 -3 7 -12l-1 -6q-20 -8 -41 -19t-30.5 -15t-33 -7t-62.5 -3l13 14q-47 17 -55 18q1 1 1 4q0 7 -13.5 13t-19.5 6l6 7q-14 19 -23 36q0 2 -6.5 14.5t-6.5 17.5q0 1 3 7l3 5q0 5 -3.5 17t-3.5 27q0 27 7 42q0 7 -6 7l12 16h-37
q2 3 5.5 7.5t5 6.5t4 5t5 4.5t6 3.5t7.5 3.5t10 2.5q-3 -4 -15 -11t-12 -16q17 0 41 10.5t24 25.5h-18q0 1 -1 8.5t-1 10.5q6 30 7 38h-25q37 0 37 23q0 10 -6 10l18 18q0 4 -5.5 6.5t-17.5 4.5t-14 2q29 0 42 7t26 29q-5 1 -6 1l-49 -13q6 13 34 20.5t33 10.5l-6 6
q24 4 32 25q-9 0 -17.5 5t-8.5 14q6 0 10 -4t8 -4q22 0 52.5 23.5t46.5 45.5q-18 13 -30 13q0 -1 -19.5 -8.5t-44.5 -18.5t-35 -17q-16 -11 -43 -43q-6 -7 -25 -38.5t-19 -33.5l7 -14h-12l-31 -31v-6h6q0 -24 -31 -69l6 -4q0 -18 -12.5 -58t-12.5 -57q0 -5 4 -12t4 -19v-9
l-1 -6q8 0 12.5 -7t4.5 -15h20q-12 0 -15.5 -4.5t-3.5 -13.5q0 -8 5.5 -20t12.5 -12q4 0 7 3q-7 -7 -7 -8q0 -3 5 -9.5t9 -7.5q5 0 8 -7t14 -24t33 -36q2 0 24 6t25 6q-3 -5 -12.5 -9.5t-12.5 -8.5l7 -6h49zM195 115q76 -43 92 -43q58 0 88 40t30 99q0 49 -27.5 78.5
t-76.5 29.5l-70 -12q-5 -1 -28 -19.5t-31 -18.5q-2 0 -3 1q-6 -22 -6 -61q0 -18 4.5 -32.5t14 -33t13.5 -28.5zM453 117v-8q-3 -4 -16 -8t-20 -4q4 4 13 9t16 8zM450 154q-22 0 -22 -10v-2l1 -2q21 3 21 14zM435 208v-19q11 0 24 8t19 17zM440 239q0 -5 -3 -10.5t-3 -10.5
h10q32 0 40 9q0 10 -12 36q-34 57 -72.5 84.5t-98.5 27.5q-18 0 -24.5 -0.5t-16 -4.5t-17.5 -14q11 7 26 7l-19 -18q48 0 55 18q7 -13 14 -13q27 0 51 -21t40.5 -43t24.5 -23q-9 -1 -9 -24h14zM231 369q-10 0 -20.5 -12t-10.5 -20l37 31q-4 1 -6 1zM114 386h25v-8
q-22 0 -25 8zM225 517q-3 -3 -12 -3q-13 0 -13 3t12 3q13 0 13 -3zM237 535q-1 -3 -9 -3q-9 0 -9 4q0 2 9 2t9 -2v-1z" />
    <glyph glyph-name="seven" unicode="7" horiz-adv-x="482" 
d="M100 1l1 11l143 340q11 65 54 166l-5 19q-1 1 -72.5 6.5t-91.5 5.5h-11.5h-14h-15t-15.5 0.5t-14 1.5t-13 2t-9.5 3t-7 5t-2.5 6q0 14 6.5 37t6.5 35q0 1 -0.5 4t-0.5 5q20 5 40 5q42 0 123 -2.5t121 -2.5q22 0 63 2.5t61 2.5q3 0 16.5 -4t13.5 -7v-56l-104 -197
q-3 -18 -21.5 -49.5t-21.5 -49.5q-22 -37 -81 -154q-5 -10 -24 -58t-37 -72q0 -6 6 -12l-13 -12h-67q-7 0 -10 3t-3.5 6t-0.5 10zM144 22q0 -10 17 -10q12 0 18 12.5t7 28t5.5 31.5t14.5 21l-6 6q16 9 16 25h-10q10 7 22 27.5t21 28.5l-5 6q24 15 24 43q-15 -12 -31 -19
q6 7 21.5 18.5t25.5 23t10 26.5h-15q0 13 -11 13q-19 0 -19 -22q0 -17 13 -22q-13 0 -22 -12t-12 -22.5t-3 -14.5l6 -6q-25 -11 -25 -31q0 -1 2.5 -4t3.5 -3q-11 -1 -39.5 -63.5t-28.5 -80.5zM305 346h-30q-9 0 -9 -34q2 0 8.5 -0.5t10.5 -0.5q27 0 27 23q-24 -14 -37 -14
q4 7 15.5 13.5t14.5 12.5zM298 370q1 -6 12 -6q14 0 23.5 9.5t9.5 22.5q-13 0 -45 -26zM330 414h-37q-2 0 -7 -25q25 10 44 25zM330 438q8 -6 23 -6q7 1 11.5 7.5t4.5 13.5q-18 0 -39 -15zM330 463q-26 0 -28 -13q18 0 28 13zM348 488q2 0 7.5 0.5t8.5 0.5q19 0 28 -8
q3 21 11 25q-48 0 -55 -18zM367 555h-7q-9 0 -23.5 -19t-14.5 -31q21 0 33 14.5t12 35.5zM435 599q0 -17 -32 -44q23 0 36 18t13 43h-40q0 -6 11.5 -7.5t11.5 -9.5zM52 616v-30q0 1 2 1t19 -4.5t24 -4.5l1 1q1 1 3 2.5t5 3t8 3.5t12 4l-6 -12h92q12 12 19 12q2 0 6.5 -3
t8.5 -3q15 0 34 25q-4 -1 -12 -1q-12 0 -36 3.5t-36 3.5t-31 -9.5t-27 -9.5q14 9 14 21q-60 0 -82 -8v5h-18zM388 612q-35 0 -35 -32q34 9 50 31q-2 1 -15 1z" />
    <glyph glyph-name="eight" unicode="8" horiz-adv-x="585" 
d="M116 38q-31 0 -50.5 47t-19.5 82q0 19 3.5 36t11 40.5t10.5 32.5q12 16 33.5 34t34 30.5t12.5 23.5l-31 31q0 1 -12 27.5t-24.5 56t-12.5 39.5q0 55 51.5 93t108.5 42q7 0 27 7t34 7q60 0 111 -41t51 -98q0 -14 -6 -17v-43q-4 -2 -27.5 -39.5t-34.5 -46.5
q-6 -4 -11.5 -4.5t-7 -1.5t-1.5 -7t32.5 -35t65 -65t32.5 -60h6q0 -9 7 -28.5t7 -30.5q0 -2 -4 -5.5t-4 -5.5q0 -8 8 -11q-1 -4 -3.5 -11.5t-4 -10t-4 -6.5t-6 -5t-8.5 -1q0 -18 -4.5 -32.5t-17 -26t-20.5 -18.5t-29.5 -14.5t-28.5 -10t-32.5 -9t-27.5 -7.5l-13 -4
q-13 -3 -18 -3q-39 0 -111 22t-72 47zM176 24q8 2 13 2q12 0 33.5 -10.5t35.5 -10.5h6t4.5 1t3.5 3t1.5 5.5t0.5 9.5q0 24 -24 31q-9 -13 -25 -25l-4 2q-4 1 -5 1q0 6 1.5 12t1.5 7q0 3 -7 9t-11 6l-32 -31zM303 52q-4 0 -7.5 -2t-5 -5.5t-3 -7.5t-1.5 -9.5v-9v-8.5v-6
q39 0 39 8l-13 37q-2 3 -9 3zM326 56v-7q0 -37 19 -37q11 0 37 9t35 15q-3 4 -8 10.5t-8.5 11t-3.5 5.5t7 17q4 -3 12 -17t16 -14q7 0 11.5 5.5t4.5 12.5q0 5 -9 14t-9 11q-1 2 -1 8.5t-2 11.5t-8 5q-2 0 -5 -3t-4 -3l12 -13q-13 -2 -31 -11.5t-24 -19.5q0 -1 3 -9l2 -7
q-8 0 -22.5 2.5t-23.5 2.5zM132 58q0 -9 19 -9q8 0 13.5 8t5.5 17v3l-1 3l-36 -19q-1 -2 -1 -3zM108 80q0 -1 2.5 -3.5t4.5 -2.5q12 0 18 6h-25zM207 98q6 -1 33 -7t42 -6q48 0 82.5 20.5t34.5 64.5q0 8 -7 28.5t-7 28.5q0 5 1 7q-50 68 -142 68q-12 0 -32 -10.5t-20 -21.5
q0 -1 2 -5l-36 -93q-1 -4 -1 -5q0 -29 11 -43t39 -26zM429 146q0 -39 36 -66q13 15 13 35q0 7 -11.5 13.5t-18.5 6.5l6 6l-13 26h7l36 -39l7 7v50q0 7 -15 7q-19 0 -46 -7q0 -1 2 -6.5t2 -6.5q-5 -2 -5 -26zM144 111q-13 1 -25 -4t-12 -16q37 0 37 20zM76 148q0 -31 19 -44
q29 8 31 22h-27q-4 4 -4 8q0 7 13.5 18t13.5 17h-11h-10.5t-8 -0.5t-7.5 -2t-4.5 -3.5t-3.5 -6t-1 -9zM120 141v-6l6 6h-6zM101 191q-15 -7 -18 -13h43q4 0 7 7q0 13 -13 13q-4 0 -5 -1q7 3 19.5 13.5t12.5 18.5q0 1 -2 5l-6 6l12 12q-5 13 -35 13q-21 0 -31 -24.5
t-10 -49.5h26zM416 225q0 -13 9 -22.5t23 -9.5q0 14 -7 23l3 1q5 0 15 -7.5t14 -7.5l5 1l-3 6q-3 6 -3 9q0 2 1 3q-25 25 -39 25q-8 0 -13 -6.5t-5 -14.5zM392 259q8 -8 22 -8l8 1l-18 13q13 0 30 -6v12q0 6 -22 25t-29 19q-3 0 -34 -7q36 -22 47 -22h1l1 1q0 -7 -6 -28z
M133 271q12 -6 25 -6q1 0 3 2.5t2 3.5t-2 3t-3 2q-5 0 -25 -5zM151 308h-1q-4 0 -18.5 -13.5t-16.5 -18.5q28 0 54 14zM163 317q-1 0 -1 -1t3 -4.5t4 -3.5h-6q6 5 26.5 7t23.5 11q-6 14 -19 14q-8 0 -19.5 -7.5t-11.5 -15.5zM299 326q11 -7 19 -7q13 0 24 14q-2 19 -21 19
q-8 0 -11.5 -3.5t-2.5 -7.5t-0.5 -8.5t-7.5 -6.5zM349 326v-7q15 0 18 7h-18zM225 339v-6h25q-12 6 -25 6zM120 457l13 -26q62 -79 68 -79h61q-21 0 -43.5 18.5t-37.5 40t-28 40t-17 18.5q-1 0 -8 -5t-8 -7zM337 391q-39 0 -55 -27h48q2 0 4.5 12.5t2.5 14.5zM176 468
q7 -23 30.5 -46t45.5 -23q38 0 73.5 35t35.5 71q0 35 -16.5 58t-49.5 23q-27 0 -43.5 -1.5t-40.5 -7.5t-36 -22t-12 -41q0 -7 4 -22t4 -24h5zM376 433q-8 0 -24.5 -12t-21.5 -21h5l4 -1q15 0 30.5 9.5t16.5 22.5q-4 2 -10 2zM380 457q8 -8 19 -8q9 0 14 7t5 16
q-34 0 -38 -15zM101 527q0 -13 4.5 -36.5t11.5 -23.5l3 1q3 2 7.5 5.5t5.5 7.5q0 26 -5.5 36t-26.5 10zM384 501q0 -20 14 -20q9 0 19 6q-11 14 -33 14zM391 521q0 -15 29 -15q2 0 6 4.5t4 6.5q0 13 -8 18l-30 -11q-1 -2 -1 -3zM184 606q-27 0 -48.5 -22.5t-21.5 -49.5
q15 0 15 6q0 1 -0.5 4.5t-0.5 5.5q0 10 9.5 11.5t13.5 5.5q0 12 -6 12q39 8 39 27zM373 567q6 -7 25 -7q24 0 24 7q0 13 -2.5 16t-11.5 3q-21 0 -35 -19zM349 592q8 -13 18 -13q25 4 25 18t-21 26.5t-36 12.5q-5 0 -14.5 -6.5t-9.5 -16.5q0 -15 38 -15h6zM317 641
q-23 -3 -43 -7.5t-30 -7.5t-11 -3q-39 0 -39 -7v-14q22 0 73 11.5t51 23.5q0 1 -0.5 2t-0.5 2zM317 659q-4 0 -4 -5.5t4 -5.5q6 0 6 5q0 6 -6 6z" />
    <glyph glyph-name="nine" unicode="9" horiz-adv-x="570" 
d="M133 2q0 8 -8 13q15 9 49 21t50 22q50 30 86 86t36 112q-19 0 -52 -13.5t-51 -13.5t-26 2q0 9 -30 9v7q-47 0 -68 15q-2 1 -4.5 7.5t-14.5 6.5v4q-74 52 -74 180q0 56 23 96.5t63 61.5t85 30t99 9q60 0 104.5 -44t63.5 -100.5t19 -112.5q0 -19 -2.5 -37t-5 -29.5
t-10.5 -31.5t-10 -25.5t-14 -29.5l-14 -28q-4 -7 -12 -36t-18.5 -46t-25.5 -17q0 -66 -135 -136l7 13q-18 0 -23.5 -15.5t-14.5 -15.5q-6 13 -29 25.5t-43 10.5zM187 9q1 -7 13 -7q14 0 61.5 32.5t67.5 53.5q6 6 14.5 22t15.5 22l-7 6q7 5 17 21t10 21q0 1 -3.5 3.5
t-3.5 4.5q9 9 30 51t31 47l-6 7q8 1 8 18h-6q0 7 9 17t9 20h-45q17 18 50 18v41q-18 0 -32 -11.5t-27 -29t-21 -23.5q-7 -5 -23.5 -12t-24.5 -16.5t-8 -28.5q24 3 40.5 22.5t31.5 19.5l3 -4q-3 -2 -6 -9.5l-5 -12.5l-2 -6q0 -10 8.5 -24.5t15.5 -15.5q-31 -7 -31 -35
q0 -14 7 -15q-9 0 -13 -8t-7 -19t-6 -16q-31 -46 -36 -61l-73 -74q-2 -2 -56 -19zM311 266l-26 -13q16 0 26 13zM131 293v-7q0 -4 38 -17t43 -13t37 21t36 28q-12 0 -36.5 -6t-37.5 -6v9q-22 0 -42 -16q5 17 5 19zM304 305q-27 -9 -56 -43h4q5 -1 6 -1q15 0 31 12.5t16 28.5
l-1 1v2zM143 330q-28 -21 -30 -32h6q37 0 37 13q0 10 -13 19zM82 324q8 -6 13 -19q22 14 36 31q-41 0 -49 -12zM131 438q0 -50 28 -76.5t79 -26.5q59 0 102.5 32.5t43.5 88.5q0 27 -20.5 54t-20.5 31q-2 0 -10.5 7.5t-15.5 14.5t-6 7q-42 6 -44 6q-65 0 -100.5 -38
t-35.5 -100zM104 380q0 -1 1 -3t1 -4q0 -5 -13.5 -17t-13.5 -14q29 0 52 6q0 2 -3 13.5t-9 24t-12 12.5q-17 0 -31 -18h28zM69 366v-6q9 0 13 6h-13zM57 398l12 -14l13 19q-24 0 -25 -5zM414 413q0 -2 2 -6t5 -4q31 23 31 25q0 10 -6 19l-31 -31q-1 -2 -1 -3zM106 428
q-15 -8 -18 -12h5q14 0 14 9zM57 441l-6 -19h31q2 0 4.5 8.5t2.5 10.5h-32zM423 453q-12 0 -12 -31zM82 459q2 -4 8.5 -8t9.5 -4q7 0 7 15l-1 4v5zM119 589q-65 -59 -65 -132q16 0 37.5 15t21.5 30q0 10 -7 13q10 3 20.5 12.5t10.5 18.5q0 10 -6 12q12 4 28 17.5t28 18.5
q36 14 83 14q10 0 26 -3t27 -3q4 -13 11 -14q15 0 25 13q-10 13 -15 13q-10 -3 -10 -7q-1 6 -30 9.5t-44 3.5q-26 0 -67.5 -7t-49.5 -19q7 0 7 -12q-14 7 -31 7zM439 496q-22 -13 -22 -33q14 0 18.5 4t4.5 17v6q-1 5 -1 6zM435 516q-24 0 -24 -22q9 0 16.5 6.5t7.5 15.5z
M411 540q-17 -8 -17 -22q33 0 33 9q-9 13 -15 13h-1zM402 558q-19 -10 -19 -22q19 0 19 22zM366 567q0 -10 13 -10t13 17l-19 10q-8 -12 -8 -16zM359 589q-15 -2 -15 -13q16 0 16 9q0 1 -0.5 2t-0.5 2z" />
    <glyph glyph-name="colon" unicode=":" horiz-adv-x="235" 
d="M47 82q0 10 3.5 27t3.5 26q34 0 52.5 -5t22.5 -11t4 -16q0 -2 -0.5 -5.5t-0.5 -5.5q0 -11 12 -15q-6 -2 -6 -12q0 -13 -58 -13q-33 0 -33 30zM98 93q-10 -17 -10 -20q4 0 9 4.5t6 4.5t11 -5v5l1 4q0 7 -6 11.5t-6 5.5q0 5 5 10q-5 -3 -14.5 -5t-15.5 -5.5t-6 -12.5v-4
q1 -3 1 -4q11 11 25 11zM43 391q0 4 9 10q6 0 18.5 -3t20.5 -3q13 0 19 3t8 3t6.5 -5.5t4.5 -9.5l-6 -12q0 -2 3 -8t3 -10q0 -7 -13.5 -12t-22.5 -5v6q-16 -9 -31 -9q-8 0 -10 5zM93 377q-17 0 -17 -13q32 0 32 5q0 8 -15 8z" />
    <glyph glyph-name="semicolon" unicode=";" horiz-adv-x="278" 
d="M67 -76q-2 0 -4 -0.5t-3 -0.5t-5 6q25 34 25 84q0 3 -4.5 6t-8.5 3v98h105q2 0 7.5 -31t5.5 -38q0 -18 -25.5 -54t-43.5 -49q-40 -31 -43 -31h-6v7zM116 -9q-14 -7 -18 -12l3 -1q15 5 15 13zM129 34q-15 -11 -19 -24l6 -1q9 0 23 20t21 20q2 0 6 -2l-6 36
q-2 0 -16.5 -16.5t-20.5 -25.5zM85 61h-1q0 -1 2.5 -4.5t5.5 -3.5q6 9 6 30q-13 -6 -13 -22zM130 74l-8 -11q-3 -3 -6 -3q12 0 20.5 10t8.5 24q-32 0 -41 -29l25 13l1 -2v-2zM154 461q36 0 36 -20v-67l-12 -13q-5 0 -36.5 -2.5t-37.5 -2.5l-6 -4q-5 -3 -6 -3h-3q-9 0 -9 7
v98q63 7 74 7zM98 393q2 -8 12 -8q9 0 23.5 16.5t14.5 28.5q-21 0 -31 -16t-19 -21zM166 411q-11 -10 -19 -25h4l3 -1q13 0 13 17q-1 7 -1 9z" />
    <glyph glyph-name="less" unicode="&#x3c;" horiz-adv-x="427" 
d="M36 232h-7v12q110 126 148 204h13q67 0 67 -25q-112 -159 -112 -170q0 -25 7 -28q35 -48 86 -123q13 -20 13 -34q0 -12 -27.5 -20t-41.5 -8q-6 0 -68.5 80t-77.5 105q0 1 -0.5 1t-0.5 1t1 3v2zM152 115q4 -4 11.5 -13.5t13 -16.5t6.5 -7l25 12h-19q6 6 6 19
q-1 4 -14.5 20.5t-15.5 16.5q-14 0 -26 -13q2 -7 15 -7q8 0 10 1zM127 146l7 -7l12 13q-16 0 -19 -6zM143 183q-7 0 -16 -19h4l3 -1q19 0 19 10q0 3 -3.5 6.5t-6.5 3.5zM121 201q-15 -9 -15 -26q11 0 19.5 6t8.5 16q0 15 -7 23q-27 -14 -31 -19h25zM109 225q-20 0 -32 -18
q13 0 19 3.5t13 14.5zM96 263q-14 0 -23 -10.5t-9 -22.5q45 0 45 14q0 16 -13 19zM131 301q-12 0 -19.5 -9.5t-7.5 -21.5h11l19 30h-1q-1 1 -2 1zM183 375q-15 0 -28 -16.5t-21 -33.5q14 0 31.5 16.5t17.5 26.5v7zM195 417q-6 -5 -12 -19q0 -1 1 -1q12 0 17 14z" />
    <glyph glyph-name="equal" unicode="=" horiz-adv-x="526" 
d="M109 154q-22 0 -27.5 8t-5.5 30v4v6v5t0.5 5.5l1.5 4.5t2 4.5t2.5 3.5t4 3t5 1.5t6.5 0.5q12 0 76.5 -2t75.5 -2h6q1 0 12 -3t24.5 -5.5t19.5 -2.5q10 0 32 5.5t33 5.5q16 0 16 -28q0 -32 -7 -43.5t-35 -11.5q-3 0 -13.5 0.5t-11.5 0.5q-3 0 -35 5t-36 5q-3 0 -28.5 0.5
t-43.5 0.5t-44.5 -0.5t-29.5 -0.5zM310 180q6 0 18 -3t18 -3q22 0 22 11q0 10 -17 10q-6 0 -22.5 -4t-18.5 -6v-5zM102 202q0 -17 9 -17q5 0 23 9q0 8 -32 8zM195 202q-17 0 -23 -0.5t-16 -4.5t-17 -12h10q7 0 25.5 3.5t20.5 5.5v8zM282 191q-14 0 -16 -6h16v6zM231 201
q-2 0 -6.5 -2t-10.5 -5t-9 -4h5l4 -1q17 0 17 12zM250 200l-10 -10h3l3 -1q7 0 9 5zM296 194v-4h10q-5 5 -8 5zM213 281q-25 0 -72 -2.5t-70 -2.5q-9 0 -9 15q0 30 11 50q0 -3 4.5 -14t8.5 -11q15 6 23 11q-20 0 -20 14l15 6h237l51 -10l4 -6h-14q0 -7 2.5 -19t2.5 -19
q0 -11 -3 -14.5t-13 -7.5q-42 10 -158 10zM159 317q0 -1 5 -11q26 0 36 15h-51l-10 -9q4 -1 6 -1q8 0 14 6zM255 321h-8q-43 0 -52 -15h7q54 0 54 12zM319 322q-3 0 -11 0.5t-13 0.5q-36 0 -36 -17h62l16 15q-2 0 -9.5 0.5t-8.5 0.5zM354 317q-10 0 -17 -11h26q0 11 -9 11z
M118 327q-2 -1 -8 -7t-6 -8q1 0 6 -1t6 -1q19 0 23 11q-6 6 -21 6z" />
    <glyph glyph-name="greater" unicode="&#x3e;" horiz-adv-x="427" 
d="M111 417l-6 -6q5 -14 17 -14l1 1q-6 14 -12 19zM123 375v-7q0 -10 17.5 -26.5t31.5 -16.5q-8 17 -21 33.5t-28 16.5zM175 301q-1 0 -3 -1l19 -30h11q0 12 -7.5 21.5t-19.5 9.5zM210 263q-13 -3 -13 -19q0 -4 1.5 -6.5t5 -4t6.5 -2.5t8.5 -1h8.5h8h7q0 12 -9 22.5
t-23 10.5zM197 225q7 -11 13 -14.5t19 -3.5q-12 18 -32 18zM185 201h25q-4 5 -31 19q-7 -8 -7 -23q0 -10 8.5 -16t19.5 -6q0 17 -15 26zM163 183q-3 0 -6.5 -3.5t-3.5 -6.5q0 -10 19 -10l3 1h4q-9 19 -16 19zM172 139l7 7q-4 6 -15 6h-4zM154 115l-12 12q2 -1 10 -1
q13 0 15 7q-12 13 -26 13q-2 0 -15.5 -16.5t-14.5 -20.5q0 -13 6 -19h-19l25 -12q1 0 6.5 7t13 16.5t11.5 13.5zM277 244q2 -6 2 -8q0 -8 -18 -18q-15 -26 -73 -102t-64 -76q-14 0 -41.5 8t-27.5 20q0 14 13 34q51 75 86 123q7 2 7 21q0 13 -7 24q-6 10 -43 64.5t-43 63.5
q-19 13 -19 25q0 25 67 25h13q38 -78 148 -204z" />
    <glyph glyph-name="question" unicode="?" horiz-adv-x="464" 
d="M135 -26v68q0 7 53 7q10 0 16.5 -0.5t11.5 -3t7.5 -4t4.5 -7t2.5 -8t1.5 -12t2 -14.5q0 -5 4 -22t4 -29q-17 0 -52.5 7t-42.5 7zM179 -7v-7h34q0 11 -7.5 21.5t-17.5 10.5q-5 0 -13.5 -4t-14.5 -4v-17h19zM153 159q23 74 26 130q6 3 14.5 18.5t20.5 41.5t20 39
q5 8 23 28.5t25.5 37t7.5 38.5t-13 25l7 7q-2 0 -7.5 5t-5.5 7q-20 27 -60.5 41.5t-63.5 14.5l-68 -44l-6 -12q-4 7 -24 19.5t-20 34.5q0 34 59 54.5t100 20.5q83 0 138.5 -41.5t55.5 -122.5q0 -33 -19.5 -85.5t-36.5 -58.5q-14 -17 -31 -42.5t-37 -57.5t-31 -48q2 -4 2 -11
q0 -11 -8 -14q3 -2 5 -5.5t3.5 -7.5t2.5 -7.5t2 -5.5v-2q0 -16 -39 -16h-5.5h-6h-5t-5 0.5t-4.5 1t-4.5 1.5t-3.5 2.5t-3.5 3.5t-2.5 4.5t-2 5.5zM246 296q-26 -9 -31.5 -16.5t-5.5 -39.5q2 0 19.5 24t17.5 25v7zM265 337q-11 0 -18 -3.5t-10 -7t-7.5 -12t-8.5 -13.5
q1 0 5 -1h5q15 0 30.5 9.5t15.5 25.5q0 23 -29 23q0 -21 17 -21zM271 373q0 -11 14 -17q16 0 41 50q21 39 26 57t5 45q0 17 -3.5 31t-7 20.5t-12.5 21.5t-13 22v7q-12 -2 -24.5 -16t-12.5 -25q0 -12 20 -12q10 0 22 3q-2 -1 -10 -8.5t-9 -9.5v-3q0 -3 5 -9t9 -6q1 0 3 0.5
l2 0.5v-14l13 6q-4 -5 -11.5 -21.5t-13.5 -31t-7 -14.5l7 -7q-9 -10 -20 -27t-17.5 -29.5t-5.5 -13.5zM55 592q0 -12 12 -19l6 5q23 45 114 45q16 0 22 -1q15 7 18 11q-3 0 -21 1t-22 1q-23 0 -43.5 -5.5t-45.5 -16.5t-40 -16v-5zM280 592q-18 0 -18 -15q12 0 22 15h-4z
M264 628q-11 0 -18 -13t-7 -26q25 0 63 21q-12 18 -38 18zM240 628q-19 -6 -19 -21q20 0 20 15z" />
    <glyph glyph-name="at" unicode="@" horiz-adv-x="655" 
d="M49 193q0 54 20 89q7 11 13.5 33.5t12.5 32.5q33 58 105.5 95t141.5 37q65 0 113 -27q7 -3 29 -23t22 -30v-1l-1 -1q27 -51 27 -95q0 -128 -37 -142q10 0 10 -12q0 -34 -41 -65q-2 0 -41 -21.5t-88.5 -43t-75.5 -21.5q-6 0 -8 1l-5 -5l-8 -2q-9 -1 -20 -2t-17 -1
q-9 0 -15 3t-13 8.5t-12 8.5q-4 2 -21.5 10.5t-28 15.5t-16.5 15q-46 60 -46 143zM318 46q-25 0 -68.5 -7t-48.5 -19h21q18 0 57 5.5t39 14.5v6zM100 103q0 -20 20.5 -44.5t40.5 -24.5q3 0 9 9t14 22.5t12 18.5q-4 -4 -28 -15l-8 -4q-2 0 -6 1l-3 1v3q4 0 8.5 1.5t7.5 3.5
l7.5 5t6.5 4q-5 7 -12.5 10.5t-19 6.5t-13.5 4l5 11h-5q-36 0 -36 -13zM256 84h-5l-45 -44q49 32 91 32q6 0 26 -2q-9 14 -67 14zM274 57q-17 0 -17 -13q17 3 17 13zM333 55q2 -6 10 -6t10 6h-20zM222 93q-10 0 -18 -8.5t-8 -19.5q26 16 26 28zM328 84v-1q0 -2 23 -10t27 -8
q12 1 33 12t27 23q-5 -5 -15 -5q-5 0 -18 5t-20 5q-6 0 -26.5 -9.5t-30.5 -11.5zM292 105q-2 0 -7.5 -4t-6.5 -6l-1 -2q1 -2 1 -3l90 15l5 6q-3 10 -15 10q-6 0 -15 -2t-10 -2v8h-35q-5 -7 -20.5 -14.5t-20.5 -15.5q5 0 18.5 5t16.5 5zM125 100l11 -5h-11v5zM80 140
q0 -4 6.5 -14t13.5 -10l30 30q-41 0 -50 -6zM160 152q0 -32 36 -32q4 0 27 4.5t28 5.5q5 3 18.5 10.5t22.5 11.5v10q-10 0 -28.5 -13t-29.5 -13q-19 0 -38.5 12t-19.5 31l1 13q1 13 2.5 27t1.5 18h-10q-1 0 -2 -4.5t-2 -12.5t-2 -17l-2 -18t-1.5 -16.5t-1.5 -12.5v-4z
M373 202q-1 -8 -1 -21q0 -26 10.5 -38.5t38.5 -12.5q24 0 24 10q0 5 -1 6q-57 6 -57 83q0 22 1 33q-55 -52 -55 -81l26 26q13 0 14 -5zM351 152q-9 0 -23 -16q4 -1 5 -1q18 0 18 17zM455 146v-10l4 10h-4zM479 152q-10 0 -10 -12q12 6 15 12h-5zM130 172q-19 0 -45 -16h45
v16zM301 171v-10l27 10h-27zM145 297l-45 -4q-28 -29 -28 -94q0 -6 0.5 -18t0.5 -17q18 0 38 7t20 21h-6q-12 -6 -25 -6q-17 0 -17 11q0 3 2 5q1 -6 14 -6q37 0 37 17q-6 0 -17 -3.5t-16 -3.5q-1 0 -4 0.5t-4 0.5q6 4 19 8t16 6h-5l-6 -1q-6 -1 -13.5 -2t-10.5 -1l-6 4
q6 9 31.5 18.5t26.5 25.5h-39q-4 3 -4 6q0 5 19.5 13.5t21.5 12.5zM206 171q5 -5 17 -5q33 0 97 56.5t64 94.5q0 10 -13 18.5t-23 8.5q-57 0 -100 -44.5t-43 -102.5q0 -2 0.5 -13t0.5 -13zM409 221q4 -50 29 -50q28 0 50 16t22 40q-34 -9 -46 -25h9q0 -1 0.5 -4.5t0.5 -5.5
q0 -6 -5 -6h-40v11q7 2 18.5 10t11.5 10q-10 -2 -19 -2q-17 0 -17 9q0 2 3 4.5t7 5t5 3.5l-24 4q-5 -3 -5 -20zM459 232q3 -5 10 -5q11 0 26.5 5.5t19.5 14.5l-5 6q-4 0 -25 -8t-26 -13zM136 241q-10 0 -15 -9h1h2.5t3 0.5t4 1t5 1.5t4.5 2q0 4 -5 4zM191 267
q-13 -9 -15 -20q15 0 15 20zM414 257q0 -4 5 -4q6 0 10 4q-5 5 -10 5q-1 0 -3 -2t-2 -3zM505 273q-4 -1 -14 -4.5l-20 -7t-12 -4.5l-4 -4q3 0 14.5 1t15 1.5t11.5 3t10.5 5.5t5.5 9t3 14q0 41 -10 41q-8 0 -15.5 -5.5t-10.5 -10.5l-3 -5q0 -1 0.5 -1t0.5 -1h28
q-5 -8 -18.5 -14.5t-17.5 -13.5h36v-4zM165 293q-5 -3 -14.5 -7.5t-17 -8t-8.5 -4.5q1 0 8 -0.5t8 -0.5q24 0 24 21zM234 334v2q-5 0 -43 -59h15l31 56q-2 1 -3 1zM464 293h-41q-5 -16 -5 -17q40 0 46 17zM155 328h-40q-6 0 -6 -12q1 -7 1 -9zM176 317q-15 0 -21 -10
q24 6 26 10h-5zM477 333l-48 -5v-21q5 0 27.5 12t22.5 14h-2zM138 363h-2l-15 -20q9 0 20 3t17.5 6.5t6.5 5.5q-10 5 -27 5zM206 358l-35 -15q4 -2 12 -2t16 6t27.5 20t46.5 27q7 0 26.5 3.5t19.5 8.5q0 1 -37 24q0 -2 -2 -6t-2 -6q-6 3 -11.5 8t-9.5 7.5t-7 2.5
q0 -6 5.5 -18t5.5 -18q-10 0 -25.5 7t-23.5 7q2 -3 8 -8t10.5 -9t4.5 -7q-1 0 -4.5 -0.5t-4.5 -0.5q-18 0 -23.5 12.5t-6.5 12.5q-13 0 -13 -11h13q0 -1 -4 -5t-5 -4q-7 0 -11 4l-21 -20q1 0 8 -0.5t8 -0.5q6 0 16.5 6t13.5 6q10 0 17 -4.5t7 -11.5q-1 0 -9 1t-10 1
q-25 -5 -30 -7q18 0 30 -10zM278 368q-19 -10 -32 -25q64 27 100 27q38 0 57 -27q0 1 0.5 4t0.5 4q0 28 -47 28q-35 0 -79 -11zM459 348v-5l41 5l5 5q0 10 -5 15zM428 358q0 -10 9 -10q6 0 17 7t15 13h-8q-33 0 -33 -10zM419 389q-1 -1 -1 -3t3 -5l5 -5l3 -1l30 16h-30
q7 5 24.5 8.5t25.5 9.5q-2 5 -13.5 19.5t-16.5 15.5l-5 -2q-5 -3 -6 -3q-4 0 -15 11h-55q-6 0 -10.5 -13.5t-4.5 -27.5l10 5q13 0 29.5 -11t26.5 -14zM464 384l26 -6v17q-13 0 -26 -11zM318 450q1 -3 2.5 -17.5t6.5 -22t16 -7.5l5 15l-11 -4q16 16 16 28q0 6 -10 18
q-11 -2 -23 -3.5t-19 -2t-13.5 -1.5t-9 -2t-2.5 -2q2 -4 2 -5l30 -19q2 0 10 25zM216 425l30 -16q0 1 0.5 3l0.5 2q0 3 -3.5 11.5t-6.5 8.5zM451 414h4q-1 -5 -20 -5q5 5 14 5h2z" />
    <glyph glyph-name="A" unicode="A" horiz-adv-x="563" 
d="M7 0q0 16 7 38t18 48.5t12 30.5q11 31 27.5 95.5t28.5 96.5q5 15 23.5 58t26.5 72l5 5q1 3 4 18.5t5.5 25.5t8.5 19t15 9q0 16 18.5 76t28.5 68q70 0 86 -7.5t32 -54.5l3 -6q3 -5 6 -11t3 -7q0 -2 -1 -6v-3q8 0 12.5 -15.5t10 -35.5t15.5 -27q-1 0 -4 -2t-3 -3
q0 -7 6.5 -21t6.5 -22h13q-6 -6 -6 -13q0 -5 12 -21.5t12 -21.5q1 -6 4 -25t6.5 -32.5t8.5 -23.5q6 -12 12.5 -18t9.5 -8.5t7 -16.5t8 -43q4 -30 18 -66.5t33.5 -79.5t27.5 -63q0 -20 -33 -20q-11 0 -27 7t-25 7q-5 0 -14.5 -3t-13.5 -3q-5 0 -10.5 12t-13.5 35.5t-11 32.5
q-1 2 -5 12.5t-6 16t-7 16.5t-9 17.5t-10 15.5t-11 14t-12 8.5t-14 3.5q-13 0 -38.5 -3t-38.5 -3q-20 0 -60 3t-65 3q-17 -62 -44 -123q-3 -7 -5.5 -26.5t-8.5 -31t-19 -11.5q-30 0 -66 13zM44 40q0 -15 9 -15q5 0 8 7.5t3 10.5h-8q28 33 31 43h-5l-4 1q-14 0 -24 -16
t-10 -31zM477 43q4 -12 36 -12q14 0 14 11q0 17 -20 51q-1 -1 -6.5 -4t-9 -6t-8 -6.5t-7 -7.5t-2.5 -8q13 0 27 7zM452 93q0 -5 5 -12t10 -7l2 1l32 29v10q-12 0 -30.5 -6t-18.5 -15zM480 155q-6 0 -35 -44q12 0 28 5.5t16 15.5q0 23 -9 23zM106 155q-7 0 -13.5 -5.5
t-9.5 -11t-3 -6.5v-4q1 -3 1 -4l38 30h-7zM426 143q0 -14 11 -14q10 0 21.5 18t11.5 29q0 29 -9 29q1 0 -6 -5q-30 -19 -34 -27q1 0 3 -3t6 -3q1 1 16.5 3.5t16.5 2.5q-3 -6 -20 -13t-17 -17zM130 192q-14 0 -36 -25q25 0 43 25h-7zM395 198q7 -13 20 -13q17 0 27 14.5
t10 31.5q0 25 -18 84q-27 0 -39 -31h31v-6q-2 -2 -14.5 -16.5t-24 -28t-16.5 -23.5h7l5 -1q12 0 31.5 9.5t30.5 9.5q-11 -14 -50 -30zM122 223q-23 0 -23 -25l1 -6q29 15 37 24q-2 7 -15 7zM155 210q2 -6 9 -6h6q47 0 47 19q0 13 -12 13q-3 0 -22 -9.5t-28 -16.5zM291 228
q-33 -14 -33 -27q4 0 12.5 -0.5t13.5 -0.5q50 0 69 28q-5 13 -32 13q-6 0 -17 -10.5t-13 -14.5v12zM254 230q-10 1 -18 -5.5t-8 -17.5q20 0 39 21q-2 0 -7 1t-6 1zM366 222q-15 -2 -15 -16q13 0 15 16zM150 259l-26 -24h26v24zM162 296q-26 0 -38.5 -7.5t-12.5 -29.5l1 -5
v-7q3 2 14.5 9t17.5 11.5t13.5 12.5t10.5 16h-6zM409 271q-14 0 -14 -12zM198 281q0 -15 37 -15q19 0 59 3.5t60 3.5q0 17 -16.5 55.5t-16.5 47.5l-48 93q-18 -103 -74 -185l-1 -1v-2zM377 319q0 -5 4 -11t6 -6q15 0 25 13t10 28q0 14 -5 30t-15 16q-7 -9 -24 -37
q-8 -8 -8 -9l1 -2q1 -2 3 -4.5t4 -2.5q6 0 19 3t18 3l-37 -19zM199 352h-44q-6 0 -10.5 -5.5t-6.5 -11.5t-4.5 -15t-3.5 -11q18 6 69 43zM192 334q-2 -1 -7 -3t-7.5 -3.5t-6.5 -4t-6 -4.5t-3.5 -6t-1.5 -8q10 0 21.5 8t11.5 17l-1 2v2zM352 378q0 -19 7 -26q37 31 37 62
q0 44 -16 44q-7 0 -21 -14l24 25q0 4 -10.5 30t-13.5 26h-6l-43 -43q-1 -3 -1 -4q0 -5 6.5 -9.5t12.5 -5.5q-7 -1 -7 -16q0 -22 10 -22q3 0 16 8q0 -7 -3.5 -17t-3.5 -16q7 0 21 3.5t22 3.5q-3 -6 -17 -11.5t-14 -17.5zM217 415q-9 -10 -24 -21t-24.5 -18t-9.5 -13
q33 0 45 9.5t19 42.5h-6zM162 395q0 -1 2.5 -3.5t3.5 -2.5q82 48 82 87h-7q-6 0 -32.5 -19t-26.5 -25q8 0 20 3.5t19 3.5q-3 -9 -13.5 -13t-21 -4t-18.5 -6.5t-8 -20.5zM217 487q-26 0 -26 -22l1 -7q25 7 47 25t34 42l74 25q0 18 -10.5 36.5t-19.5 27.5l-9 9q-1 0 -5 -0.5
t-7 -0.5q-2 0 -16 6.5t-20 6.5q-14 0 -19.5 -34t-11.5 -39h25q-4 -8 -27 -21t-23 -41q0 -13 13 -13zM286 519q0 -5 6.5 -15.5t10.5 -10.5t12 7.5t19.5 19t18.5 17.5q-45 0 -67 -18z" />
    <glyph glyph-name="B" unicode="B" horiz-adv-x="587" 
d="M68 -2v382q-7 7 -7 13q5 35 8 84t6 82t11 49q13 -8 13 -35q0 -9 -3 -27.5t-3 -29.5q0 -12 6 -21q0 -2 -1.5 -11.5t-3 -28.5t-1.5 -44q0 -4 2 -11t3 -7h31l7 13q-14 109 -14 128q0 16 3.5 30t3.5 20q0 8 -7 13q5 2 14 7t15.5 9t7.5 4q0 -11 7 -14q23 0 68 5q2 1 7 4l5 3
q-1 -1 -1 -3q0 -16 61 -16q5 0 25.5 7.5t20.5 11.5v6l-24 2h-156v2q-8 0 -24 -2t-26 -2q-1 0 -19.5 2.5t-22.5 3.5q0 8 5 16t8 8q1 0 12 -2.5t13 -2.5q11 0 40 6t42 6l4 -2q4 -2 9.5 -3.5t8.5 -1.5l12 7q2 0 13 -3.5t12 -3.5q2 0 15.5 3.5t14.5 3.5q24 0 62 -7t56 -18
q30 -18 52 -79.5t22 -104.5q0 -35 -44 -105q8 -9 24.5 -23.5t25.5 -24t16.5 -30.5t7.5 -49q0 -5 4 -15t4 -22q0 -29 -9 -54.5t-25.5 -45.5t-30 -32.5t-32 -26.5t-21.5 -17q-8 -9 -45 -9h-21q-2 0 -9 -2.5t-24.5 -4.5t-42.5 -2q-1 0 -13 6q-24 0 -70 -3.5t-69 -3.5l-27 1z
M97 52q0 -28 7 -35l38 5v7h-18q0 6 6 14.5t6 12.5q0 19 -25 28q3 1 6 4.5t5 7.5l1 3q0 3 -4.5 9t-7.5 7h13q0 7 -3 21.5t-3 21.5q0 1 2.5 6t2.5 16q0 8 -2 16t-2 15l3 -3q7 5 7 12v81q43 24 68 55l-12 12q-10 5 -42.5 9.5t-51.5 4.5q-1 -1 -1 -2q0 -2 4 -8.5t4 -9.5
q0 -10 -3 -29t-3 -43q0 -16 3.5 -49t3.5 -50q0 -14 -1 -21l6 -5q-7 -2 -7 -18q0 -11 3.5 -24t3.5 -21q0 -6 -3.5 -19.5t-3.5 -30.5zM216 41q-5 0 -30 -6.5t-25 -12.5v-8q11 0 28.5 7.5t20.5 7.5q1 0 12 -3.5t12 -3.5h4q2 0 8 7t7 12q8 -24 12 -24h49l6 -7l8 12q6 -1 16 -1
q8 0 20 7l12 6q64 19 91 46t27 90q0 15 -13.5 70.5t-23.5 60.5q-1 0 -7 1.5t-12 2.5l-5 1q-6 2 -12 6t-13.5 5.5t-24.5 1.5q-13 0 -13 -7q12 -8 43 -11q-1 -1 -1 -3q0 -7 15.5 -19.5t16.5 -15.5q1 -1 9 -20t10 -23q-14 -9 -14 -17q14 0 14 -7q0 -5 -4.5 -17.5t-7.5 -13.5
l6 -7l24 12q0 -7 -12.5 -15t-12.5 -28q0 -2 0.5 -9.5t0.5 -8.5q0 1 4.5 3.5t6.5 2.5t5 -2t3 -4q-10 -8 -37 -8q0 -10 -6 -24q-56 -25 -103 -25q-14 0 -18 4l-3 4q-2 0 -13 -4l-11 -3q-24 -2 -69 -2v-10zM154 47v-6q7 0 25 6h-25zM161 84q4 0 12 0.5t12 0.5q22 0 66 -4t66 -4
q91 0 103 44q6 32 6 77q0 31 -9.5 50.5t-29.5 27.5t-36 10t-44 2q-94 0 -146 -19q-14 -3 -14 -128q0 -35 14 -57zM296 362q-10 0 -23 -1t-40 -5.5t-44 -17.5t-17 -32q66 28 87 43l-31 -31v-7q12 0 19 3.5t9.5 8t7.5 11t13 10.5q4 2 25.5 6t30.5 18q0 1 -2 3.5t-3 2.5
q-5 0 -18 -4.5t-14 -7.5zM363 374q-6 0 -34 -18t-52 -38q2 0 8.5 -0.5t7.5 -0.5q32 0 46 32q0 -7 -4 -15.5t-4 -11.5q16 0 40 13t24 24q0 2 -14 8.5t-18 6.5zM389 380v-7q15 0 32 7.5t17 21.5v2l-1 2zM161 406q14 -15 47 -15h10h17t21.5 0.5t24.5 1.5t25 3t25 5t22.5 8
t19 11t12 15t4.5 19l-3 6q-4 6 -4 7t3.5 6t3.5 6q0 23 -26 62q-16 23 -103.5 27t-93.5 16q-13 -13 -13 -39q0 -24 4 -70.5t4 -68.5zM401 411v-12q14 7 19 12h-19zM413 430q1 -7 11 -7q7 0 12.5 0.5t9 1t6 3l3.5 3.5t1.5 5t0.5 6.5v8v9.5q0 27 -9 63t-28 36
q-10 0 -19.5 -10.5t-9.5 -20.5q11 0 29 -5l-7 -7h3q3 -1 4 -1q9 0 13 8q0 -9 -10 -21.5t-10 -22.5q0 -2 5 -5t10 -5l5 -2q-13 -5 -20 -13q8 0 16.5 3t14.5 3zM376 559q9 -6 14 -6q6 0 23 12q-1 0 -5.5 0.5t-6.5 0.5q-18 0 -25 -7zM382 604q-10 0 -17.5 -11t-7.5 -22
q50 0 50 9t-9 16.5t-16 7.5zM355 604q-29 0 -29 -25q28 0 37 24l-3 1h-5z" />
    <glyph glyph-name="C" unicode="C" horiz-adv-x="567" 
d="M23 275q0 157 98 270.5t251 113.5q26 0 36 -0.5t37 -2.5t40 -7.5t30.5 -15.5t25 -27t7.5 -40q0 -7 -4 -16t-11 -9q-17 0 -61 15.5t-69 15.5q-57 0 -139 -31q-130 -48 -130 -272q0 -2 0.5 -12.5t0.5 -12.5q6 -2 9.5 -16t5 -30.5t3.5 -20.5q48 -111 257 -111
q27 0 69.5 18.5t50.5 18.5q18 0 18 -24q0 -29 -5.5 -52.5t-13.5 -23.5q-4 0 -11 1h-7q-106 -19 -167 -19q-4 0 -12 0.5t-12 0.5q-3 -5 -15.5 -9t-21.5 -4q-106 8 -183 101t-77 201zM258 41q-1 -12 39.5 -18t65.5 -6q40 0 85.5 6.5t62.5 17.5v19q-83 -26 -123 -26
q-12 0 -57 7q-14 3 -93.5 26.5t-84.5 23.5l12 11q-3 7 -7 7q-2 0 -6 -1t-6 -1q0 12 -0.5 16.5t-6 10.5t-17.5 6q9 5 13 18q-17 0 -17 22h-20q4 3 10.5 5.5t10 5t3.5 5.5q0 12 -6 24q-10 -2 -23.5 -13.5t-13.5 -20.5q0 -3 6.5 -22t7.5 -19q7 0 18 8q-7 -5 -7 -13
q0 -15 4.5 -27.5t14 -22.5t18 -16.5t24.5 -13.5t24.5 -10t26.5 -8.5t23 -7.5h1q2 0 18 7zM61 226q0 -6 2.5 -15.5t3.5 -9.5h12l32 31v7q-50 0 -50 -13zM101 276q-9 0 -21 -10.5t-13 -21.5q15 0 22 1t14.5 6.5t7.5 17.5q0 2 -4.5 4.5t-5.5 2.5zM52 293v-6q0 -25 13 -25
q12 0 39 31h-52zM113 358q-28 0 -40.5 -7.5t-12.5 -32.5v-5q1 -5 1 -6q52 32 52 51zM111 332q-27 -11 -39 -25q2 0 8 -0.5t9 -0.5q23 0 23 16q0 8 -1 10zM111 399q-14 0 -39 -31h4q13 0 20 1t13.5 6.5t6.5 17.5q0 1 -2 3.5t-3 2.5zM111 417h-32q-7 0 -7 -22v-8l39 24v6z
M135 460q-12 -3 -31 -24q2 -2 9 -2q10 0 16.5 6.5t6.5 16.5v1zM132 481q-11 0 -23 -7.5t-12 -16.5q0 -1 1 -3q1 1 7 3.5t9.5 4.5t8 5t7 6.5t2.5 7.5zM116 498v-14q13 9 28.5 14.5t20.5 8.5t9 15t4 37zM223 586q-12 0 -20 -8t-8 -21q10 0 19 9.5t9 19.5zM239 584l-17 -25
q18 18 18 22v1zM317 603q-14 0 -40 -31q22 1 43 31h-3zM505 581q0 -10 13 -10v32q-13 -8 -13 -22zM258 597l6 -13q49 35 49 37h-11q-8 0 -26 -10.5t-18 -13.5zM479 608q-6 -10 -6 -21q9 0 17.5 6t8.5 15t-6.5 14.5t-15.5 5.5q-3 0 -6.5 -7.5t-3.5 -12.5h12zM363 616
q-9 0 -19 -19l3 -1h4q11 0 19 19l-3 1h-4zM459 622q-9 0 -16.5 -11.5t-7.5 -19.5q11 0 18 9t9 21zM412 627l-24 -24q5 -1 6 -1q8 0 13 8t5 17zM325 627q0 -8 14 -19l18 19h-32zM447 629q-6 0 -11.5 -4.5t-8.5 -8t-3 -2.5q23 0 23 15zM382 627v-7q8 0 12 7h-12z" />
    <glyph glyph-name="D" unicode="D" horiz-adv-x="665" 
d="M64 3q0 8 -0.5 52t-0.5 51q0 41 4 125t4 127q0 12 -4 36t-4 37q0 25 7 72.5t7 70.5q0 9 -3 26.5t-3 26.5q0 27 247 27h55q51 -6 119 -44t84 -69q28 -19 52 -88t24 -113q0 -106 -57 -201q-2 -2 -5 -11t-7.5 -14.5t-11.5 -5.5l5 -6l-12 -7l7 -4q-16 -23 -58 -39.5
t-77 -23.5q-40 -4 -315 -25q-11 -1 -22.5 -7t-19.5 -6q-15 0 -15 13zM89 102q0 -4 7 -18q0 -13 5 -43q98 0 112 -7q0 7 6 13q4 0 12 -3t13 -3q26 0 77.5 9t77.5 9h37q15 15 50 15q0 6 -15 10q45 0 69 18q-1 1 -6.5 4.5t-15 7t-18.5 3.5q-5 0 -24.5 -16t-21.5 -17
q-15 -6 -39 -10t-37.5 -5t-47.5 -2t-38 -1q-56 -7 -92 -7q-75 0 -79 18q0 1 -0.5 10.5t-0.5 11.5q0 14 2.5 25t2.5 15q0 19 -11 25q5 2 8 19t3 24q0 11 -2.5 29.5t-2.5 27.5q0 10 3 17t3 12q0 24 -29 24q0 -82 -8 -110l7 -6v-43q-2 0 -4.5 -2.5t-2.5 -3.5q0 -2 3.5 -13
t3.5 -12t-3.5 -12t-3.5 -13zM150 221q0 -123 7 -126l12 -4q18 -3 59 -3q62 0 102.5 3.5t91.5 23t81 55.5l2 -1q15 0 31 67t16 98q0 26 -19.5 85.5t-35.5 64.5q-1 0 -11 1.5t-13.5 4.5t-3.5 10q0 6 2 10q-10 5 -26 15t-28 18.5t-13 9.5q-91 31 -136 31q-23 0 -62 -6t-42 -13
l-7 -12q0 -55 -3.5 -165.5t-3.5 -166.5zM503 127q6 -7 21 -7q22 0 40.5 14t18.5 36q0 13 -12 13q16 0 26 10t10 26q0 2 -1.5 4t-4.5 3.5t-5.5 2t-6.5 1.5t-6 2q3 1 11 6.5t14 5.5q4 0 6 -1q6 28 6 40q-44 0 -44 -14l7 -11q-1 -3 -5.5 -8.5t-6.5 -6.5l5 -5q-9 0 -12.5 -9.5
t-4 -23t-1.5 -16.5q0 -2 -6.5 -8.5t-6.5 -7.5q0 -3 1 -3zM558 152q-3 -3 -12 -3q-13 0 -13 3q0 2 12 2q13 0 13 -2zM629 350q-21 0 -38.5 -21.5t-17.5 -42.5q56 0 56 64zM93 454q0 -23 4.5 -65.5t4.5 -63.5h23v73q0 8 -8 14t-16 8h33q0 3 -3 18.5t-6 15.5h-32zM576 365
q0 -17 15 -17q24 0 24 11q0 2 -20 12h32v9l-25 13q6 0 6 9q0 4 -13 8q13 8 13 20t-13 12q-11 0 -19 -7q6 4 13 19q0 13 -5 26.5t-16.5 28t-18 22t-23 23.5t-18.5 18h-5q-2 1 -12 3.5t-19 5t-12 3.5q0 9 -20 13.5t-30 4.5q-20 -7 -25 -13q18 -11 45 -11q0 -20 27 -20
q13 0 14 7v-19h32l-13 -12q5 1 27 -20t22 -26h13q-1 -3 -3 -5.5t-5 -5t-4 -4.5q6 -7 15 -27.5t21 -28.5q-13 0 -13 -11q0 -9 4 -13t9 -3.5t9 -2.5t4 -12q0 -1 -7 -4.5t-7 -4.5t1 -1zM96 522q0 -4 3 -12t2 -18t-9 -25h41q0 8 -6.5 22.5t-6.5 23.5q0 6 3 16t3 17q0 19 -5 26
q-25 -10 -25 -50zM172 615h-11.5h-12t-10.5 -0.5t-10.5 -1.5t-9 -3t-8 -5t-5.5 -7t-4 -10t-1 -13q16 0 56 15.5t51 24.5h-35zM336 608q9 -11 35 -11q3 0 10.5 3.5t10.5 7.5q-3 7 -13 7q-11 0 -18 -7v14q-3 0 -12.5 -4.5t-12.5 -9.5zM262 621q3 -6 17 -9.5t20 -3.5q7 0 43 18
h-6q-6 0 -37 -2t-37 -3z" />
    <glyph glyph-name="E" unicode="E" horiz-adv-x="518" 
d="M378 -9h-258q-43 0 -50 21q0 30 3 91t3 91q0 140 -13 195v265h124q19 -7 56 -7q12 0 18 7q30 0 78 3t52 3q13 0 79 -6q4 -2 8 -13q0 -14 -4.5 -29t-4.5 -27q0 -1 0.5 -5t0.5 -6l-24 -6q-42 3 -85 3q-111 0 -198 -22q-8 -17 -8 -39q0 -10 4 -31t4 -32q-5 -41 -7 -58
l12 -12l14 -1q14 -1 18 -1q25 0 46.5 4t26.5 4q7 -7 9 -7h-1q1 -1 2 -1q8 0 8 10h112q8 -11 12 -21l12 6q-6 -6 -6 -26q0 -37 1 -42l-13 -11q-69 0 -235 -8q-1 0 -4.5 0.5t-5.5 0.5q-8 0 -8 -6v-186l7 -11q1 -2 37.5 -4.5t63.5 -2.5q12 0 48.5 9t52.5 9q44 0 50 -6l7 -5
q1 6 11 6q1 0 5 -0.5t8 -0.5l-11 -5l3 1h5h6q17 0 20 -6q0 -1 1 -2q1 0 6.5 3.5t6.5 3.5q14 -9 14 -32q0 -58 -14 -73q-2 0 -14 -0.5t-13 -0.5q-45 0 -78 16zM439 50v-44q27 0 27 44h-27zM427 37q-5 0 -17.5 -5t-12.5 -8v-10q25 0 38 23h-8zM106 35q0 -4 7 -11q27 27 27 32
h-16v11q-4 -2 -18 -30v-2zM163 43q-17 -7 -32 -19q12 0 17.5 3.5t14.5 15.5zM190 31q-9 0 -16 -7q1 0 3.5 -0.5t3.5 -0.5q9 0 12 8h-3zM261 44q-30 0 -43 -20q1 0 8.5 -0.5t9.5 -0.5q31 0 37 20l-5 1h-7zM319 44q-6 0 -21 -20q11 0 24 19q-2 1 -3 1zM365 50l-24 -19
q25 0 37 12v-12l49 19h-62zM354 56q-10 0 -13 -6q16 0 19 6h-6zM106 92v-19q15 0 15 19h-15zM117 173q-14 0 -14 -31l1 -12h9q2 0 6.5 10.5t4.5 15.5q0 18 -6 18zM125 211q-15 0 -15 -29q15 0 15 29zM106 234q0 -5 7 -12q8 3 8 20q-15 0 -15 -8zM124 283q-19 -16 -19 -25
q12 0 16 3.5t4 14.5zM127 310q-21 0 -21 -15q21 0 21 15zM174 326v-11q12 0 26 6.5t14 17.5h-70q-7 0 -7 -13h37zM265 347q-18 1 -33.5 -10.5t-15.5 -27.5q16 0 35.5 11.5t27.5 25.5q-1 0 -7 0.5t-7 0.5zM298 346l-31 -31h31q7 0 7 31h-7zM372 352q-22 -7 -31 -30h50
q-11 13 -19 30zM99 353q0 -8 7 -27l32 32v8q-39 0 -39 -13zM138 402q-12 0 -22.5 -7.5t-10.5 -18.5q33 0 33 26zM113 444q-18 0 -18 -5v-40q10 0 24 13t14 25q0 2 -7.5 4.5t-12.5 2.5zM134 489q-17 0 -34 -32q25 0 29.5 4.5t4.5 27.5zM120 518q-4 -5 -15 -10.5t-11 -16.5v-5
l1 -4q17 14 23.5 24t6.5 28q0 1 -0.5 7.5t-0.5 7.5q-3 -3 -10.5 -8.5t-13 -9.5t-5.5 -6q0 -8 16 -8q2 0 5 0.5t4 0.5zM120 568q-27 0 -27 -20q19 0 31 20h-4zM120 605l-14 -25h7q8 0 43.5 16t36.5 21q-16 7 -50 7q-48 0 -48 -1l-7 -30q10 0 32 12zM218 605q-4 -1 -7.5 -5
t-4.5 -8l-1 -3q0 -2 3 -2q11 0 11 11zM365 630q-1 -3 -1 -7q0 -13 16 -13q30 0 30 20h-45zM255 623l-7 -6h7v6z" />
    <glyph glyph-name="F" unicode="F" horiz-adv-x="495" 
d="M67 -7q0 27 6.5 85t6.5 86v52l-6 6v394q-8 2 -8 14q0 21 14 24q1 0 15 -3t15 -3q8 0 14 6v-5q48 0 145.5 5.5t146.5 5.5q71 0 71 -30v-63q0 -5 -11 -5q-26 0 -77.5 2.5t-77.5 2.5q-7 0 -20 -2.5t-21 -2.5q-2 0 -16 1.5t-28 2.5t-29.5 1t-25 -4.5t-9.5 -13.5v-81
q-1 0 -3 -4.5t-2 -6.5q0 -76 11 -87q42 -7 120 -7q12 0 34 0.5t32 0.5q1 0 20.5 -10t23.5 -10q1 0 7 4t11 4t5 -7q-7 -9 -10 -15.5t-3.5 -10t-1.5 -12.5t-3 -17q-3 -14 -71 -14q-26 0 -69.5 10t-69.5 10q-8 0 -12.5 3t-5.5 3q-16 0 -20.5 -5t-4.5 -22q0 -26 3 -70t9 -45
v-172q0 -13 -18 -13q-8 0 -12 6q-1 0 -10 -3t-21.5 -6t-22.5 -3q-5 0 -13 9.5t-8 14.5zM117 31q-8 -4 -8 -28q26 0 34 15.5t8 43.5v3v25q0 29 -3 34l-20 8h22q0 1 0.5 3t0.5 3q0 7 -4.5 32.5t-4.5 38.5q-22 15 -39 15q0 -6 -0.5 -22t-0.5 -25q0 -70 33 -81h-25v-59zM103 277
q0 -20 1.5 -28t9 -14.5t24.5 -6.5q0 16 -5.5 27.5t-5.5 21.5h-24zM99 302q2 -16 32 -16q0 9 -4 17t-4 16q0 7 6.5 10t6.5 8q-1 1 -1 2q-1 0 -7.5 -3t-10 -5.5t-9 -6t-8 -8.5t-2.5 -10v-2zM277 315q6 -7 20 -7q15 0 19.5 5.5t4.5 20.5q-33 0 -44 -19zM339 326v-19q38 0 38 19
h-38zM144 341q0 -9 3.5 -12.5t9.5 -6.5t10 -7q56 0 67 18q-6 -1 -16 -1q-15 0 -37.5 4.5t-36.5 4.5zM259 334q-10 0 -19 -13h31q0 13 -12 13zM97 359q0 -21 13 -21q14 0 25 14q-14 7 -38 7zM104 370q12 -6 29 -6q4 0 9.5 5.5t5.5 7.5q0 6 -10 17.5t-14 12.5q6 -2 8 -2
q10 0 10 15q0 8 -3.5 15t-3.5 9q0 14 10 45t10 47q-19 0 -38 7q0 8 31 8v28q-17 0 -20 8q9 0 11.5 2t2.5 8q0 12 -7 14l7 5h-51q0 -8 8.5 -14.5t17.5 -9.5q-12 0 -15.5 -2t-3.5 -10q0 -5 3.5 -17t3.5 -19v-11v-10.5t1 -9t3 -9.5t5.5 -7.5t9.5 -8.5h-20q10 -20 9.5 -25.5
t-5.5 -13.5t-5 -16q0 -20 10 -20q2 0 4 1q-3 1 -7 1q-13 0 -13 -17q0 -16 10 -16h1l2 1q0 -2 -4 -5t-4 -4zM197 611q-8 -4 -12 -24q3 -1 8 -1q10 0 10 11q0 12 -6 14zM431 605q0 -10 33 -10q0 22 -14 22q-12 0 -19 -12zM283 611q0 -7 12 -7q11 0 39 19h-43q-2 0 -5 -5t-3 -7
zM376 611q0 -1 2.5 -3.5t3.5 -2.5l10 4q11 4 16.5 9t5.5 12h-32l-2 -4q-1 -3 -2.5 -8t-1.5 -7z" />
    <glyph glyph-name="G" unicode="G" horiz-adv-x="627" 
d="M207 -6q1 1 -6 7.5t-18 15.5l-22 18t-20 15t-11 6q-9 0 -15 -6q0 7 -39.5 67.5t-41.5 80.5q-1 5 -1 14q0 6 0.5 15.5t0.5 13.5q0 17 -6 31v135q9 10 16 52t15 54q102 155 329 155q75 0 75 -20h35q1 -7 21 -7l7 -3q8 -2 17.5 -6.5t14.5 -8.5v-1l-1 -2q0 -4 4.5 -6.5
t4.5 -25.5q0 -45 -19 -45q-30 0 -87.5 12.5t-86.5 12.5q-32 0 -92 -25q-149 -60 -149 -260q0 -49 11.5 -93t41 -80t72.5 -43q111 -12 153 -12q5 0 28.5 0.5t27.5 0.5q17 11 17 55q0 21 -11 80q-5 22 -29 22q-2 0 -6.5 -0.5t-7.5 -0.5q-18 0 -28 11.5t-10 47.5q0 38 18 38
q4 0 7 -1h112q49 0 49 -12v-246q0 -37 -31 -53t-71 -16q-5 0 -12 3.5t-10 3.5q-21 -17 -98 -17h-19.5h-21.5t-19.5 0.5t-21 1.5t-18.5 2.5t-18.5 4t-15 6t-14.5 8.5zM306 12l-1 -1q0 -7 38 -7q0 28 -30 28q-2 0 -4.5 -7.5t-2.5 -12.5zM347 25q0 -19 18 -19q19 0 27 6h67l7 7
q-75 5 -105 5q-1 0 -7 0.5t-7 0.5zM213 24q8 -12 29 -12q9 0 13 8t7 11q-2 6 -15 6q-29 0 -34 -13zM301 36q-19 0 -26.5 -6t-7.5 -22q19 0 26.5 5.5t7.5 22.5zM478 24q7 -6 21 -6q35 0 41 13q-13 6 -32 6q-20 0 -30 -13zM95 124q9 -8 30 -33t40 -40t40 -15q2 0 14 7
q-1 1 -3 4l-3 3q-14 7 -14.5 14t-3.5 10q-11 11 -21 12t-17 13q-8 13 -31.5 65.5t-23.5 63.5q0 1 3 3.5t3 5.5q0 10 -13 28l13 7v43q0 7 -32 7l7 4l-7 8h32v14l-6 16q-14 9 -14 21q-42 0 -42 -8v-51q9 -1 9 -11q0 -3 -1 -10t-1 -10q0 -13 17 -13q8 0 13 1q-3 -5 -17.5 -9.5
t-14.5 -14.5q0 -5 4.5 -15t4.5 -20q0 -8 -0.5 -22.5t-0.5 -15.5q4 -2 6.5 -9t3.5 -14t2 -8q2 -4 13.5 -15.5t11.5 -12.5zM508 59q0 -2 14 -9t18 -7q9 0 9 26q-41 0 -41 -10zM515 99v-13h31v25zM509 121v-11q32 0 37 33q-21 0 -31 -13l13 1l-6 -8zM527 167q-2 -4 -11.5 -9
t-9.5 -14q47 0 46 118v10l-6 6h-48l-26 -30h3l3 -1q8 0 21 5.5t21 5.5q0 -7 -9.5 -20t-9.5 -22h37q0 -11 -15.5 -25.5t-15.5 -23.5h20zM525 210q-27 0 -27 -24h11l18 24h-2zM469 259q-13 0 -28 -18l3 -1q3 0 28 19h-3zM416 253q0 -5 10 -5q6 0 28.5 12.5t28.5 17.5h-54z
M51 414q0 -18 14 -18h44q0 16 -19 30h3l5 -2q4 -1 9 -2.5t8 -1.5q-5 9 -5 13t8.5 6t8.5 7q0 6 -4 13.5t-4 12.5l1 4v6l19 -19q4 2 18 30q-14 7 -18 13q7 1 7 14q0 3 -0.5 6t-0.5 5t-1 4v2q13 -19 25 -19q5 0 8.5 3t6.5 9t4.5 11t3.5 12t3 9q4 -15 12 -19q6 3 6 12
q0 17 -14 28q0 1 0.5 2t0.5 2l19 -13l7 6l-7 31q-10 -4 -16 -11t-8.5 -13t-6.5 -19q-3 12 -12 19q-34 -25 -34 -31q0 -1 11 -4t11 -4l-2 -2q-1 -2 -1 -3h-35q-3 0 -17 -14.5t-19 -22.5q-4 -4 -14 -27t-18 -44t-7 -21zM237 600q0 -33 9 -33q13 0 22 13q-16 20 -31 20z
M293 630q-12 -38 -12 -51q9 0 17 6.5t8 15.5q0 30 -10 30zM498 587q6 -8 39 -8q0 7 -8.5 17.5t-10.5 10.5q0 1 -4.5 -3t-9.5 -9t-6 -8zM243 617q3 -3 8 -7t10 -7.5t7 -4.5q13 22 13 38q-30 -8 -38 -19zM435 617q-8 -3 -8 -19h15q0 12 -7 19zM361 630q-7 -10 -7 -25h20
q-7 21 -13 25zM310 636q0 -7 7.5 -16.5t10.5 -9.5q9 0 9 26h-27zM392 630l6 -13q7 2 7 13h-13z" />
    <glyph glyph-name="H" unicode="H" horiz-adv-x="709" 
d="M73 12q-6 134 -6 506q-8 27 -8 76q0 5 0.5 27.5t0.5 26.5l7 5h74l14 -12q0 -1 -4 -5t-4 -7q0 -15 6.5 -48t6.5 -44q0 -3 0.5 -26t0.5 -39v-20.5t-0.5 -19t-0.5 -15v-10.5v-4q0 -9 7 -9q1 0 4 0.5t5 0.5q12 0 39 -3.5t55 -3.5q16 0 40.5 3.5t27.5 3.5q16 0 45.5 -3.5
t44.5 -3.5q52 0 114 20q0 4 0.5 31t0.5 33q0 24 -4 72t-4 73q0 12 0.5 17.5t4.5 9.5t7 5t15.5 4.5t22.5 6.5q9 0 19.5 -10t18.5 -10q0 -7 -8 -11v-30q0 -22 9.5 -64t9.5 -60q0 -1 -3 -10l-3 -9q0 -15 3.5 -39t3.5 -35q0 -6 -0.5 -14.5t-0.5 -9.5q6 -1 10 -53t4 -78
q0 -23 -7 -24v-203q0 -7 -14 -7t-50 9t-41 10q-10 1 -10 60q0 13 0.5 45.5t0.5 49.5v12q0 30 -0.5 43t-4 30t-9.5 22t-20 11.5t-32.5 8t-48.5 1.5q-4 9 -10 9q-2 0 -5 -4.5t-3 -7.5h-81l-153 11l-13 -8q-1 -31 -1 -42q0 -44 7 -133t7 -134q0 -11 -19 -11q-37 0 -68 37z
M92 55v-35q38 0 38 80l-8 -4q-8 -5 -17 -11t-9 -10q0 -1 1 -1l6 -12zM554 66q0 -30 16 -30q10 0 23.5 13.5t16.5 24.5q-9 0 -27 -4t-29 -4zM611 51q-11 0 -13 -15q13 0 13 15zM610 118q-41 -35 -43 -39h12q31 0 31 7v32zM124 139q-25 0 -30 -6t-5 -31v-10q35 0 35 47z
M554 121q0 -10 6 -28q12 0 26.5 14t23.5 29h-7q-49 0 -49 -15zM615 185q-23 -9 -55 -43q56 0 56 30v7zM92 203v-43q0 -6 11.5 -9.5t17.5 -3.5v25l-11 -5q12 18 15.5 27.5t3.5 30.5t-9 35q0 9 15 24q-35 -5 -50 -24q12 -32 12 -46q0 -2 -2.5 -6t-2.5 -5zM612 204
q-62 0 -62 -46q15 0 38.5 15.5t23.5 30.5zM615 271q0 -2 -24 -31l-24 -30v-8q19 0 37.5 13.5t18.5 30.5q0 16 -8 25zM542 246q0 -4 3.5 -14t3.5 -13q18 0 42 52q-1 0 -6 0.5t-6 0.5q-12 0 -24.5 -7t-12.5 -19zM96 292l7 -8q23 0 39.5 26.5t35.5 27.5v-13q30 0 55 13v-6
q23 0 37 14q-7 -14 -7 -21q8 0 25 13q0 -11 7 -11q3 0 10 2.5t8 2.5v-14q67 0 111 52q-7 7 -18 7q-41 -6 -44 -39h-5v26q-10 -14 -25 -18l12 24q0 2 -6.5 7t-10.5 5q-1 -4 -3.5 -8t-6.5 -7.5t-7.5 -6t-8.5 -5.5t-6 -4q-5 13 -31 13v7q-5 0 -12.5 -3.5t-11.5 -3.5
q-6 0 -8.5 3t-4.5 3q-30 0 -71 -25t-59 -50q-1 -2 -1 -3zM572 290q3 -7 15 -7q36 0 36 29q0 2 -2.5 5t-5.5 3q-13 0 -43 -30zM128 352q-17 -1 -27 -10.5t-10 -17.5q0 -2 0.5 -8t0.5 -7l36 37v6zM436 358q-28 -11 -48 -38q37 0 44 9q5 6 5 17l-1 6v6zM517 370
q-3 -6 -20.5 -23.5t-17.5 -26.5h31q2 0 8.5 16t6.5 23q0 8 -8 11zM467 377q-12 -23 -12 -41q1 -8 1 -9q51 24 51 51q-6 0 -14 -4.5t-13 -4.5q-9 0 -13 8zM576 382q-40 0 -40 -48q7 5 15 13t13.5 15.5t9.5 13.5l5 6h-3zM610 377q-38 -26 -38 -45q39 0 39 28q0 2 -0.5 9
t-0.5 8zM92 364q0 -1 5 -6q1 0 5.5 0.5t8 1t8 1.5t7 3.5t2.5 5.5q0 22 -7 38q-23 -20 -29 -44zM85 426q0 -20 7 -31q3 2 10.5 7.5t9.5 7.5l6.5 6.5t6.5 9.5t3 12q-1 0 -7 0.5t-7 0.5q-29 0 -29 -13zM579 413q1 -6 12 -6q10 0 15 5.5t5.5 11t0.5 16.5q-11 0 -33 -27zM567 444
q0 -1 2 -3.5t3 -2.5q4 0 9.5 3.5t10.5 9t6 5.5h-5l-5 1q-16 0 -21 -13zM128 486q-18 -26 -25 -30h25l7 30h-7zM85 481q0 -12 10 -12q3 0 9 5.5t10.5 12t9.5 12.5l4 6q0 7 -7 7q-14 0 -25 -8.5t-11 -22.5zM598 525q-28 -23 -28 -53h16t9.5 2t7 6.5t1.5 12.5q0 16 -6 32z
M121 561q-18 -33 -18 -39h5h5.5h4.5t4 0.5t3.5 1t3.5 1.5l2.5 2.5t2 3.5t1 4.5t0.5 5.5q0 15 -14 20zM567 537l-1 -2q0 -7 6 -10q26 2 26 64v7q0 25 -5 30t-33 5v-51q3 -1 8.5 -14.5t10.5 -13.5q3 0 6 3q-3 -1 -10 -8t-8 -10zM110 574q-25 -9 -25 -37q25 22 25 37zM97 592
q3 -7 13 -7q18 0 18 15q0 18 -7 23q-2 -5 -8 -12.5t-11 -12.5zM79 623q0 -5 4 -13.5t9 -10.5l18 24q0 7 -15 7q-16 0 -16 -7z" />
    <glyph glyph-name="I" unicode="I" horiz-adv-x="278" 
d="M137 -8l-6 -6h-50l-6 6v74q0 2 -3 13t-3 12q0 3 3 36.5t3 37.5q0 36 -3 159t-3 130q0 3 0.5 10t0.5 12l-6 68q-7 67 -7 102q0 12 74 12q37 0 37 -18q0 -6 -13 -19q0 -33 9 -102t9 -102q0 -6 -2.5 -14.5t-2.5 -15.5q5 -50 5 -69v-332q0 -8 -5 -13q-18 0 -31 19zM94 41
q4 -12 9.5 -15.5t18.5 -3.5h22q6 19 6 39q0 6 -3 13t-3 10q0 2 3 10.5t3 21.5q0 25 -10 25q-1 0 -10 -5.5t-11 -8.5q2 3 9 11t13 17t8 15h-48q0 -15 -4 -44t-4 -45q0 -3 0.5 -20t0.5 -20zM131 103q1 0 3 -0.5t3 -0.5q-4 0 -13.5 -3t-11.5 -3q9 7 19 7zM140 221
q-10 0 -20 -15t-10 -25q23 0 31 5.5t8 27.5l-3 4q-3 3 -6 3zM144 245q-24 0 -32 -7.5t-8 -29.5h8l32 31v6zM105 258l7 -7l32 7v35q-25 -10 -39 -35zM100 297q0 -16 9 -16q10 0 21 13t11 24h-36q-5 -5 -5 -21zM105 336q0 -7 41 -7q0 39 -9 39zM131 412q-9 0 -19.5 -3.5
t-11.5 -9.5l-6 -50q17 5 33.5 22.5t16.5 34.5q0 6 -13 6zM137 460q-29 -25 -32 -36h14q26 0 26 17q0 18 -8 19zM94 485v-6q0 -8 3 -19.5t6 -11.5q13 0 23.5 17.5t10.5 32.5q0 6 -15 6q-20 0 -24 -4t-4 -15zM131 541q-2 -2 -14.5 -11t-12.5 -14h27v25zM93 538q0 -2 2.5 -6
t4.5 -4q10 0 18 11.5t8 20.5q-9 0 -21 -7t-12 -15zM105 593v-3q0 -2 -11 -24q4 -1 6 -1q32 0 32 27q0 30 -26 30q-18 0 -18 -7q0 -13 6 -25l11 7v-4z" />
    <glyph glyph-name="J" unicode="J" horiz-adv-x="281" 
d="M7 -167v56l19 5q18 4 40 15.5t28 28.5q0 4 0.5 26.5t0.5 26.5q0 22 -4.5 65t-4.5 64q0 42 8 71l-7 450q0 11 13 19q4 -1 30 -1q20 0 33 4t20 4q5 0 10 -7t5 -12q0 -2 -3 -13t-3 -12v-53q0 -49 6 -89q-6 -7 -6 -20q0 -2 0.5 -6.5t0.5 -7.5q0 -6 -1 -8q0 -3 -6 -25.5
t-6 -25.5q0 -4 4 -13.5t4 -21.5q0 -11 -4 -15t-4 -5l4 -5q3 -6 3 -7q0 -4 -4 -18.5t-4 -36.5q0 -59 13 -62v-105l-5 -7l5 -7q0 -1 -1 -8.5t-2.5 -16.5t-1.5 -11v-6q5 -25 5 -43q0 -54 -13 -89.5t-32 -48.5t-37.5 -18.5t-32.5 -6.5t-14 -4h-56zM122 -105q-36 0 -36 -20
q0 -1 1 -1q3 0 11.5 4t20 9t18.5 7q-2 0 -8 0.5t-7 0.5zM155 -74q-11 0 -18 -12l9 -2q16 0 16 11q0 3 -7 3zM162 -35q-18 0 -25 -15q15 0 20 2.5t5 12.5zM119 -12q0 -3 4.5 -13t6.5 -12q7 2 19.5 11.5t12.5 16.5q0 3 -11.5 7t-13.5 8q8 -2 11 -2q8 0 11.5 5t4 11t0.5 18
q-8 0 -14.5 -8t-8.5 -8l-4 2q2 8 14 19t12 21q-39 0 -39 -8q0 -1 0.5 -10.5t0.5 -15.5q0 -15 -3 -26t-3 -16zM164 112q-5 0 -22.5 -11t-17.5 -16v-14q29 0 34.5 6t5.5 35zM141 125q-15 0 -20 -4.5t-5 -18.5q22 0 39 22q-1 0 -7 0.5t-7 0.5zM119 142l5 -7q6 0 25 5t19 8v32
q-19 0 -49 -38zM138 204q0 -22 -8 -22q-1 0 -3.5 1t-3.5 1q-6 0 -6 -14q27 0 40.5 22.5t13.5 51.5q-15 0 -28 -12t-13 -28h8zM149 277q-33 0 -33 -51q25 0 34 32t9 65q-6 0 -12 -4t-9.5 -8.5t-8 -11.5t-5.5 -9q5 -9 25 -13zM124 345v-25q11 0 22 7.5t11 17.5q0 5 -2 7z
M124 370q0 -7 20 -7q18 0 18 7v44l-9 -9t-10.5 -10t-9 -9t-7 -9t-2.5 -7zM155 431q-17 -1 -24 -3t-11 -8.5t-4 -21.5q10 0 25 10.5t15 19.5zM168 493q-45 -40 -45 -52q0 -2 1 -2q30 1 40 8t10 34zM149 493q-31 -2 -31 -21v-4q1 -4 1 -5zM119 512v-13q56 0 56 37
q0 15 -6.5 51.5t-6.5 42.5l-56 11v-6l-1 -5q0 -28 14 -28q5 0 11 3q-1 -4 -4.5 -11.5t-6 -13t-2.5 -6.5h17q0 -5 -10 -16t-12 -22h7l36 38v-12z" />
    <glyph glyph-name="K" unicode="K" horiz-adv-x="601" 
d="M376 101q-6 0 -21 17t-17 17q-35 49 -44 75q-10 16 -36.5 52.5t-41.5 61t-15 34.5v-1q3 0 34 41.5t46 64.5q-1 1 -1 2q0 20 76 114t92 94q5 0 16.5 -1.5t19.5 -1.5q11 0 26 3q16 0 30 -25q-39 -62 -68 -86l-153 -198q0 -1 -0.5 -4.5t-0.5 -5.5q0 -17 6 -36t13 -31.5
t19.5 -34t17.5 -30.5q2 -4 19.5 -20t17.5 -29h6l6 -5q6 -6 17 -16t24 -22.5t26.5 -27.5t24.5 -30t18 -31t7 -29q0 -2 -5 -12q-6 1 -18 1q-34 0 -50 -25q-16 13 -53.5 62.5t-37.5 62.5zM374 143q0 -12 18 -24t20 -14v-3q-1 -4 -1 -6q0 -13 32.5 -44.5t47.5 -31.5v17
q-3 2 -13 19t-22 31t-23 14q-6 0 -9 -2q6 10 6 18q0 4 -0.5 5.5t-1.5 1.5t-4 1.5t-7 4.5q-10 9 -36 46.5t-49.5 68.5t-33.5 31q0 35 -11 39q-3 1 -6 1q-12 0 -12 -11q0 -6 10 -18.5t23.5 -26.5t16.5 -19q7 -10 19 -37.5t18 -36.5q2 -4 25 -19zM245 334q4 -8 12 -12
q20 0 20 12h-32zM257 364l-19 -12h38q1 5 7 18t6 20q0 11 -9 11q-10 0 -20 -9t-10 -19q0 -6 7 -9zM281 414q2 -5 9.5 -9.5t12.5 -4.5q4 0 14 11t10 16q-23 0 -46 -13zM313 451q-13 0 -13 -20l31 8q-7 12 -18 12zM319 466q0 -5 13 -10.5t17 -5.5q2 0 25 38h-6q-13 0 -31 -5.5
t-18 -16.5zM356 531q-14 -11 -25 -38q1 0 5 -1h4q9 0 25.5 4.5t16.5 12.5q0 9 -26 22zM374 537q7 -13 22 -13q7 0 13 8.5t8 16.5q-1 0 -3 0.5l-2 0.5q-3 0 -17.5 -4t-20.5 -9zM405 572q-10 0 -21 -5t-11 -15l1 -1v-2l31 13v10zM399 587q5 -13 30 -13q6 0 34 26t28 30v11
q-54 0 -62 -24q6 0 18.5 3t19.5 3q-6 -11 -34 -18t-34 -18zM75 0q1 21 1 62q0 63 -6.5 188.5t-6.5 187.5q0 37 3.5 111t3.5 111h73q12 0 12 -15q0 -2 -0.5 -4t-0.5 -3l1 -2q0 -6 -2 -40.5t-3 -40.5q18 -21 18 -112q0 -63 6 -174t6 -161q0 -8 -0.5 -54t-0.5 -54
q-2 -12 -41 -12q-51 0 -63 12zM137 62q-23 0 -31.5 -7.5t-8.5 -30.5h14l39 38h-13zM150 37l-13 -13l3 -1q2 0 6.5 4.5t4.5 7.5zM153 100q-6 0 -12.5 -3t-10 -6l-10.5 -9t-9 -8q15 0 28.5 6.5t13.5 19.5zM106 111v-19q14 0 31 19h-31zM150 155q-13 -4 -32 -25q1 0 6 -0.5
t6 -0.5q21 0 21 16q0 1 -0.5 5t-0.5 5zM98 167q0 -23 8 -32q2 4 18 15t16 17h-42zM118 186q3 -7 12 -7q24 0 24 26q-9 0 -19.5 -9t-16.5 -10zM94 222l6 -42l43 42q-30 6 -38 6q-11 0 -11 -6zM150 286q-11 0 -28.5 -13.5t-17.5 -24.5h46v38zM100 302v-32q14 0 43 32h-43z
M146 348q-11 0 -20.5 -9t-9.5 -20q19 0 24.5 5.5t5.5 23.5zM100 370v-36q35 23 37 36h-37zM99 392l1 -2q0 -2 1.5 -4.5t4.5 -2.5q22 0 28 8.5t6 29.5q-7 0 -15 -5t-16 -12t-9 -8v-2zM118 444h-2l-2 1q-13 0 -18 -4.5t-5 -17.5q0 -7 3 -16q43 22 43 73q0 14 -9 14l-3 -1
l-31 -30q-1 -2 -1 -3q0 -8 11.5 -8.5t13.5 -7.5zM111 518q-2 1 -6 1q-9 0 -13.5 -9.5t-4.5 -18.5q19 0 29 12t10 31q0 6 -7.5 15.5t-7.5 12.5q0 1 3.5 8t7 20.5t3.5 29.5q0 6 -10 11t-15 5q-1 0 -3.5 -2.5t-2.5 -3.5v-68q6 -6 6 -22.5t11 -21.5z" />
    <glyph glyph-name="L" unicode="L" horiz-adv-x="477" 
d="M65 142h-5q0 3 3 30.5t8 69t10 66.5q-13 39 -13 155q0 18 0.5 55.5t0.5 54.5q-9 7 -9 60q0 13 2 15l13 12h80l7 -6l11 -62q7 -45 7 -120q0 -51 -10 -151t-10 -151q0 -6 0.5 -17t1 -20t0.5 -10l11 -13q-6 -2 -6 -9q0 -3 1.5 -9t1.5 -7q7 -1 68.5 -2.5t71.5 -1.5
q10 -8 36 -8q27 0 62 7t54 7q0 -10 3.5 -27t3.5 -26t-10 -18.5t-14 -9.5q-24 6 -37 6q-33 -23 -88 -23q-14 0 -39 1.5t-35 1.5q-5 0 -25 -0.5t-33 -0.5q-123 0 -123 51v100zM147 34q38 0 45 -10q6 0 31 25q-21 0 -31 -7v11q-45 0 -45 -19zM305 53q-78 0 -78 -31q29 0 39 15
q1 -4 6.5 -8.5t7.5 -4.5q8 0 16.5 10.5t8.5 18.5zM315 42l-18 -18h5q4 -1 5 -1q3 0 12.5 4t14.5 4l3 -3l3 -4q21 0 60.5 7.5t39.5 18.5q-21 0 -61.5 -4t-63.5 -4zM99 37q1 -7 14 -7q18 0 26 4t16 21q-1 0 -3 0.5t-3 0.5q-42 0 -50 -19zM130 81l-31 -26q38 0 38 12q0 9 -7 14
zM87 129q0 -3 3.5 -13t3.5 -11q0 -8 5 -38q19 10 31 25q-14 6 -18 13q6 0 12.5 3t6.5 5q0 4 -8 10q0 3 5 13t5 18h-28q20 3 26.5 15t6.5 35q-36 0 -43.5 -14.5t-7.5 -60.5zM120 262q0 -8 -11 -25t-11 -29q30 0 38 17.5t8 51.5q0 2 -0.5 18t-0.5 26q-2 -2 -7.5 -5.5t-8 -5.5
t-7 -5.5t-6.5 -6.5t-4.5 -6.5t-3.5 -8t-1 -9.5q0 -4 7.5 -6.5t7.5 -5.5zM105 326v-14q4 0 18 14h-18zM143 372q-4 0 -31 -27h31v27zM99 376v-7q25 0 25 10l-1 3zM143 444l-44 -48q6 -2 20 -2q22 0 28 11.5t6 38.5h-10zM123 463q-15 0 -20 -4t-5 -17q0 -14 1 -17q25 8 38 35
t13 55q-6 0 -13 -3.5t-11.5 -6.5t-12 -9.5t-8.5 -7.5q0 -8 9.5 -12t9.5 -10zM116 518q-11 0 -17 -6l6 -1q11 0 14 7h-3zM123 587q-3 -8 -14 -28.5t-11 -32.5q14 0 20 0.5t15 3t13 9t4 17.5q0 80 -19 80q-4 0 -37 -7q2 -37 13 -37q2 0 5 1t4 1q4 0 7 -7z" />
    <glyph glyph-name="M" unicode="M" horiz-adv-x="789" 
d="M43 9q-1 1 -3 9l-3 9q25 116 25 194q0 5 -0.5 17t-0.5 17l38 223q0 38 12 110q0 2 0.5 12.5t1.5 20t3.5 20t8 16.5t13.5 6l10 -3q9 -4 13 -4l8 4q8 3 9 3q23 -7 97 -143.5t95 -153.5q12 9 23.5 29t22.5 44.5t16 32.5q2 4 22 34.5t21 32.5q33 55 56 111q8 19 46 19
q15 0 30.5 -7.5t15.5 -24.5q0 -1 -0.5 -3.5t-0.5 -4.5q0 -1 0.5 -4t0.5 -5q6 -57 30 -192t31 -271q1 -17 7.5 -57t6.5 -61q0 -15 -2 -23t-9.5 -11t-12 -3.5t-18.5 -0.5q-64 0 -64 23l6 40q-6 56 -6 136q0 13 -6 52.5t-12 73t-7 34.5l-6 6q0 117 -12 117h-13v-24
q0 -2 -20.5 -48t-47.5 -106t-43 -93q-2 -3 -6.5 -14t-7.5 -17.5t-9.5 -12.5t-14.5 -6q-45 0 -47 44q-107 179 -136 266q-1 0 -7 6q-2 -16 -12 -68q0 -26 -10 -87t-10 -90q0 -14 1 -21l-31 -210q-2 -14 -27 -14q-35 0 -65 21zM74 39q0 -18 25 -18q13 0 13 32q0 5 -0.5 13
t-0.5 10h-11l-1 6q4 12 5 13q-30 0 -30 -56zM630 98q0 -6 6 -35t6 -30q15 2 20 5.5t5 12.5q0 17 -4 40t-12 23q-6 0 -13.5 -5t-7.5 -11zM85 106q21 0 30.5 17.5t9.5 39.5q0 2 -0.5 9.5t-0.5 8.5l-13 -6v8q-18 0 -22 -17t-4 -60zM630 125v-7q15 0 18 7h-18zM654 164
q-10 0 -19 -8t-9 -18h28v26zM630 181v-18l18 18h-18zM111 212q0 -3 -5 -10.5t-7 -7.5q37 0 37 46q0 26 -9 31.5t-42 5.5q0 -19 7 -47q0 -1 9 -8.5t10 -9.5zM623 203q0 -11 25 -11v38q-25 -8 -25 -27zM391 231q-17 -7 -17 -22q3 0 6 1.5t5.5 4t4 4.5t3.5 6t2 5zM376 242
q-4 0 -9 -2.5t-5 -4.5l1 -1q1 -2 1 -4q3 0 8 4.5t5 5.5zM623 238v-8q9 0 12 8h-12zM388 286q-39 -22 -39 -39q40 0 64.5 21t24.5 61q-10 -5 -19 -5q2 0 7.5 4.5t5.5 7.5q0 2 -3.5 8t-3.5 10q18 -6 21 -6q12 0 12 25h-20q1 1 9 8t12 11t12 12.5t12 14.5t7.5 14t3.5 15
q-21 0 -38.5 -11t-17.5 -30q0 -4 12 -10q-11 -2 -21.5 -12t-15.5 -17.5t-14.5 -24.5t-10.5 -19l13 -8q-7 -6 -35.5 -8.5t-32.5 -15.5l7 -6q1 1 7.5 2t14 2.5t8.5 1.5q2 0 9 -0.5t9 -0.5v-5zM616 266q0 -22 26 -22v37q-11 0 -26 -15zM354 281q-15 0 -15 -11l1 -2q14 0 14 13z
M135 298q-28 0 -28 -17q35 0 35 14q0 3 -7 3zM616 305v-20q17 0 26 13q-1 0 -11 3.5t-15 3.5zM124 316q-25 0 -25 -5v-13q3 0 18 6t18 7q-2 5 -11 5zM320 316v-14q20 0 24 14h-24zM611 316q7 -5 24 -5q9 0 9 26q-34 0 -34 -17v-2zM104 329l38 -5q7 0 7 12q0 9 -7 12
q-32 -8 -38 -19zM330 349q-3 0 -10.5 -7.5t-10.5 -12.5q1 0 6 -1h5q18 0 24 8q0 5 -11 12zM605 360v-19q25 4 25 9q0 11 -19 11zM104 360v-13q13 0 25 7q-1 7 -11 7q-1 0 -6 -0.5t-8 -0.5zM283 360l-1 -2v-2q0 -10 17 -10q24 0 27 14h-43zM111 378q1 -6 14 -6q30 0 30 12
q0 1 -2 7l-36 19l-6 -16h18q-3 -10 -18 -16zM309 391q-11 0 -19.5 -5.5t-8.5 -14.5q30 0 39 15q-2 5 -11 5zM597 386q0 -16 26 -16v34q-9 0 -17.5 -5t-8.5 -13zM270 404q0 -13 7 -13q21 0 21 13h-28zM592 410l6 -6q8 4 8 13q-8 0 -14 -7zM122 429q0 -21 35 -21q0 25 -7 35.5
t-29 10.5q0 -10 14 -14q-13 0 -13 -11zM296 430q-20 0 -20 -14h20v14zM591 431q0 -2 1 -2l24 -8v21q-25 0 -25 -11zM259 434v-7q3 0 9 3.5t9 3.5h-18zM266 472q-21 -14 -21 -26q19 0 32 7q-4 12 -11 19zM572 465q0 -5 6 -11.5t10 -6.5q13 0 23 12q-30 6 -39 6zM481 478
q-9 0 -14 -9t-5 -19q12 0 38 14q-9 12 -19 14zM129 472q2 -1 10.5 -7.5t10.5 -6.5q21 0 21 36q-15 0 -25 5t-17 5v-32zM492 483q4 -6 15 -6q8 0 17 6q0 2 -2.5 4.5t-3.5 2.5q-8 0 -26 -7zM549 508q6 -4 9.5 -9.5t4.5 -10t5.5 -8t13.5 -3.5q29 0 29 6q0 7 -6 19l-13 129l-6 1
q-26 0 -50 -31q3 -9 21.5 -12t22.5 -6q-6 -10 -26.5 -17t-22.5 -17h49l6 -10q-6 -3 -33 -8t-47 -13t-20 -19v-1l1 -2l24 6l-4 6q24 6 42 6h6zM204 490l15 -8q2 0 16 14h-7l-6 1q-17 0 -18 -7zM148 514q1 -6 10 -6h11.5t7.5 2t8 6t6 11q-11 0 -43 -13zM228 533
q-22 -16 -31 -25h9q35 0 35 10q0 2 -13 15zM586 527v-6h-19zM518 540q-10 0 -11 -7h29q-7 7 -18 7zM166 557q0 -1 4.5 -4.5t4.5 -5.5t-1 -3q7 0 21.5 8.5t14.5 14.5q0 7 -10 11.5t-18 4.5q-14 0 -31 -7t-17 -20q7 0 20.5 6t18.5 7q-1 0 -4 -5t-3 -7zM536 583q-12 0 -12 -14
q17 0 25 8q-2 6 -13 6zM135 631v-31q2 0 11 3.5t15 3.5q1 -8 25 -8q0 14 -13 14v13q-7 5 -38 5z" />
    <glyph glyph-name="N" unicode="N" horiz-adv-x="662" 
d="M74 -12q-7 42 -7 81q0 60 6.5 182t6.5 188q-14 58 -14 84q0 21 4.5 60t4.5 61q0 3 -0.5 11t-0.5 12q23 6 52 6q32 0 59 -6q11 -17 46 -69.5t57 -90t38 -74.5q0 -10 72.5 -107.5t86.5 -97.5q9 0 9 140q0 4 -0.5 54t-0.5 79q0 1 -2 7t-3 11t-1 6q0 18 3 51t3 50q0 31 43 31
q52 0 52 -14q0 -4 -2 -13.5t-2 -12.5q0 -5 3.5 -19.5t3.5 -22.5q0 -36 7 -105.5t7 -106.5q0 -32 -6.5 -94.5t-6.5 -92.5q0 -113 6 -157q0 -1 4.5 -14.5t4.5 -22.5q-37 0 -76 13q-8 12 -27.5 27t-33 30.5t-13.5 35.5q-9 0 -10.5 2t-1.5 11q-16 0 -26.5 14t-20.5 38.5
t-16 32.5q-10 0 -17 8t-13 23.5t-7 17.5q-4 7 -21 25t-22 31q-10 27 -59 97t-61 70q-5 0 -10 -38q0 -50 7 -148t7 -147q0 -21 -7 -60t-7 -59q0 -24 -68 -24q-10 0 -30 6zM142 63q-17 0 -26 -2t-15.5 -10.5t-6.5 -24.5h16l32 30v7zM531 31l24 -5q2 -1 3.5 1.5t2 7t0.5 7v5.5
v9l-30 -13v-12zM555 93l-31 -31q16 0 27 8t11 23h-7zM517 81q-21 -2 -21 -16q21 0 21 16zM98 122q0 -3 -0.5 -9.5t-0.5 -10.5q0 -28 20 -28q33 0 33 16q0 8 -2 10q-22 -19 -38 -19q7 6 7 16q0 3 -0.5 9t-0.5 10q0 2 9.5 25t9.5 26q-23 -3 -30 -12.5t-7 -32.5zM517 136
q-46 -15 -46 -45q12 0 29.5 15t17.5 26zM541 154q0 -6 -7 -18t-16.5 -25.5t-11.5 -17.5q62 0 62 105q0 12 -7 12q-23 0 -37 -30.5t-37 -30.5q0 1 1 3q0 6 -6 10q-1 -1 -8.5 -4.5t-14 -7t-9.5 -7.5l24 -25q52 36 67 36zM158 156q-13 1 -22 -13t-9 -27q14 0 22.5 13.5
t8.5 26.5zM443 174v-20q14 0 31 13q0 17 -5 17q-1 0 -5 -1t-7 -1v17q-9 0 -20.5 -7.5t-11.5 -15.5q0 -6 6 -9q9 0 12 7zM148 217q-26 -20 -26 -41q32 0 32 22q0 10 -6 19zM407 198q0 -6 12 -6q25 0 25 15q0 4 -5.5 9.5t-10.5 9.5l-6 4l-3 -1l-31 62q-1 1 -3 1q-16 0 -16 -32
q0 -23 22 -23q0 -2 -1.5 -8.5t-1.5 -9.5q0 -9 9 -9t16 7q-6 -18 -6 -19zM104 210q0 -6 6 -12l25 25h-7q-5 0 -14.5 -3.5t-9.5 -9.5zM524 253v-50q11 0 24 8t19 18h-24q6 4 12.5 12.5t6.5 11.5h-38zM148 278q-27 -23 -31 -37q33 0 33 26q0 9 -2 11zM142 297q-2 -1 -7.5 -2
t-7 -1.5t-5.5 -2t-5 -3t-3 -4t-2.5 -5.5t-1 -8t-0.5 -11l32 31v6zM531 278q1 -2 -2 -6.5t-5 -4.5h43v25q-13 0 -24 -8q8 9 20.5 31t12.5 32q-11 0 -20 -15t-20 -16v11q37 31 37 62h-24q2 4 13.5 10t11.5 16q0 3 -4 7.5t-6 4.5q-11 0 -23.5 -13.5t-12.5 -24.5h7q0 -1 0.5 -3
l0.5 -2q-1 -2 -12 -13q-7 -19 -7 -64q0 -16 6.5 -21t7.5 -8zM344 288q0 -4 3.5 -10.5t6.5 -6.5q16 0 16 31q0 12 -7 25.5t-18 13.5q-2 0 -8.5 -11.5t-10.5 -13.5q0 -16 20 -16q4 0 8 0.5t7 1.5h3q-2 -2 -11 -6t-9 -8zM142 334q-15 -15 -15 -27q22 0 22 14q0 10 -7 13z
M110 343q0 -1 7 -22q29 21 29 41q-36 0 -36 -19zM307 345q0 -11 13 -18q14 10 14 34q-27 0 -27 -16zM283 387q0 -12 6 -17.5t12 -5.5q20 0 20 13q0 12 -22 25q-16 -6 -16 -15zM143 397q-10 0 -19 -8.5t-9 -18.5q13 0 20.5 7.5t7.5 19.5zM142 421q-33 0 -33 -28q2 0 17.5 9.5
t15.5 12.5v6zM259 420q11 -19 15 -19q9 0 14 9t5 19q-25 0 -34 -9zM517 439q0 -5 2.5 -14.5t4.5 -9.5h7l30 30q-4 13 -30 13q-2 0 -5 -4t-5.5 -9t-3.5 -6zM104 439l6 -6q5 3 13 10t16.5 17.5t8.5 18.5q-9 14 -9 42h1q0 -1 -7 -4t-16 -8t-13 -8v-62zM253 469q0 -6 -4 -17.5
t-4 -19.5q39 0 39 9q0 25 -44 84l-30 31q-5 -1 -32 -19q3 -5 8 -15t7 -12t7 -5t13 -3q0 -20 3.5 -29.5t17.5 -21.5l18 25q1 -5 1 -7zM536 472q0 -10 27 -10q0 45 -8 45q-19 -23 -19 -35zM517 501v-21q5 0 25 26.5t20 30.5h-7zM191 587q-14 0 -46 -25t-46 -43h5l99 49
q-6 19 -12 19zM517 559v-34h7l31 31l-6 6l12 6q1 1 3.5 16t2.5 22q0 2 -2.5 6.5t-3.5 4.5h-37q-5 -17 -7 -24q0 -27 19 -34h-19zM148 575q-16 0 -32.5 -8.5t-16.5 -22.5h5l50 31h-6zM99 581q0 -1 2 -3.5t3 -2.5l50 55h-2q-3 1 -4 1q-14 0 -31.5 -18t-17.5 -32zM170 625
q-12 0 -28 -32q2 -1 3 -1l7 4q22 12 26 16q0 3 -3 8t-5 5zM99 636q0 -2 5 -12l20 12l-14 7q-11 0 -11 -7z" />
    <glyph glyph-name="O" unicode="O" horiz-adv-x="712" 
d="M248 0l-93 43h-5q-6 0 -44 31q-24 19 -49.5 89t-25.5 110q0 7 1 10q-2 0 -4 3t-2 5q0 13 5.5 42t6.5 37q11 99 47 156t120 110h1l2 -1q8 0 59 12.5t66 12.5h26l31 -6q31 -6 66.5 -13.5t43.5 -10.5q33 -14 38 -19q75 -76 102.5 -130t27.5 -144q0 -32 -4.5 -62.5t-14 -74.5
t-12.5 -57q-2 -12 -13 -25.5t-11 -29.5q0 -6 -1 -7q-52 -93 -247 -93zM390 24v-12l24 12h-24zM248 37q0 -1 3 -3.5t4 -2.5q21 0 21 14h-6q-20 0 -22 -8zM587 111q-23 -1 -28.5 -3.5t-8.5 -13t-12 -20.5q-25 -28 -81 -43q61 0 111.5 47t50.5 109q-39 0 -39 -32h20
q-3 -5 -17 -9.5t-15 -13.5q0 -2 19 -21zM207 97q11 0 14.5 -3t7.5 -9t12 -11q12 -6 37 -8.5t37 -9.5q4 0 21 -0.5t19 -0.5q93 0 136 25.5t65 105.5q0 6 0.5 38t0.5 38v57t-3 54.5t-9.5 63t-20.5 48.5t-35 46q-1 -1 -4 -1q-4 0 -53 16.5t-55 16.5q-9 0 -24.5 -7t-23.5 -7
q-6 0 -11.5 3.5t-10.5 3.5q-76 0 -132.5 -73t-56.5 -149q0 -24 13.5 -105t25.5 -81q1 0 6 0.5t7 0.5q4 0 7 -6.5t3 -12.5q2 -4 8.5 -12t12.5 -14t6 -7zM167 81v-8q10 0 13 8h-13zM117 117q0 -6 9 -19t13 -13q11 0 11 32h-33zM124 155q-14 -2 -14 -14q15 0 15 10q0 1 -0.5 2
t-0.5 2zM81 160q7 -4 7 -12l12 12q0 2 -3 4.5t-4 2.5q-5 0 -12 -7zM113 204q-9 0 -13 -6h13v6zM594 216q0 -3 -4 -9.5t-4 -10.5q17 0 19 8q0 -1 3 -3.5t4 -2.5q32 0 32 89q0 2 -0.5 8t-0.5 7l-66 -15l23 -22q-5 0 -12.5 -3t-7.5 -6q0 -8 14 -8q4 0 14 2.5t16 2.5
q-3 -6 -20.5 -10t-17.5 -14q0 -5 4 -8.5t4 -4.5zM93 272q-10 0 -24 -24h5q6 -1 7 -1q19 0 19 12q0 13 -7 13zM83 307q-27 -1 -27 -31q13 0 20 9t7 22zM587 322q7 -8 22 -8h10q30 0 30 12q0 26 -8 26q-11 0 -29 -10.5t-25 -19.5zM624 368h-44q0 -23 10 -23q13 0 33 12t20 26
q0 19 -6 31q-24 0 -62 -31zM65 384q0 -23 -8 -32q1 0 3 -0.5t3 -0.5q7 0 16.5 4.5t9.5 12.5q0 6 -9 11t-15 5zM81 407l12 -6q8 0 8 14q-17 0 -20 -8zM569 407l12 -6q8 0 31 13q-38 0 -43 -7zM575 431l6 -5h50q0 21 -13 54t-33 33q-6 0 -17.5 -13.5t-11.5 -17.5q0 -3 7 -8.5
t9 -5.5t3 1q-7 -12 -7 -21q6 0 14 6t15 6l-5 -6q-6 -5 -12 -12t-6 -10zM88 457q-9 0 -9 -20q16 0 27 7q-2 4 -9 8.5t-9 4.5zM118 518q-4 0 -8.5 -7.5t-4.5 -11.5q15 0 32 7q-1 3 -9 7.5t-10 4.5zM538 531q0 -8 4.5 -16.5t11.5 -8.5q8 0 14.5 6t6.5 13q0 11 -19 11
q-42 44 -60 62q-16 16 -75.5 24t-99.5 8q-42 0 -42 -19q-7 12 -15 12q-3 0 -20.5 -9t-34 -17.5t-16.5 -9.5l12 -10h-38v-2q7 -26 34 -26q14 0 23 13q-3 1 -8 5.5t-5 6.5q0 7 6 13q6 0 13 -4t17 -4q11 0 16 1t11 7t11 18q1 -8 15 -8q53 0 53 20l6 -12l-1 -1q6 0 22 8
q-1 0 5.5 -7t19.5 -13.5t28 -6.5q14 0 18 8q12 -33 87 -62zM137 537q4 -4 11 -8.5t12.5 -7t6.5 -3.5q3 0 8 5.5t5 7.5q-19 6 -43 6z" />
    <glyph glyph-name="P" unicode="P" horiz-adv-x="570" 
d="M99 0q0 47 -6.5 139.5t-6.5 138.5q0 18 3.5 49t3.5 39q0 15 -3.5 26t-3.5 15q0 3 3.5 11t3.5 24q0 9 -4 19t-4 13q0 10 4 28t4 27q0 13 -6.5 18.5t-13.5 6t-7 4.5q0 8 6 14.5t14 7.5v61q0 3 10.5 11t13.5 8h137l12 6h110q11 -3 38 -19.5t56 -23.5q3 -4 22 -26.5t22.5 -28
t16 -24t15.5 -30t7 -30t4 -38.5q0 -76 -44 -143t-118 -81q-61 -13 -104 -13q-14 0 -48.5 2t-38.5 2v-6q0 -6 -2 -9l-4 -7v-209l-6 -6q-54 0 -86 24zM104 24q11 -12 13 -12q11 0 28 18t17 32h-20q26 9 26 47q-20 0 -37.5 -39.5t-26.5 -45.5zM160 37q-6 -3 -12 -25q4 0 7 1
t4 5t1 5.5v7v6.5zM160 130q-4 -1 -10.5 -3.5t-9.5 -3.5t-7 -3t-5.5 -4.5t-3 -6.5t-1.5 -10q0 -1 0.5 -6.5t0.5 -6.5q1 1 10 9t16.5 17.5t9.5 17.5zM124 135v-6q23 0 31 7.5t8 30.5h-9zM145 173q-23 0 -23 -13q0 -3 2 -5q17 8 24 18h-3zM160 228q-2 0 -6 -4.5t-8.5 -10.5
t-8.5 -12.5t-7 -10.5l-2 -4q6 0 14 2.5t13 5.5t5 4v30zM117 228q0 -1 -0.5 -3t-0.5 -4q0 -11 8 -11l48 49v6q-5 -1 -16.5 -3.5t-16 -4.5t-11 -5.5t-9 -9t-2.5 -14.5zM185 248q18 -7 62 -7l-19 18l12 6q0 7 -12 7q-43 -5 -43 -24zM265 248q7 -8 22 -8l8 1q-3 7 -30 7z
M339 265q-3 -1 -3 -3q0 -4 15.5 -7t21.5 -3q37 0 37 13h-34q10 10 25 13h12q12 -1 19 -1q16 0 45.5 32t29.5 58q-23 0 -42 -12t-19 -33h7q0 -13 -85 -29.5t-118 -16.5q0 -17 9 -17h43l-11 13h4q29 -4 44 -7zM167 302l-39 -37q14 0 50 18l-7 19h-4zM148 316q-20 0 -29 -6.5
t-9 -27.5q21 0 50 33q-1 0 -6 0.5t-6 0.5zM185 523v-30q1 -12 3 -64t5.5 -86.5t9.5 -34.5h88l4 7v-7q8 5 22 8t29.5 4.5t17.5 1.5q33 2 50.5 28t28.5 70q7 24 7 30q0 18 -20 54.5t-35 44.5q-14 7 -61 7q-3 0 -24 -0.5t-27 -0.5q-89 -3 -92 -6l-6 -6v-20zM160 396
q-43 -36 -43 -71q26 0 38.5 6.5t12.5 29.5q0 22 -8 35zM142 407q-27 0 -27 -38q15 0 27 23.5t18 27.5q0 6 0.5 16.5t0.5 15.5q0 20 -7 30q-12 -9 -21.5 -27.5t-9.5 -33.5t11 -15q5 0 8 1zM525 420h-8q-10 -4 -32 -15.5t-22 -15.5v-12h43q7 0 13 17.5t6 25.5zM489 427
q-23 0 -23 -14q25 0 34 13h-5q-5 1 -6 1zM516 476q-16 0 -27 -13.5t-11 -28.5q17 0 25 0.5t18 6t10 17.5q0 18 -15 18zM135 482q-3 1 -7 1q-13 0 -13 -17l1 -4q1 -4 1 -5q14 11 18 25zM443 513q2 -1 6.5 -3t6 -3t5 -3t4.5 -3.5t3.5 -3.5t3 -4.5t1.5 -5.5t1.5 -6.5t0.5 -8.5
q0 -8 -1 -9q38 23 38 40q0 22 -9 22t-21 -12q-1 3 -1 4q0 2 6.5 12.5t6.5 13.5q0 2 -7.5 13.5t-21 24t-26.5 12.5l11 12q-66 36 -155 36q-23 0 -38.5 -10t-34.5 -33q5 0 15 3.5t18.5 7t9.5 2.5q-9 -13 -25 -18q6 -2 10.5 -6t9 -6t11.5 -2q1 0 7 1h5l-12 7q14 7 40 7
q5 0 12.5 -0.5t10.5 -0.5l11 12q-2 -2 -2 -4q0 -6 30.5 -11t33.5 -10l-6 -6q25 -20 30 -25q1 -1 8.5 -12t17.5 -12zM160 538q-13 0 -30 -15.5t-17 -29.5h41l3 21q3 21 3 24zM117 543q0 -7 7 -12q18 6 18 20q-25 0 -25 -8zM110 587q2 -15 5.5 -20t12.5 -5q17 0 48.5 20.5
t45.5 34.5q-24 0 -87 -37h-7q14 17 69 50v8q-83 0 -83 -21h19q0 -1 1 -3t1 -3t-11 -11.5t-14 -12.5z" />
    <glyph glyph-name="Q" unicode="Q" horiz-adv-x="710" 
d="M105 81h-8q-2 0 -24 36q-21 34 -32.5 84t-11.5 94q0 76 14.5 140t45.5 117.5t86 84t129 30.5q19 0 48.5 -4t41.5 -4v-7q74 0 136.5 -44t97.5 -115q5 -8 18.5 -59t13.5 -66q0 -19 -4.5 -43t-4.5 -41q0 -12 1 -19l-5 -6l5 -6q-12 -6 -12.5 -38.5t-11.5 -41.5l7 -6
q-5 -8 -15.5 -30t-10.5 -31q0 -13 25.5 -27.5t25.5 -25.5q0 -8 -12.5 -19.5t-12.5 -21.5q-1 0 -4.5 4t-5.5 4q-4 0 -9 -13t-16 -13q-8 0 -27 13t-28 13q-17 0 -28 -20q-7 -2 -37 -11t-46.5 -13t-42 -8.5t-44.5 -4.5q-105 0 -225 99q-4 3 -9 5t-6.5 4.5t-1.5 9.5zM245 12
q12 0 34.5 -3.5t35.5 -2.5q0 14 -14 14q-3 0 -10 -1t-11 -1q-11 0 -19.5 13t-14.5 13q-14 0 -25 -13l24 -12v-7zM399 16q0 -2 3 -5.5t5 -3.5q6 0 32 12.5t30 12.5q3 0 9.5 -0.5t9.5 -0.5q10 0 35 27.5t25 47.5q-2 -1 -15 -10t-22.5 -16.5t-10.5 -12.5q-8 -19 -54.5 -31
t-46.5 -20zM625 56q-6 0 -13 -9.5t-8 -15.5q17 7 24 25h-3zM573 53l-1 -1q0 -2 5 -5.5t8 -3.5q2 0 5.5 4.5t5.5 9.5l2 5h-3q-3 1 -4 1q-18 0 -18 -10zM231 124q0 -2 -5.5 -16t-5.5 -19q0 -8 58 -23.5t78 -15.5q39 0 94 17q0 19 -37.5 55.5t-37.5 59.5q0 10 22 40.5t31 30.5
q17 0 37 -20t36.5 -40t25.5 -20q10 0 17 10.5t10 28.5t4 32t2 34v19q7 28 7 49q0 1 -1.5 3.5t-3.5 5t-2 3.5q0 10 -6 36.5t-12 49t-6 23.5h-25q14 8 14 25q0 38 -57 60.5t-104 22.5q-3 0 -9.5 -0.5t-12.5 -0.5h-5l-109 -37q-8 -9 -25 -21.5t-25 -22.5q-44 -55 -44 -184
q0 -108 12 -130q2 -2 13 -12.5t12 -11.5q0 -31 7 -31h53zM109 121q0 -23 25.5 -42.5t49.5 -22.5q1 1 1 9q0 9 -8.5 13.5t-18.5 6.5t-18.5 13.5t-8.5 32.5q-22 0 -22 -10zM567 113q0 -15 -25 -46h12q31 0 31 10q0 5 -3.5 15.5t-3.5 16.5q0 9 10 26t10 25q0 11 -7 13
q17 3 30.5 76.5t13.5 108.5q0 39 -14.5 97t-41.5 58l12 5q-1 2 -9 12.5t-9 12.5t-14 13t-13 16q-16 0 -36.5 18t-29.5 21q-54 17 -99 17v8h-39q0 -18 21.5 -24t51 -5.5t35.5 -1.5q2 0 9 -12.5t19 -12.5q4 0 12.5 1.5t12.5 1.5q0 -1 0.5 -3.5t0.5 -4.5q-3 -6 -4 -7
q0 -21 4 -21h38q-11 -5 -13 -10q0 -8 6.5 -10t6.5 -6q0 -2 -0.5 -7.5t-0.5 -8.5q0 -14 10 -14q5 0 9 2l-6 -11l13 -43h8q0 -19 8.5 -53t8.5 -52q0 -6 -3.5 -19t-3.5 -18q0 -1 3.5 -4.5t3.5 -12.5q0 -11 -7.5 -33.5t-7.5 -35.5q0 -18 2 -20l12 -5q-2 -1 -11 -5t-15 -7
t-13 -8.5t-10 -10.5h18l-43 -49v-7q4 3 50 18v-4zM474 106q0 -8 6 -20q19 22 44 38v6q-4 -1 -13.5 -5t-19.5 -8.5t-11 -5.5zM412 173q7 -1 10 -3.5t3 -5.5t1.5 -8t4.5 -8q4 -5 30 -31q5 12 28 12t23 10q0 2 -8.5 11.5t-10.5 9.5t-16.5 -6t-15.5 -6l-4 1q-4 1 -5 1
q0 7 11.5 19.5t11.5 22.5q0 18 -17 18q-1 0 -6.5 -3t-8.5 -3q-1 1 -3 7t-6 6q-3 0 -11 -6.5t-11 -6.5v-31zM485 173q-11 0 -17 -13q16 0 25 13h-8zM78 198q0 -23 7 -31q21 14 25 31h-32zM67 259v-20q7 0 13.5 6.5t6.5 13.5h-20zM104 298q-8 0 -12 -7l12 -26v33zM85 334
q-3 1 -7 1q-12 0 -19 -8t-7 -20q14 0 20 4.5t14 18.5q-1 3 -1 4zM104 377l-26 -12h26v12zM104 426q4 -7 13 -7v7h-13zM92 482q-9 -10 -9 -33q21 0 21 14q0 11 -12 19zM117 493q6 -8 18 -11l6 11q-5 7 -13 7q-9 0 -11 -7zM135 549q-1 0 -2 0.5t-2 0.5q-7 0 -11.5 -10.5
t-4.5 -18.5q39 0 39 10q-17 17 -19 18zM146 580q0 -19 59 -19q0 12 -8.5 25t-18.5 13q-8 0 -18.5 -6t-13.5 -13zM255 636q0 -7 33 -16t42 -9h7l-11 25h-71z" />
    <glyph glyph-name="R" unicode="R" horiz-adv-x="583" 
d="M442 20l-43 68q0 11 -12.5 31t-32.5 45.5t-23 29.5q-21 29 -37 55q-34 7 -69 7q-32 0 -43.5 -9t-11.5 -40q0 -26 4 -77t4 -79q0 -40 -19 -55q-33 -6 -63 -6q-12 0 -15.5 4.5t-3.5 16.5q0 32 7 95.5t7 96.5q0 25 -7 52v210q0 7 -6 20.5t-6 16.5q0 5 3 15.5t3 16.5
q0 10 -9.5 43t-9.5 36q0 30 12.5 40t48.5 10q13 0 34 -3.5t32 -3.5q6 0 39.5 3.5t57.5 3.5h14.5h16.5t17 -0.5t19 -1l18 -1.5t19 -2.5t17 -4t17 -5.5t14.5 -7t13.5 -9l43 -43v-13h6q1 -10 7 -38t6 -49q0 -91 -37 -141q-8 -10 -24.5 -27t-18.5 -17t-4 0.5t-3 0.5
q-8 0 -12 -6.5t-7 -6.5q-4 0 -9 3t-5 5l2 4l30 31q-2 2 -12 2q-13 0 -21.5 -15.5t-15.5 -17.5q-3 0 -37 -12q3 -7 15.5 -9.5t15.5 -8.5l-12 -13h27q0 1 -1.5 7t-1.5 9q0 7 7 10q5 -15 22.5 -38t21.5 -31q28 -81 118 -215q0 -19 -64 -19q-14 0 -21 5.5t-8 12.5t-4 12.5
t-10 5.5zM425 135q0 -32 24 -72q3 -6 10.5 -16.5t13.5 -18.5l6 -8h19q-7 23 -26 54t-23 39q-4 6 -12.5 28t-16.5 40t-15 19l-5 -2q-6 -3 -9.5 -5.5t-3.5 -5.5q5 0 11.5 -2.5t6.5 -5.5q0 -4 -3.5 -8t-3.5 -9q0 -12 13 -12q1 0 3 0.5t4 0.5l-13 -7q0 -13 5 -13q2 0 7 2t8 2z
M115 39q0 -12 21 -12q8 0 12 28.5t4 48.5q0 22 -9 22q-11 0 -19.5 -10t-8.5 -21t5 -13q-7 -3 -11 -24q6 0 19 12.5t15 12.5q2 -1 3 -1q-2 -9 -16.5 -21t-14.5 -22zM134 145q-12 0 -15.5 -3t-3.5 -14q1 -7 1 -8q19 10 30 24h-6zM146 182q-10 0 -18.5 -9t-8.5 -20q17 0 23 5.5
t10 23.5h-6zM116 182q0 -7 4 -7q21 11 21 25q-1 5 -1 6q-24 -11 -24 -24zM368 206v-8q21 0 25 8h-25zM146 236q-20 -7 -20 -19q13 0 20 19zM350 224q28 -7 51 -7q0 9 -5.5 14t-11 5.5t-17.5 0.5q-18 0 -18 -9l1 -2v-2zM109 255q0 -16 7 -25q18 18 18 28q0 11 -14 11
q-11 0 -11 -14zM331 249v-5h12v5h-12zM311 288q0 -12 4.5 -17t17.5 -5q0 8 -7 15t-15 7zM343 319q-25 0 -25 -21q33 8 38 20h-6q-6 1 -7 1zM114 332l2 -28l5 9zM170 311q4 -7 10 -7q9 0 9 7h-19zM295 318l-80 -3q0 -3 17 -5t35 -3.5t20 -2.5q8 4 8 14zM164 360q9 -14 46 -14
q53 0 77 8q12 2 32.5 4t30.5 3.5t24.5 6t21 11.5t11.5 20t5 32q0 52 -25 108q-23 15 -55 22.5t-53 8.5t-59 1q-41 0 -53 -10q-5 -4 -8 -10q6 -49 6 -124q0 -17 -0.5 -40.5t-0.5 -26.5zM423 360q-6 0 -12 -6h20q0 1 -3 3.5t-5 2.5zM455 387q-21 0 -21 -17q21 0 21 17z
M439 448q0 -38 24 -38q23 0 23 79h-16q0 1 -2 3.5t-2 3.5q12 5 13 6q-15 9 -53 9q0 -14 14 -35.5t26 -29.5q0 -6 -5 -6q-4 0 -10.5 4t-11.5 4zM127 539q-9 1 -13.5 -5t-4.5 -15q0 -10 4.5 -25.5t8.5 -26.5t4 -13q11 13 11 30zM455 521l30 -7l1 2v2q0 21 -21 59.5t-42 41.5
q-25 5 -30 7q-9 -9 -9 -43v-8q8 0 19.5 3t18.5 3q0 -1 0.5 -2t0.5 -2t-7.5 -9t-10.5 -10l6 -7l55 -12q1 -2 1 -3q0 -11 -12 -11v-4zM418 545q-5 0 -5 -6t5 -6q4 0 4 6t-4 6zM314 632q0 -43 42 -43q3 5 5 14.5t7 15.5l6 -6q3 1 4.5 3t1.5 4l1 2q0 10 -7 10h-60zM177 619
q7 -18 46 -18q28 0 28 6l-12 25h-50zM251 632q2 -2 12 -16.5t16 -14.5q5 0 14.5 3.5t15.5 3.5q0 29 -9 29zM120 626q28 -20 42 -20h4l4 1l-18 19l7 6q-26 6 -41 6q-14 0 -22 -6q11 -14 16 -14q8 0 8 8z" />
    <glyph glyph-name="S" unicode="S" horiz-adv-x="560" 
d="M120 -5q-2 2 -4 2t-5 -1t-4 -1q-26 0 -45.5 18.5t-28.5 42.5q16 0 24 17t11.5 34t7.5 17l86 -50q9 2 18 2q12 0 13 -6q1 0 9.5 0.5t14.5 0.5q17 0 26 -4t12 -4q24 0 50.5 4t55.5 13.5t48 29.5t19 48q0 22 -13 49t-31 34l-271 118q-74 32 -74 133q0 11 2 20.5t8 21.5t9 17
t12.5 20t10.5 16q55 75 209 75q6 0 24 -3.5t46 -3.5q89 -14 93 -18l18 -19v-74q0 -5 -9 -18.5t-13 -13.5q-16 7 -55.5 27.5t-70.5 32t-59 11.5q-55 0 -99.5 -23.5t-44.5 -74.5q0 -23 32.5 -53t52.5 -30h8l5 1q23 -7 46.5 -23.5t48 -27.5t59.5 -11q54 -11 101.5 -54t47.5 -94
q0 -17 -8 -41t-10 -34q-17 -61 -26 -74q-16 -22 -74 -31q-1 0 -3.5 -2.5t-2.5 -3.5q-68 -26 -123 -26q-86 0 -154 14zM248 44q-21 0 -27 -6.5t-6 -24.5h52q3 0 6 7q0 24 -25 24zM279 38q0 -11 10 -18.5t21 -7.5q17 0 19 8q27 4 40.5 6.5t39.5 10.5t39.5 22.5t15.5 34.5
q-7 6 -19 6q-3 0 -16 -25.5t-29 -25.5l-6 3q-6 4 -10 4q-13 0 -37.5 -3.5t-33.5 -3.5q-18 0 -21 1q-11 -6 -13 -12zM157 26q18 -7 25 -7q11 0 18 10t7 22q-50 0 -50 -25zM87 42q0 -17 20 -17q19 0 19 23v1l-1 1q-3 -1 -25 -12l-2 1q-2 1 -3 1v4l7 4q8 3 14.5 7t8.5 8
q-2 7 -17 7q-10 0 -15.5 -10t-5.5 -18zM157 56q-27 0 -27 -30h14l-6 5q19 13 19 25zM311 31q2 1 3 1q2 0 8 -6h-11v5zM464 124q-14 -2 -14 -15q35 0 35 48q-7 0 -17 -5.5t-10 -11.5t6 -16zM458 183q0 -10 14 -10q13 0 19 6t6.5 11.5t0.5 22.5q-10 0 -25 -10.5t-15 -19.5z
M464 217q-14 -2 -14 -16q9 0 19 6.5t15 12.5t5 8q0 20 -25 20q-3 0 -16.5 -4.5t-13.5 -7.5v-7zM431 273q-18 0 -18 -12h43q0 12 -25 12zM360 297q22 -27 43 -27v9h-6q6 3 6 10q0 15 -22 15q-20 0 -21 -7zM340 310l8 -7l5 7h-13zM279 334q13 -13 26 -13q1 0 3 0.5t3 0.5
q-26 12 -32 12zM217 366q0 -3 0.5 -5t1.5 -3.5t2.5 -3t3 -2t4 -1t4.5 -1t4.5 -0.5h4.5h5h4q0 16 -34 16zM174 371q3 -3 12.5 -7.5t13.5 -4.5q2 0 7 4.5t5 7.5l-7 6zM153 397q-3 0 -9 -12h27q0 5 -6 8.5t-12 3.5zM112 399l-1 -1q0 -1 2.5 -2.5t6 -3t5.5 -3.5q15 0 15 20
q-9 0 -18.5 -3t-9.5 -7zM110 428q-6 0 -10 -14h3q3 -1 4 -1q10 0 13 7q-5 8 -10 8zM81 433v-6h14v6h-14zM95 457l-19 -11l5 -1q15 0 15 10zM68 477q0 -20 11 -20t11 20h-22zM69 513q0 -20 12 -20q15 0 15 20h-27zM100 534q-22 0 -24 -9h24v9zM125 581q-12 -4 -21.5 -15.5
t-9.5 -23.5q14 0 22.5 11t8.5 28zM421 575q0 -14 19 -19l13 49q0 8 -68.5 20t-98.5 12q-1 0 -4 -4t-3 -6q0 -10 15 -10q21 0 22 8q5 -21 24 -21q12 0 13 8l19 -18l19 18v-20l5 2q4 1 11.5 4.5t13.5 6.5q1 0 3.5 -0.5t3.5 -0.5q0 -5 -3.5 -15t-3.5 -14zM412 594
q-3 -1 -6.5 -4.5t-3.5 -6.5q1 -1 1 -2l12 13h-3zM189 619q-13 0 -32 -7.5t-19 -16.5q0 -2 8 -2q10 0 26.5 8.5t16.5 17.5zM236 625q7 -7 12 -7q6 0 14 3.5t8 8.5q-16 0 -34 -5z" />
    <glyph glyph-name="T" unicode="T" horiz-adv-x="540" 
d="M205 11l3 512v37q0 15 -88 15q-6 0 -20 -0.5t-21 -0.5q-66 0 -66 11t10 28.5t10 32.5l1 2l3.5 3.5t5 3.5t8 3t12.5 2t18 1v-9q59 0 177.5 -3.5t178.5 -3.5q39 0 59 1q12 -4 12 -28q0 -30 -6 -39q-7 -1 -40.5 -4t-40.5 -3q-20 -1 -55 -9t-56 -9q-7 -26 -7 -78
q0 -46 4 -135t4 -135q0 -48 -3 -98.5t-3 -78.5q0 -2 -0.5 -7.5t-1 -8t-1.5 -6.5t-2.5 -6t-4 -4.5t-7 -3.5t-9.5 -1q-4 0 -11 3.5t-11 3.5l-5 -1q-5 -2 -12 -3.5t-10 -1.5q-4 0 -14.5 8t-10.5 10zM266 48q-15 -15 -18 -24q19 4 19 17q0 1 -1 4v3zM230 41q5 -5 10 -5
q6 0 21 26t15 36h-10v17l-30 -11zM262 85v-5h-8zM224 137q0 -4 6.5 -10.5t8.5 -6.5q0 13 16 27t18 25h-3q-10 0 -28 -10.5t-18 -24.5zM276 154q-7 -3 -15 -11t-8 -16q13 0 18.5 5.5t7.5 20.5q-2 1 -3 1zM273 215l-31 -43l37 18q1 5 1 8q0 15 -7 17zM242 203q-6 -3 -6 -13
q2 0 3.5 2t2.5 4l1 3zM236 228v-13q21 7 30 16t9 27q0 15 -2 19zM229 264q0 -10 7 -12q30 27 37 43q-16 0 -30 -8.5t-14 -22.5zM266 344q-24 -16 -24 -44q32 0 32 19q0 13 -8 25zM229 344q0 -17 7 -18q18 16 30 37l-4 6q-33 0 -33 -25zM262 412l-14 -25h14v25zM254 430
q-18 -1 -18 -36q19 16 19 30zM266 487q-17 -40 -18 -43l6 -2q13 0 13 24l-1 4v9v8zM279 572q-1 -3 -6.5 -21t-6.5 -21q-1 -5 -6.5 -13.5t-5.5 -11.5q6 2 10.5 5t7 8.5t4.5 9t2.5 11t0.5 10.5v12v11zM248 548q0 -3 -5 -14t-7 -17q8 0 19.5 14t11.5 27q0 2 -4.5 5t-8.5 3
q0 14 3 24.5t6 15.5l3 5v-22q11 0 25 12t14 24q-63 0 -63 -38q0 -14 3 -24t3 -15zM205 611q2 -8 13 -8q13 0 18.5 3.5t11.5 15.5q-1 0 -7.5 1t-8.5 1q-22 0 -27 -13zM316 615v-12h6v12h-6zM335 622v-19h43q1 0 4 4t3 6q0 10 -25 10q-2 0 -11 -0.5t-14 -0.5zM63 635v-29
q51 0 62 16q-4 0 -31.5 6.5t-30.5 6.5zM174 628q-25 0 -49 -17q6 0 18 -0.5t19 -0.5q32 0 32 9t-20 9zM397 615l5 -4h72q0 11 -29 11q-47 -7 -48 -7z" />
    <glyph glyph-name="U" unicode="U" horiz-adv-x="667" 
d="M348 5q-7 0 -19.5 -0.5t-17.5 -0.5q-67 0 -101 11t-72 55q-43 49 -57 93l-1 11q-1 10 -3.5 20t-7.5 12q1 0 7 6q0 70 -9.5 214t-9.5 214q0 18 54 18q38 0 38 -18q-18 -55 -18 -174q0 -42 12 -56q0 -4 0.5 -22t0.5 -21q0 -26 -3 -44t-3 -24q0 -15 9.5 -47t9.5 -47
q0 -8 -1 -11l56 -74q3 -3 17 -9.5t19 -14.5q22 0 75 -10.5t77 -10.5q23 0 34.5 3.5t18.5 17.5q43 52 55.5 100.5t12.5 123.5q0 48 -4 133t-4 129q0 70 26 70q9 -8 61 -8l6 -6q0 -20 3 -56t3 -54q-3 -66 -6 -93q7 -13 7 -35q0 -8 -3.5 -22t-3.5 -23t3 -25t3 -25
q-9 -161 -37 -217q-4 -8 -10.5 -19t-13 -20t-6.5 -10q-9 5 -19 -5q-8 -11 -20 -12t-18 -13q-84 -14 -98 -14q-7 0 -13 4t-12 4q-10 0 -17 -7v9zM212 45q27 -24 108 -24q12 0 25 3.5t20 3.5q11 0 33.5 -4t34.5 -4q18 0 41 11t33 14q-2 3 -19.5 11t-26.5 8q-5 0 -35 -11
t-35 -14q0 1 1 3q0 4 -4 7.5t-7 3.5q-5 0 -13 -4t-15 -4l6 8h-6q-3 0 -23 -7.5t-25 -11.5q0 19 -11 19q-5 0 -16 -3t-17 -3v19q-13 0 -31.5 -4.5t-18.5 -12.5q1 -3 1 -4zM118 144q0 -13 23 -46.5t48 -33.5q7 0 15.5 4.5t8.5 11.5q0 9 -15 9q-4 0 -10 -1l-7 -1v30h-32
q11 0 18 8t7 19h-12q-3 12 -15.5 25t-15.5 19q-3 5 -3.5 14t-4.5 13t-17 4t-13 -13q0 -7 6.5 -19.5t6.5 -23.5q2 0 18.5 -3t18.5 -3zM481 73q18 0 27.5 -5t17.5 -5q7 0 13.5 5t6.5 12q0 8 -17 12t-28 4q-4 0 -12 -9t-8 -14zM507 108q9 0 21.5 -3.5t20.5 -3.5t12.5 8.5
t4.5 16.5h-53q0 -9 7 -13zM526 144l43 -5q3 0 7.5 8t4.5 16l-8 1q-3 0 -25 -5.5t-22 -7.5v-7zM550 169q0 3 -9 3q-10 0 -10 -3q3 -3 10 -3t9 3zM581 225q-45 -30 -45 -44h45v44zM569 240h-34l1 -8q1 -7 3 -13.5t6 -6.5q28 0 49 75q-12 6 -32 6q-18 0 -18 -14q17 0 25 8l1 -4
h1q0 -2 -9.5 -12.5t-16.5 -15.5q2 -4 24 -15zM93 266q0 -20 7 -29t26 -9q0 6 -4 17t-4 17q0 10 3.5 29t3.5 28q0 10 -3.5 18t-3.5 16q0 19 6 69l-36 -38q0 -12 18 -17q-12 -5 -15 -11t-3 -22q0 -11 7 -11q3 0 5 1q-2 -2 -3 -4t-1.5 -4.5t-1 -4t-0.5 -2.5l-1 -1q0 -8 13 -15
q-13 -5 -13 -27zM544 314q0 -9 19 -9q9 0 13.5 0.5t8.5 5t4 12.5q0 19 -11 19l-8 -4q-9 -4 -17.5 -11t-8.5 -13zM544 354q0 -13 9 -13q3 0 19 12.5t16 13.5v61q-44 -31 -44 -39q0 -5 8.5 -12t8.5 -12h-5h-5t-3.5 -1t-3 -3.5t-0.5 -6.5zM100 441q0 -3 -3.5 -10t-3.5 -12
q0 -1 1 -5v-4q24 18 24 43q0 5 -5 18.5t-10 13.5q-3 0 -9 -10t-6 -16q0 -1 6 -9t6 -9zM584 447h-4.5h-5h-5t-5.5 -0.5t-4.5 -1.5t-4 -2t-3.5 -2.5t-2.5 -4t-0.5 -5.5q0 -8 1 -9q34 15 34 25zM588 503q-20 -17 -31 -37h7l5 -1q13 0 16.5 4t3.5 18q0 1 -0.5 7.5t-0.5 8.5z
M573 527q0 -10 -17.5 -16.5t-17.5 -27.5q17 0 36.5 23t19.5 40l-6 67q0 5 -31 13l12 6q-5 1 -6 1q-14 0 -14 -10q0 -3 14 -10q-22 -13 -22 -28q40 0 40 -9l-13 -20q-12 -21 -12 -29h17zM88 576v-73q0 -3 3.5 -5.5t5.5 -2.5q21 19 21 54q0 9 -5 9v61q0 2 -4.5 5.5t-9.5 5.5
l-5 2q-14 0 -14 -20q0 -23 1 -23l13 -6zM557 570q-9 0 -11 -3.5t-2 -11.5t1 -9l18 18q0 1 -2.5 3.5t-3.5 2.5z" />
    <glyph glyph-name="V" unicode="V" horiz-adv-x="630" 
d="M13 620q-8 3 -8 13q0 6 6.5 12.5t13.5 6.5h67q6 0 6 -15q0 -10 2.5 -21.5t4.5 -19.5t8 -22.5t8.5 -20t10.5 -21t9 -17.5q5 -10 40.5 -116.5t72 -198.5t52.5 -92q4 0 34.5 77.5t30.5 85.5q0 1 -0.5 2t-0.5 2q17 50 61.5 175t67.5 194q5 14 49 14h7h8h7.5t7.5 -0.5t6.5 -1
t6 -1.5t4.5 -2.5t3 -3.5t1 -5q-43 -142 -75 -209q1 0 3.5 -2.5t2.5 -4.5q0 -13 -16 -51.5t-16 -56.5q0 -6 1 -9q-8 -16 -28.5 -69t-38.5 -79q-6 -9 -14 -38.5t-16 -52.5t-15 -23q0 -29 -17.5 -40.5t-36 -13t-19.5 -4.5h-46q0 7 -15.5 12.5t-18.5 11.5q-5 22 -14 47t-15.5 39
t-23 46.5t-20.5 40.5q-19 38 -37.5 120t-36.5 120q-7 7 -12.5 16.5t-10.5 22.5t-8 21t-7.5 25t-5.5 21q-2 7 -15.5 44.5t-14.5 41.5zM264 31q0 -9 10 -9q15 0 47 43q-4 -3 -12.5 -7t-15.5 -7.5t-14 -7.5t-11 -7t-4 -5zM352 35l-25 -8h25v8zM321 53v-8q11 0 27.5 14t16.5 25
l-2 2q-2 0 -7 -5t-14.5 -13.5t-20.5 -14.5zM216 132q4 -9 11.5 -24t13 -25t5.5 -11q0 -19 15 -19q21 0 28 6q-20 11 -43 73h-30zM364 65l-12 -12q3 0 8 3t5 5q0 1 -0.5 2t-0.5 2zM376 114q-9 0 -14.5 -7t-5.5 -16q21 0 26 22q-4 1 -6 1zM358 139v-19l24 12v7h-24zM196 173
q0 -30 45 -30q0 12 -6 25.5t-15 13.5q-24 0 -24 -9zM407 170l-37 -13q4 0 11 -0.5t10 -0.5q16 0 16 14zM370 175v-7q5 0 12 7h-12zM382 194v-10q51 0 51 34q0 1 -1 4v4zM170 250q0 -14 4.5 -26t4.5 -22v-8q3 6 10 6q6 0 17.5 -4t15.5 -4v34h-25q10 2 10 24h-37zM389 250
q-8 -7 -8 -20q0 -3 0.5 -9t0.5 -8q75 32 75 67l-1 3v4q-55 -24 -55 -28q0 -3 6.5 -8.5t12.5 -6.5q-24 0 -31 6zM166 272q0 -11 18 -11q3 0 9.5 0.5t10.5 0.5q-3 29 -13 43q-25 -19 -25 -33zM425 305q-9 0 -14.5 -8t-5.5 -19q16 0 51 21q-24 6 -31 6zM141 342q6 -8 10 -24.5
t10 -24.5q19 0 19 28q0 14 -4.5 18t-13.5 4q-1 0 -8 -0.5t-13 -0.5zM426 324q0 -8 14 -8q25 0 31 4.5t6 23.5q-28 0 -51 -20zM426 361q-6 -12 -6 -31h-7q50 21 50 24q-30 7 -37 7zM129 392q0 -16 8 -27.5t24 -11.5l5 1h7q-22 22 -22 38h-22zM445 373q0 -7 12 -7q17 0 23 4
t8 13.5t6 14.5q-3 0 -21.5 -9t-27.5 -16zM437 385q-4 0 -4 -6t4 -6q6 0 6 6t-6 6zM459 428q-6 0 -9.5 -7t-6.5 -16.5t-6 -12.5q12 0 31 7t26 18q-5 1 -13.5 3.5t-14.5 5.5zM130 428q-7 -7 -7 -24h26q0 11 -5 20t-10 14t-5 6l1 3q2 3 3 7t2 6l-18 36q-19 -14 -19 -28
q0 -4 3 -6.5t9 -5.5l7 -3q-2 0 -7 -4.5t-5 -6.5q0 -15 17 -15q6 0 8 1zM463 442q4 0 16.5 -7t16.5 -7q6 0 11.5 14t8.5 28l2 15q-31 -15 -55 -43zM488 503q-17 0 -17 -26q18 0 35 19q-11 7 -18 7zM73 503q1 -2 5 -6t7.5 -6.5t3.5 -1.5q20 0 20 22q-28 0 -36 -8zM494 515
q16 -7 25 -7t14 9t5 19v6l-1 4q-34 -22 -43 -31zM98 552q-25 -9 -25 -34h6q26 0 26 13q-2 12 -7 21zM526 626q0 -15 -14 -42.5t-14 -44.5q11 0 28 9t17 19q0 2 -13 10q3 7 13 7q1 0 3 -0.5t3 -0.5q15 30 15 43h-38zM43 620q0 -7 6 -25.5t12 -33.5l6 -15q5 0 13 5t8 11
q-9 13 -15 15q7 2 7 12q0 11 -7.5 22t-17.5 11t-12 -2z" />
    <glyph glyph-name="W" unicode="W" horiz-adv-x="918" 
d="M629 10q0 4 -5.5 10t-8.5 7l-31 99q1 2 1 6q0 12 -16.5 45t-16.5 47q0 5 1 7l-50 161q0 4 7 11l-12 7q0 1 -4 12.5t-8.5 24t-10 26.5t-10.5 22.5t-8 8.5q-6 0 -27 -101q-1 -4 -17.5 -63t-31 -106t-33.5 -105.5t-34.5 -92t-25.5 -33.5q-8 0 -29 4.5t-21 8.5l-4 -2
q-4 -2 -10.5 -4t-12.5 -2q-13 0 -35.5 58t-36.5 109l-30 112l1 2v3q0 11 -17 53t-17 59q0 1 0.5 3t0.5 3q-21 63 -36 117q-1 2 -16.5 46.5t-15.5 64.5t60 20q52 0 52 -14l-1 -6q0 -7 -1.5 -15t-5.5 -11l2 -2q2 -2 4 -6t2 -10q12 -68 45.5 -166.5t41.5 -128.5v-6l50 -154
q0 -2 1 -2q2 0 9 8.5t7 11.5l81 289v25q0 8 30 105q11 38 20 68q14 14 52 14q83 0 83 -14q0 -8 -9.5 -17t-9.5 -18q0 -20 20 -70t23 -61q56 -115 56 -161l37 -99q-1 -2 -1 -5q0 -11 9 -25.5t17 -18.5q21 34 43.5 157.5t41 228t31.5 107.5q7 0 16.5 -3t21.5 -3q9 0 22 6.5
t18 6.5q8 0 15 -11t7 -18q0 -4 -6.5 -17.5t-6.5 -14.5q-20 -82 -20 -145q0 -16 1 -22q-20 -64 -36 -124q-2 -5 -15.5 -54t-24.5 -86.5t-26 -83.5t-27.5 -72t-20.5 -26q-15 0 -44.5 7.5t-43.5 7.5zM232 53q6 -14 43 -14q13 8 13 31q-24 0 -56 -17zM639 69q0 -5 5 -18t11 -13
q2 0 3 1l36 31v8q-10 0 -28 -4.5t-27 -4.5zM720 73q-14 0 -23.5 -13.5t-9.5 -28.5q21 0 27 10.5t6 31.5zM232 83l-12 -19q5 -1 6 -1q22 0 67 25q51 139 69 191v14q-22 -7 -41.5 -83.5t-27.5 -89.5q-5 -8 -17.5 -20t-21.5 -12q-10 0 -16 10t-13 10q-30 0 -30 -9t13 -22
q6 0 24 6zM621 108q0 -17 5.5 -21.5t19.5 -4.5h6q5 1 6 1l-12 5q13 23 13 26q-19 0 -38 -6zM744 139q-4 -2 -12.5 -9.5t-19.5 -18t-18 -15.5q40 0 50 43zM214 157q-30 -18 -30 -45h11q14 0 19.5 5.5t5.5 26.5q0 12 -6 13zM646 157q-23 -13 -23 -32q29 0 29 16q0 15 -6 16z
M708 139q0 -7 5 -7q22 0 36 24t14 45q-45 -36 -45 -42q0 -2 5.5 -5t8.5 -3q-19 -3 -24 -12zM169 159v-5q0 -15 8 -15q10 0 21 11.5t11 20.5q0 1 -1 3v1l-38 -6q-1 0 -1 -10zM603 167q0 -23 12 -28q25 25 25 42q-3 -1 -12.5 -3.5t-17 -5t-7.5 -5.5zM153 225q4 -6 6.5 -19
t8 -19.5t18.5 -6.5q22 0 22 14q0 19 -13 24q-1 -5 -7 -11.5t-8 -6.5h-1q-1 1 -2 1q13 36 13 43q0 31 -11 31q-8 -5 -15.5 -13t-11 -13.5t-3.5 -7.5v-1h28zM596 190q0 -6 7 -9h4.5h5h4.5t4.5 0.5t4 1t3.5 2t2.5 3t2 3.5t0.5 5q0 20 -13 29q-25 -31 -25 -35zM725 218v-29
q16 0 38 29h-38zM577 225q0 -5 3.5 -12.5t6.5 -7.5q11 0 21.5 14t10.5 26q-42 0 -42 -20zM739 236q0 -6 15 -6q34 0 34 49q-13 -3 -31 -17t-18 -26zM615 276q-3 0 -5.5 -0.5t-5 -1.5t-4.5 -1.5t-4 -2.5t-3.5 -3t-4 -4t-3.5 -4t-4 -5t-4 -5q20 0 29 5t9 22zM121 342
q0 -41 24 -80q9 0 17.5 10t12.5 18.5t4 10.5h-40v10h31v27q-5 0 -11.5 -6.5t-10.5 -6.5q0 8 5.5 21t5.5 21l-1 5q0 1 -4 12.5t-7 19t-5 7.5q-10 0 -27 -39l-2 -8h32q-1 -1 -7 -3.5t-8.5 -4.5t-5.5 -5.5t-3 -8.5zM577 287q-13 -11 -13 -21q12 0 18.5 10t20.5 11l-14 43
q-12 0 -30 -31q6 -7 18 -12zM765 287q-13 0 -21 -19l3 -1q5 0 11.5 7t6.5 13zM382 355q-33 0 -33 -56q18 10 25.5 22t7.5 34zM756 305q0 -1 3 -3.5t4 -2.5q27 0 38.5 13t11.5 42q-19 -8 -57 -49zM540 338h-1q-1 0 5.5 -6.5l14.5 -14.5q19 11 19 24q0 11 -6 13q5 5 5 10
q0 6 -4 13.5t-11 7.5q-5 0 -13.5 -9.5t-8.5 -11.5q0 -1 3.5 -7t3.5 -9l-3 -3t-3 -3.5t-1 -3.5zM799 367q-22 0 -29 -6.5t-7 -30.5q6 7 21 18t22 19h-7zM361 370q0 -7 7 -10q23 18 30 43q-25 0 -25 -11t7 -13q-4 0 -11.5 -3.5t-7.5 -5.5zM831 435q-4 -3 -15 -11.5
t-17.5 -13.5t-14.5 -12t-12 -12.5t-4 -8.5q36 0 49.5 10t13.5 48zM528 392q0 -3 5 -5.5t8 -2.5q17 17 18 19q-4 2 -12 2q-19 0 -19 -13zM102 406l-1 -1q0 -1 1.5 -3t3.5 -5t3 -5q30 21 30 46q0 8 -12 28q-7 10 -13 50.5t-18 71.5t-37 31v7q-14 0 -25 -7q7 -9 15.5 -33.5
t9.5 -27.5q7 -12 12 -43h1q1 0 4 1l6 2t7 3.5t7 5.5q-1 -1 -12 -11.5t-13 -12.5v-3q0 -11 7.5 -29t17.5 -18q2 0 9 3t10 3q-13 -7 -13 -21q0 -11 14 -11q3 0 5 1q-19 -15 -19 -22zM418 468q-19 0 -32 -19t-13 -39q33 0 33 18l-13 7q4 -2 6 -2q19 0 19 35zM550 447
q-8 0 -15.5 -11.5t-7.5 -19.5h33l-1 6q-1 7 -3 14.5t-6 10.5zM806 447q-18 0 -27.5 -10.5t-9.5 -22.5q11 0 20 5t19.5 14.5t15.5 12.5q-1 0 -8.5 0.5t-9.5 0.5zM510 453q3 -8 12 -8q8 0 14 8.5t6 17.5q0 15 -14 37q-26 -26 -26 -27q0 -11 18 -11q12 0 14 1q-17 -9 -24 -18z
M781 466q6 -4 12 -7q28 0 39.5 11t11.5 38h-7zM406 491q-12 0 -16 -3.5t-4 -16.5q31 0 31 16q0 4 -11 4zM831 515h-43q-5 0 -9.5 -9.5t-4.5 -15.5v-3l1 -3q13 5 33 16.5t23 14.5zM492 503q0 -7 6 -7q3 0 9.5 4.5t8.5 7.5h-3l-3 1q-10 0 -18 -6zM424 516q-15 0 -26 -13h26v13
zM417 540q-11 0 -19 -20q2 0 32 14q-3 6 -13 6zM479 527q0 -9 44 -9q0 23 -14.5 59.5t-32.5 36.5q-21 0 -35 -13l13 12q0 1 -5 3.5t-8 2.5q-20 0 -20 -43h15q-20 -16 -20 -26q19 0 25 14q2 -8 13 -16.5t19 -8.5q11 0 19 19q7 -7 7 -9t-7.5 -10.5t-12.5 -11.5zM849 576
q-3 -3 -18 -12t-23.5 -18t-8.5 -20q57 0 57 41q0 2 -2.5 5.5t-4.5 3.5zM840 589q-48 0 -48 -25v-6q1 -5 1 -7q39 24 50 38h-3zM806 608q0 -9 -7 -14q40 0 50 7v24q-20 0 -43 7q-7 -2 -7 -13q0 -6 3.5 -8t3.5 -3z" />
    <glyph glyph-name="X" unicode="X" horiz-adv-x="605" 
d="M259 262h-4q-11 -34 -44 -91.5t-41 -57.5q-44 -111 -74 -111q-28 0 -61.5 7t-33.5 22q0 10 15 25.5t18 20.5q9 15 50 72.5t74 110t36 76.5q0 11 -11.5 29.5t-29 40.5t-21.5 29q-1 3 -30 49q3 8 -43.5 78t-55.5 76q9 20 59 20q8 0 22 -0.5t18 -0.5q36 -82 86 -123v-16
q7 0 13 -9t12 -9v-10q3 -2 29 -35.5t30 -34.5q2 0 12.5 13t14.5 20q2 3 12 26.5t26 28.5q13 12 59 81t57 73q25 7 60 7q27 0 27 -21q0 -8 -80 -128h-1q-1 1 -2 1q-8 0 -23 -24.5t-17 -25.5l-7 7q-4 -7 -10 -24t-14 -26q-3 -3 -23 -22t-29.5 -33t-9.5 -28q0 -23 27.5 -61
t52.5 -59l-5 -7q23 -3 104 -135q8 -12 43 -62q0 -17 -4 -21.5t-15 -4.5q-37 0 -61.5 10t-34.5 21.5t-27 38.5t-31 43l-32.5 32.5t-35.5 40.5q-6 9 -16 30.5t-18 36t-12 14.5zM460 71v-32q0 -6 21 -6q1 0 5 0.5t5 0.5l-4 8t-5.5 10t-6 9t-7.5 7.5t-8 2.5zM64 53q1 -8 15 -8
t27.5 15.5t13.5 32.5q0 1 -1 3.5t-2.5 6t-2.5 5.5q4 0 15.5 11t11.5 15q-18 0 -21 -8q0 1 -2.5 3.5t-3.5 2.5q-17 0 -25 -24l13 -7q-14 -3 -21.5 -15.5t-10.5 -22.5t-6 -10zM95 83l4 1q2 0 9 -7l-1 -1h-2q-3 0 -10 7zM89 96q4 0 4 -7q0 -6 -4 -6t-4 6q0 7 4 7zM417 126v-6
h17q-6 6 -17 6zM194 255q-4 0 -12 -11q-64 -96 -64 -100h33q-5 2 -5 12v7q0 -3 4 -4.5t8 -1.5h5q3 0 8 2.5t5 3.5v38q0 -3 2 -5t4 -2l3 -1q16 17 34.5 50.5t18.5 56.5q0 11 -19 11q-1 0 -10 -17.5t-9 -18.5q0 -5 3.5 -12.5t3.5 -13.5q-2 6 -13 6zM379 175q-7 -3 -7 -14
q9 0 14 8zM349 236q-8 -8 -8 -18l1 -3q0 -3 1 -3q10 0 12 6q0 12 -6 18zM304 258q5 -10 11 -10q2 0 5.5 3t3.5 4t-6 13q-5 0 -9.5 -3.5t-4.5 -6.5zM286 279l13 -11q8 2 8 20q-17 0 -21 -9zM290 324q-9 0 -22 -11t-13 -20h6q34 0 38 12q-2 19 -9 19zM283 337q-1 0 -7 -3.5
t-13 -8.5t-8 -8h4q4 0 15.5 7.5t11.5 11.5q-2 1 -3 1zM226 348q0 -18 -7 -24q10 0 28 19.5t18 29.5q-22 0 -28 -6l14 12l-20 37h-12l6 14q0 7 -18 26t-19 22q0 1 -1 11t-4 18t-8 8q-1 0 -7.5 -2t-7.5 -2q0 4 -0.5 6.5t-2.5 5t-3.5 3.5t-5 2.5t-5.5 2t-7.5 1.5t-8.5 2
q19 4 19 15q0 8 -12.5 11t-13.5 4q-12 11 -17.5 30.5t-14.5 29.5t-36 10q0 -16 19 -39.5t19 -39.5q11 0 16.5 -9.5t6 -20.5t4.5 -20.5t13 -9.5q17 9 21 13q-15 -20 -15 -37h34q-20 -6 -20 -18q0 -7 9 -16t23 -9q5 0 12 7q0 -7 -6 -19l13 -6q-2 0 -5 -4.5t-3 -5.5
q0 -2 16.5 -20t16.5 -32zM355 478q8 -7 19 -7t17 13q0 1 -2 3.5t-3 2.5q-27 0 -31 -12zM431 534q-9 0 -14 -7q4 -1 6 -1q9 0 11 8h-3zM485 639q-18 0 -32 -10t-14 -28q11 0 34.5 14t29.5 23q-2 0 -9.5 0.5t-8.5 0.5z" />
    <glyph glyph-name="Y" unicode="Y" horiz-adv-x="578" 
d="M294 -5q-7 0 -17.5 3t-22.5 3q-46 0 -46 25v209q-13 13 -13 17q0 6 7 21.5t7 26.5q0 21 -5 32t-21 26t-24 25q-13 16 -34 48.5t-21 40.5q-10 0 -16.5 8t-12 21.5t-9.5 18.5q-7 9 -24.5 26t-18.5 17h-33q0 7 10.5 11.5t10.5 9.5q0 10 -10 24.5t-10 22.5q0 5 31 11.5
t48 6.5q8 0 45.5 -60.5t83.5 -120.5t73 -60q12 0 41 45.5t60 99t45 65.5q4 -3 8 -11t13 -8q19 0 27 19q-3 6 -14.5 12.5t-11.5 18.5h83q6 0 6 -16q0 -5 -17 -14t-20 -13q-102 -154 -117 -191q-7 -11 -24.5 -31.5t-27.5 -38.5t-10 -39q0 -3 5 -8l-5 -7v-203q-8 -19 -8 -51
q0 -19 2 -35q-7 -7 -13 -7zM244 82v-19l20 19h-20zM288 124q-12 -2 -18 -12q19 0 19 10zM260 137q-16 0 -16 -13q16 3 16 13zM261 199q-15 0 -20.5 -6t-5.5 -22q26 0 35 27h-5zM291 300q-9 0 -12.5 -7.5t-4 -18t-6 -23.5t-17.5 -21h32q8 8 8 70zM213 390q0 -11 7 -12
q7 1 7 12h-14zM340 423q-10 0 -19 -11.5t-9 -21.5h6q2 0 20 25zM198 423q-9 0 -9 -15q1 -5 1 -6q5 0 12 3.5t7 5.5q0 3 -3.5 7.5t-7.5 4.5zM121 483q4 -5 19.5 -17t25 -23.5t9.5 -23.5q15 0 15 14q0 5 -7 14t-7 14q0 3 1 4q-35 25 -42 55h-10q2 3 2 5q0 1 -4.5 4t-6.5 3
q-3 0 -6 -4.5t-5 -9.5l-2 -4q0 -9 10.5 -14.5t10.5 -9.5q0 -2 -3 -7zM344 446v-15q4 0 16.5 20t27.5 45.5t18 29.5q14 23 25 37q-16 0 -23.5 -7t-12 -22t-7.5 -20q-27 -46 -44 -68zM97 542l-6 -16q2 -1 3 -1q4 0 13 9t14 10q-3 7 -12 13t-12 6q-6 -8 -19 -21h19zM53 569
q13 -13 17 -13q10 0 21 25h-7q-25 0 -31 -12zM48 600l-7 -11q1 0 5 -0.5t5 -0.5q28 0 28 8q0 22 -44 22q-4 0 -19 -5l-1 -3q0 -18 13 -18q11 0 20 8z" />
    <glyph glyph-name="Z" unicode="Z" horiz-adv-x="542" 
d="M24 15q0 9 16.5 33t38 51.5t26.5 37.5q30 54 103 170t107 182q25 47 25 73q0 36 -56 36q-44 0 -113.5 -4.5t-105.5 -4.5q-10 0 -10 4v49q0 2 4.5 4.5t7.5 2.5q9 0 28.5 -4t35.5 -4q34 0 53 8l260 -1l40 9q6 0 14 -20l1 -3l-1 -3q-14 -14 -26.5 -29t-25.5 -34.5l-20 -30
t-23 -37.5t-21 -35q-6 -9 -15 -30.5t-18.5 -38t-22.5 -24.5l-68 -124q-8 0 -53.5 -70.5t-45.5 -80.5q0 -17 103 -17q36 0 88 2q6 -7 44 -7q3 0 6 7h74q14 0 14 -42q0 -45 -21 -45q-23 0 -66 6t-62 6q-24 0 -72.5 -3t-89.5 -3q-7 0 -20 0.5t-23 0.5h-11l-7 5h-55q-1 -4 -8 -8
t-10 -4q-6 0 -12.5 6.5t-6.5 13.5zM151 51q-21 0 -46 -18q50 0 62 17q-2 0 -8.5 0.5t-7.5 0.5zM189 51q-22 0 -30 -18q4 1 16.5 2t23.5 3t16 6q-6 7 -26 7zM339 50h-105q-5 0 -9.5 -7t-4.5 -12q106 0 119 19zM401 51q-2 0 -10 0.5t-13 0.5q-31 0 -33 -13h49q7 0 7 12z
M425 47q-17 0 -18 -8h18v8zM107 57q-24 0 -24 -13q11 0 33 6q0 7 -9 7zM98 82l7 -6l18 17l-7 7zM129 119l-6 -7h6v7zM145 144q-3 0 -6.5 -4t-3.5 -9l13 12zM167 169q-15 0 -15 -14h15v14zM181 206q-10 0 -10 -13q0 -1 1 -4v-3q6 4 12 20h-3zM205 231q-15 0 -15 -11
q1 -2 1 -3q14 2 14 14zM203 255v-13q16 4 67.5 81.5t51.5 93.5q-15 0 -88 -119q-20 -32 -31 -43zM340 448q-21 0 -21 -15q0 -1 1 -4v-3q20 9 20 22zM358 490q-10 0 -15.5 -11t-5.5 -24q14 0 17.5 16t8.5 18zM378 514q-16 0 -16 -16q18 0 18 11q0 3 -2 5zM396 544
q-31 0 -31 -20q10 0 20.5 5.5t10.5 14.5zM412 589l-24 -26q1 0 5 -1h4q16 0 16 16l-1 5v6zM400 606q7 -4 7 -13l24 13v7l-11 -7l5 12l-5 1q-14 0 -20 -13zM332 618q3 0 19 -2t19 -3q16 0 24 5q-1 7 -11 7q-18 0 -51 -7z" />
    <glyph glyph-name="bracketleft" unicode="[" horiz-adv-x="340" 
d="M223 -25h-141l-10 5q-1 1 -2 20.5t-2.5 45.5t-1.5 41q-5 192 -5 257q0 31 8 92.5t8 93.5q0 2 -5.5 14t-5.5 16l6 18q-27 22 -27 40h21v43q33 0 97 4.5t96 4.5v-7h29q0 -8 3.5 -11.5t3.5 -4.5q-1 0 -4 -7t-5 -18.5t-2 -19.5h-134v-105q-14 -230 -14 -379q0 -67 14 -67
t69 -5q15 -1 25.5 -8t14.5 -7l5 10q25 -20 25 -51q0 -20 -37 -20q-18 0 -29 5zM229 0q8 -4 14 -4t6 9t-6 10zM97 10v-10h6q0 8 -6 10zM159 17q-17 0 -26 -17q1 -1 9 -1q17 0 17 18zM224 13q0 1 -2 4l-3 3h-35q-2 0 -4 -3t-3 -6.5t-3 -6.5l-1 -4l5 -1q8 0 25 11v-11
q6 0 13.5 4.5t7.5 9.5zM106 190q0 -7 6 -7v14q-6 0 -6 -7zM100 238q0 -7 12 -19v19h-12zM86 281q0 -20 12 -20q0 20 -12 20zM106 345q0 -14 12 -21q4 4 4 14q0 7 -16 7zM92 375q-6 -5 -6 -10h12q0 6 -6 10zM97 441q7 -12 25 -21v6l1 4q0 15 -9 15t-17 -4zM111 497
q0 -7 5.5 -12.5t10.5 -5.5v18h-16zM102 552q8 -15 20 -26v26h-20zM102 592q8 -12 20 -12v47q0 -23 -20 -35zM229 633v-6h35v6h-35z" />
    <glyph glyph-name="backslash" unicode="\" horiz-adv-x="538" 
d="M334 51q7 0 20 -2.5t21 -2.5q0 18 -15 30l-16 -16v8q-8 3 -15 3q-9 0 -10 -6l11 -40h-16q-4 0 -25 55q-20 43 -43.5 86.5t-56 100.5t-46.5 82q-1 0 -3 2.5t-3 2.5l-96 191q-11 10 -11 31q0 8 2 10l9 5q-15 6 -15 10l3 5q3 5 3 6t-2.5 3t-3.5 2q26 10 55 10q6 0 10 -6
l82 -146l5 -5q30 -49 85.5 -167t101.5 -182q0 -6 2.5 -11.5t4.5 -5.5t4 2q4 -9 22 -40t18 -41q-2 -11 -17 -11q-65 0 -65 37zM305 117q0 -13 7 -25.5t22 -12.5q21 0 21 11q0 1 -31 51q-5 0 -12 -7t-7 -17zM300 151q-14 0 -14 -16q13 0 18.5 6t5.5 21l-7 10q-7 10 -11 10
q-2 0 -8 -7.5t-6 -10.5q0 -9 22 -13zM279 197q-13 -8 -13 -22q18 0 18 24t-12 24q1 0 1 -1t-8 -7.5t-8 -9.5q0 -10 13 -10q5 0 9 2zM248 225v-3l3 -2q3 -3 4 -3q10 10 10 16q-17 0 -17 -8zM233 249q0 -13 13 -13q14 0 14 9l-1 2l-26 56q-2 1 -3 1q-13 0 -27 -16
q4 -11 25 -11l-9 -10q3 -5 6 -5q2 0 5 5t4 5l3 -2q0 -3 -2 -9.5t-2 -11.5zM193 310v-12q9 0 19.5 5t10.5 12q0 9 -5.5 21.5t-9.5 12.5l-20 -11l10 11h-32q0 -6 8 -15t9 -16l36 -8h-26zM158 368q6 -11 29 -11q4 0 11 0.5t10 0.5q-6 24 -17 37q-6 0 -17 -9.5t-16 -17.5z
M137 404l10 -26h3q6 0 18 10t12 16h-43zM118 440q0 -28 61 -28q0 11 -8.5 23.5t-17.5 13.5l5 6q1 0 -8 15t-19.5 30t-12.5 15q-4 0 -8.5 -3.5t-7 -7t-4.5 -7.5l-2 -4h22q-12 -9 -16 -13q2 -5 6 -5q9 0 14 5q-1 -2 -3.5 -6t-4.5 -8l-3 -4q0 -13 32 -13q-3 0 -6.5 -0.5t-7 -2
t-6 -2.5t-4 -2t-1.5 -2zM87 515v-6q8 0 16.5 7t8.5 14q0 15 -15 26q-19 -12 -20 -28h30zM66 556q0 -9 5 -11l20 21q-25 0 -25 -10zM50 601q0 -11 12 -30q5 0 13 2.5t8 4.5q0 23 -33 23z" />
    <glyph glyph-name="bracketright" unicode="]" horiz-adv-x="340" 
d="M59 627v6h-35v-6h35zM186 592q-20 12 -20 35v-47q12 0 20 12zM186 552h-20v-26q12 11 20 26zM177 497h-16v-18q5 0 10.5 5.5t5.5 12.5zM191 441q-8 4 -17 4t-9 -12q0 -1 0.5 -5t0.5 -8q18 9 25 21zM196 405v10l-3 1q-1 0 -12 -11h15zM196 375q-6 -4 -6 -10h12q0 5 -6 10z
M182 345q-16 0 -16 -7q0 -10 4 -14q12 7 12 21zM202 281q-12 0 -12 -20q12 0 12 20zM188 238h-12v-19q12 12 12 19zM182 190q0 7 -6 7v-14q6 0 6 7zM64 13q0 -5 7.5 -9.5t13.5 -4.5v11q16 -11 25 -11q4 1 5 1l-1 4q-2 3 -3 6.5t-3 6.5t-4 3h-35l-3 -3q-2 -3 -2 -4zM129 17
q0 -18 17 -18q8 0 9 1q-9 17 -26 17zM191 0l7 77q-2 -1 -7.5 -36.5t-5.5 -40.5h6zM59 0l-14 15q-6 -1 -6 -10t6 -9t14 4zM206 -25h-141q-11 -5 -29 -5q-37 0 -37 20q0 31 25 51l5 -10q4 0 14.5 7t25.5 8q55 5 69 5t14 67q0 149 -14 379v105h-134q0 5 -1 11.5t-2 12.5
t-2.5 11t-3 7.5t-2.5 2.5q0 1 3.5 4.5t3.5 11.5h29v7q32 0 96 -4.5t97 -4.5v-43h21q0 -18 -27 -40q0 -1 2 -5t3 -8t1 -5q0 -4 -5.5 -16t-5.5 -14q0 -32 8 -93.5t8 -92.5q0 -39 -2.5 -129t-2.5 -128q0 -15 -1.5 -41t-2.5 -45.5t-2 -20.5z" />
    <glyph glyph-name="asciicircum" unicode="^" horiz-adv-x="458" 
d="M21 501q4 3 11.5 15.5t13.5 15.5q15 7 38.5 29.5t41.5 41.5t21 20v-5q2 14 21 24.5t19 20.5q6 -2 6 -9q9 -14 31.5 -38t28.5 -24l55 -55q3 0 19.5 -24.5t16.5 -26.5q0 -13 -6 -37t-14 -24l-5 1l5 4q-5 2 -18 11.5t-13 12.5l1 1l-41 41v5q0 9 -28 27t-48 18q-4 1 -44 -38
t-62 -62q-3 -3 -10 -13.5t-14.5 -17t-16.5 -6.5t-9 6v86zM30 487q16 -22 18 -22q13 0 18 4t8 13t7 14q12 3 22.5 13.5t12.5 22.5q0 5 -7.5 12.5t-10.5 7.5q-13 0 -13 -8q0 -2 1 -3q-7 -12 -14 -18.5t-9.5 -7.5t-4 -5t-1.5 -14q-27 0 -27 -9zM294 476q6 -11 17 -11q1 0 3 2
t4 6t2 9q-16 0 -26 -6zM272 501l7 -5l4 9q-1 1 -2 1q-9 -4 -9 -5zM279 537l-10 -11q4 0 7 3.5t3 7.5zM116 560q0 -17 10 -23q6 7 13.5 25.5t7.5 29.5q0 5 -5 5q-2 -7 -14 -17t-12 -20zM180 623q-22 0 -22 -52q8 0 19 9.5t19 19.5l8 10q0 1 -4.5 3.5t-10 5.5t-6.5 4h-3z
M225 589q-11 0 -13 -12q13 1 13 12z" />
    <glyph glyph-name="underscore" unicode="_" horiz-adv-x="689" 
d="M39 -35q0 25 62 25q254 8 385 8q8 0 51.5 -0.5t50.5 -0.5q8 -16 8 -43q0 -44 -31 -44q-90 0 -186 3l-186 -3l-11 7l5 5l-5 6q-9 -5 -13 -18q-88 3 -100 6q-29 13 -30 49zM502 -65v-8q10 0 18 8h-18zM73 -41q0 -19 16 -19h67l19 13l-12 6h-90zM215 -41q-37 0 -37 -20h7
h8.5t8 0.5t8 1t7 2t6.5 3.5t4 5.5t3 7.5h-15zM478 -47q14 -1 85 -13q15 0 15 20q-5 0 -10.5 -3t-10.5 -3v5h-31v8q-7 0 -27 -5t-21 -9zM256 -40h-8l-5 -1l-6 -12q2 0 12 -1t16 -1q14 0 15 8q-3 7 -24 7zM318 -34q-31 0 -31 -22q32 0 42 15q-3 7 -11 7zM360 -35
q-3 -1 -31 -18q16 0 41.5 -1t39.5 -1q55 0 68 26q-2 0 -8 1h-5q-20 0 -31 -13q0 1 -2.5 3.5t-3.5 2.5t-7 -3l-6 -3q-1 0 -5 1h-4l2 2q1 2 1 3q-6 6 -18 6q-20 0 -26 -12q0 6 -5 6z" />
    <glyph glyph-name="grave" unicode="`" horiz-adv-x="259" 
d="M22 686q0 29 11 29l3 -1l160 -81q9 -5 9 -49h-21q-104 46 -130 56q-19 8 -25.5 16.5t-6.5 29.5zM99 650q1 -3 1.5 -5t2 -3.5l2.5 -2.5t3 -1.5t3.5 -1t5 -0.5h5h6.5h8q-2 3 -4.5 5t-4.5 3.5t-4.5 2.5t-4 2t-4.5 1h-4.5h-5.5h-5zM48 677q2 -7 18 -7q-3 7 -18 7z" />
    <glyph glyph-name="a" unicode="a" 
d="M322 38q-8 0 -22.5 -10t-18.5 -10q-50 -23 -83 -23q-63 0 -118 37.5t-55 107.5q0 13 7.5 41.5t13.5 41.5q22 32 82 47.5t106.5 25t46.5 29.5q0 30 -19.5 50.5t-54.5 20.5q-22 0 -56.5 -15.5t-48.5 -15.5q-26 0 -26 53q0 59 104 59q13 0 45 -5t44 -5q3 0 11 0.5t12 0.5
q25 0 25 -19q24 0 24 -18q28 0 40 -46t12 -86q0 -26 -8 -76t-8 -75q0 -6 2 -17.5t2 -17.5q0 -1 -0.5 -4t-0.5 -5q5 -10 6 -11q0 -7 10.5 -11.5t23.5 -7t23.5 -10t10.5 -19.5q0 -43 -25 -57q-31 10 -43 12q-10 2 -36 20t-28 18zM170 26q13 -8 15 -8q9 0 9 19l-5 1
q-12 0 -19 -12zM386 26q0 -10 38 -10q0 21 -10 21q-22 0 -28 -11zM263 63q-16 0 -33 -10.5t-17 -26.5l43 11q2 0 7 26zM120 43l9 -4.5t12.5 -6t8.5 -2.5q0 5 -7.5 13t-11.5 8q-7 0 -11 -8zM386 54q-11 0 -11 -15q17 0 20 7q-5 8 -9 8zM351 55q0 -9 7 -13q8 5 8 13h-15z
M275 69v-21q10 0 18 9.5t8 20.5l-1 4v5l-13 -13l2 -5h-14zM340 75q0 -3 2.5 -6t4.5 -3q17 0 17 26q-6 0 -15 -5t-9 -12zM99 89q-13 0 -15 -14q15 2 15 14zM113 141q0 -67 63 -67q29 0 73.5 17.5t44.5 42.5v4q0 18 -0.5 27.5t-3 25t-8 24t-16.5 15t-27 6.5q-5 0 -15 -4.5
t-14 -4.5q-7 0 -15.5 -4.5t-21 -13t-15.5 -10.5q-9 -5 -20 -31.5t-25 -26.5zM53 93q1 -3 4.5 -6.5t6.5 -5.5t4 -2q7 0 12 12t5 18q-25 0 -32 -16zM318 100q2 -7 10 -7q2 0 11 7.5t9 10.5t-4 3q-18 0 -26 -14zM86 132q-14 0 -21 -15q21 0 21 15zM351 145q-8 0 -15.5 -7.5
t-7.5 -15.5q13 0 18 5t5 18zM65 143q-3 0 -8 -4t-5 -6l1 -3q3 0 8 3t5 5v2q-1 2 -1 3zM317 223q0 -11 4.5 -29t4.5 -29t-3 -24q22 5 32 44t10 83q0 26 -3 36q-22 0 -62 -26q2 -8 20 -11.5t22 -6.5q-4 -6 -8 -9.5t-7 -4.5t-5.5 -3t-3.5 -6.5t-1 -13.5zM96 155q3 3 3 10
q0 1 -5 1q-29 0 -35 -11h37zM65 186q-7 0 -7 -20q15 0 26 13q-10 7 -19 7zM77 199q2 -3 12 -8t13 -5q2 0 8 7.5t6 10.5h-27q5 9 44.5 22t48.5 27h-4q-43 0 -45 -18q-5 -2 -14 -5t-14 -5t-11 -5.5t-10 -8.5t-7 -12zM251 260q11 -7 30 -7q9 0 19 7q-15 11 -27 11
q-17 0 -22 -11zM223 269l-28 -14l37 5zM303 309l-9 -11l35 5zM318 321l37 -6l1 3q2 3 3.5 6.5t1.5 4.5q0 4 -3.5 9t-5.5 5q-6 0 -17.5 -7.5t-16.5 -14.5zM349 365q-2 -1 -6.5 -2t-6.5 -2t-6 -2.5t-6 -2.5t-5 -3t-4.5 -4.5t-2.5 -5.5t-1 -7q19 0 38 29zM300 381q0 -3 4 -7
t9 -4q25 0 25 18q0 7 -5.5 16t-12.5 9zM102 430q0 -15 7 -22q11 0 35.5 7.5t31.5 17.5l10 -8q1 0 6.5 4t8.5 4q11 0 26.5 -4.5t28.5 -4.5q0 23 -11 23q-2 0 -8.5 -1.5t-9.5 -1.5q-19 1 -26 1q-56 0 -99 -15zM285 433q-9 0 -16 -7.5t-7 -17.5q1 0 5 -0.5t5 -0.5q10 0 25 4.5
t15 11.5q0 10 -27 10z" />
    <glyph glyph-name="b" unicode="b" horiz-adv-x="550" 
d="M58 15q-3 36 -7 80q0 54 3.5 192t3.5 217q0 109 12 178q3 19 33 19q31 0 42 -7.5t11 -27.5q0 -16 -12 -22l7 -5q-1 -4 -1 -23q0 -9 3 -52t6 -83l3 -40l7 -7q58 32 173 32q2 -6 28 -14.5t50.5 -21t24.5 -28.5q24 0 42.5 -64.5t27.5 -69.5q-1 -3 -1 -21q0 -11 3 -29.5
t3 -29.5q0 -1 -2.5 -12.5t-2.5 -12.5q5 -5 5 -6q0 -16 -19 -43q-66 -117 -212 -117q-23 0 -63 15.5t-60 15.5q-2 0 -11 -15.5t-22 -15.5q-49 0 -75 18zM249 33q6 -6 20 -6q4 0 14.5 0.5t15.5 0.5q-13 6 -35 6q-2 0 -8 -0.5t-7 -0.5zM353 41l-43 -13h6l4 -1q29 0 33 14z
M119 59q-20 -17 -20 -28q27 0 27 14q0 11 -7 14zM406 65q-9 0 -25 -6.5t-16 -15.5l1 -2q28 3 44 24h-4zM187 65q13 -15 20 -15q0 16 -13 16zM108 102q-4 -2 -7.5 -4t-6 -4t-4 -5t-2 -5t-1 -6.5t-0.5 -6.5v-8v-8q18 0 32 21h-9q-16 0 -16 8zM220 85q7 0 21 -5.5t14 -8.5v-6
h63l5 -6l6 12q39 18 47 18q29 0 40.5 39t11.5 78q0 23 -6 51.5t-17.5 58t-33 49.5t-48.5 20q-8 0 -92 -6q-36 -8 -61.5 -63t-25.5 -91q0 -26 12 -50t26 -37.5t26 -28t12 -24.5zM415 80l-1 -1q0 -2 3 -5t6 -3q6 8 15 14t13 12t4 19q29 0 29 17q0 5 -7 12h13q6 0 6 43
q0 164 -73 210q1 1 1 2q0 8 -59 21t-70 13q-42 0 -71.5 -13t-61.5 -42l7 -6l37 31q7 0 53.5 6.5t58.5 6.5q2 0 17.5 -0.5t17.5 -0.5q22 -26 34 -26h3l1 1l24 -55l12 7v-32q9 0 14.5 -12t9.5 -28t7 -21l-6 -10q0 -2 6 -8q0 -2 -2.5 -10.5t-2.5 -9.5q0 -10 10.5 -17t10.5 -15
h-4.5h-4.5t-3.5 -1t-3 -3.5t-0.5 -6.5q0 -9 8 -12q-14 -6 -14 -19q0 -9 6 -12q-14 0 -28.5 -16.5t-14.5 -29.5zM126 95q2 0 27 -9.5t34 -9.5q-4 3 -13 18t-20 15q-17 0 -28 -14zM132 138q-7 0 -25.5 -10t-18.5 -14v-7q14 0 27.5 4t21 8.5t7.5 6.5q0 8 -3 10t-9 2zM110 145
q-23 0 -23 -14q14 0 32 14h-9zM112 181l-24 -24h34q0 22 -10 24zM110 195q-23 0 -23 -14q1 -4 1 -5q22 7 22 19zM88 250v-46q26 0 26 16q-9 0 -20 -8q0 4 9.5 15t9.5 13q0 4 -9 7t-16 3zM112 268q-6 -6 -6 -14q8 0 13 8zM88 299v-37h6l32 31v6h-38zM151 354q-58 -13 -58 -38
q59 0 59 29zM147 373q-29 0 -46 -19h7q1 0 43 19h-4zM101 374q-10 0 -13 -7l6 -1q11 0 14 7q-1 0 -4 1h-3zM88 426v-41h56q-22 34 -22 94q0 9 0.5 27.5t0.5 27.5h-4l7 12v112q0 6 -9 11.5t-16 5.5q-14 0 -14 -21q0 -11 1 -16.5t2.5 -6.5t2.5 -2t1 -3q0 -4 -5.5 -16t-5.5 -15
q0 -1 5.5 -6t5.5 -6q0 -3 -3.5 -11t-3.5 -20q0 -31 14 -31l-13 -25l13 -5q-1 0 -3 1h-1q-10 0 -10 -18q0 -12 3.5 -16.5t3.5 -5.5q0 -9 -6 -18l20 -8h-20zM105 398h3l-14 -7q4 7 11 7z" />
    <glyph glyph-name="c" unicode="c" horiz-adv-x="446" 
d="M55 121q-20 39 -20 86q0 116 65.5 185t173.5 69q2 0 11.5 -0.5t10.5 -0.5l-13 -6q9 0 23 3t22 3q66 0 79 -17q0 -2 0.5 -13.5t0.5 -12.5q0 -13 -4.5 -34t-4.5 -35q-43 0 -97 33h-86q-14 0 -40.5 -33t-33.5 -60q-1 -3 -2.5 -14.5t-4 -20.5t-6.5 -15q10 -59 28.5 -92
t64.5 -62v-7q9 0 26 -2.5t26 -2.5q76 0 121 25q19 -63 19 -72q0 -28 -73 -28q-35 0 -56 0.5t-59.5 5.5t-63 14t-50 27.5t-38.5 45.5q-2 4 -3 12.5t-4 13t-12 5.5zM289 41q0 -12 9 -12q14 0 22 12h-31zM374 52q-30 -2 -41 -23l9 -1q32 0 32 24zM191 44q0 -9 18 -9q11 0 13 6
q0 8 -2.5 10.5t-9.5 2.5q-19 0 -19 -10zM255 46q-18 0 -20 -11l41 -4q-1 5 -9 10t-12 5zM147 63q0 -10 20 -10q12 0 24 19q-2 7 -13 7q-31 0 -31 -16zM116 93q0 -9 14 -9t23 19q0 2 -4.5 6t-6.5 5l-3 1q-4 0 -10 -5.5t-9.5 -10.5t-3.5 -6zM61 202q7 -27 21.5 -63t21.5 -36
l25 18l1 3q0 16 -9.5 42.5t-21.5 35.5l5 5q-1 4 -1 13q0 39 12 87t27 48q15 34 40 43.5t59 12t55 13.5q-15 5 -25 5q-26 0 -65.5 -11t-63.5 -25t-50 -74q-3 -8 -10.5 -37.5t-13.5 -54.5t-7 -25zM363 419l-21 3q-18 -11 -18 -17l39 -12v26z" />
    <glyph glyph-name="d" unicode="d" horiz-adv-x="571" 
d="M256 -2q-8 -1 -26 -1q-89 0 -145 70t-56 164q0 64 24 132q3 3 14 18t11 16v3q20 31 46 43t71 19q6 1 21.5 7t22.5 6v-7q6 7 19 7q22 0 63.5 -15.5t62.5 -15.5q0 21 1.5 84t1.5 65q0 72 -13 103h98q4 0 7 -37q-1 -1 -1 -3q0 -3 3.5 -10t3.5 -8q0 -10 -6 -22q0 -42 6 -124
t6 -122q0 -44 -9.5 -130.5t-9.5 -129.5q0 -16 4 -48.5t4 -48.5q0 -13 -3 -17t-16 -4q-34 0 -47 5t-34 27q-9 0 -52 -15.5t-62 -15.5q-7 0 -10 5zM281 42q-12 0 -25 -7t-13 -19q41 0 52 25q-1 0 -7 0.5t-7 0.5zM201 30q0 -6 7 -6q6 0 10.5 4t4.5 10q-9 0 -22 -8zM418 30v-6
h24q-2 7 -13 7l-5 -1h-6zM248 44q-15 0 -16 -14q16 2 16 14zM387 111q-3 -3 -40 -34t-41 -47q19 2 50.5 29.5t31.5 47.5v2q-1 1 -1 2zM165 41q1 -5 13 -5q9 0 12 5.5t5 19.5q-27 -13 -30 -20zM139 61q5 -7 11 -7h-1l7 2q6 2 14 6.5t12 10.5q-8 7 -18 7q-11 0 -22 -15
q-2 -3 -3 -4zM442 68q-14 0 -14 -15q14 0 14 15zM405 79v-20q7 0 13.5 6.5t6.5 13.5h-20zM115 79q3 -7 13 -7q15 0 24 14h-5q-17 0 -32 -7zM139 178q6 -9 16.5 -27.5t15 -24.5t14.5 -16.5t20 -14t26.5 -6.5t38.5 -3q48 0 82.5 37t34.5 85q0 74 -31 112q-22 26 -52.5 50.5
t-52.5 24.5q-7 0 -17.5 -5.5t-19 -12t-16.5 -13t-9 -7.5q-32 -27 -41.5 -53.5t-9.5 -70.5q0 -7 0.5 -25.5t0.5 -29.5zM89 103q12 -12 16 -12q8 0 16.5 6.5t11.5 13.5q-3 5 -8 5q-4 0 -18.5 -6t-17.5 -7zM430 116q-15 0 -31 -18h5q6 -1 7 -1q19 0 31 6q0 8 -2.5 10.5
t-9.5 2.5zM72 150q0 -29 24 -29q18 0 32 8l-7 12q-15 -7 -17 -12l-1 3q0 10 12 22q-2 6 -13 6q-30 0 -30 -10zM442 154q-11 0 -24 -13q7 -1 8 -1q16 0 16 14zM442 180q-19 0 -28 -6.5t-9 -26.5l9 5q9 4 13.5 7t9.5 9t5 12zM104 208q-42 -22 -42 -44q24 0 35.5 6t11.5 27
q0 10 -5 11zM442 208q-22 -6 -22 -20q12 0 17 3.5t5 16.5zM75 215q-11 0 -14 -4.5t-3 -16.5q8 0 26 21h-9zM430 215q-10 0 -12 -7q4 0 18 7h-6zM64 230l1 -3l39 -5q7 0 7 32q-14 0 -30.5 -6.5t-16.5 -17.5zM436 252q-15 -15 -15 -26q22 0 28 12t6 35l-1 7v14v13
q-14 -3 -25.5 -15t-11.5 -25q0 -10 3 -12.5t16 -2.5zM65 270v-18l39 18h-39zM116 303q-19 0 -38 -14q2 0 8 -0.5t7 -0.5h9.5t6.5 1.5t5.5 4.5t1.5 9zM65 307q0 -1 4 -3.5t6 -2.5q12 0 37 22.5t27 33.5q0 1 3 6.5t4 6.5q3 2 11.5 4.5t14.5 6.5t6 10v1l-1 2q-15 -6 -44 -6
q14 0 14 12q0 6 -6 6q-26 0 -51 -35.5t-25 -63.5zM456 342q-26 0 -45 -29q45 0 45 29zM411 338q-25 0 -31 -6v-8q24 0 38 14h-7zM344 375q12 -20 30 -24q37 28 74 43q-6 6 -6 12q0 4 6.5 20t6.5 23h-13l-31 -36q-1 -3 -1 -4q0 -3 7 -6t13 -3q-11 -5 -41 -9t-45 -16zM462 385
q-26 0 -57 -28l6 -1h7q14 0 21.5 1t15 8t7.5 20zM313 413q2 -5 8.5 -15t12.5 -10q2 0 34 12q-14 0 -19.5 9.5t-24.5 9.5q-10 0 -11 -6zM157 413q18 -7 25 -7q13 0 30.5 12.5t26.5 12.5h67q-3 0 -21 5.5t-22 6.5q-27 0 -43 -12v6q-46 -6 -63 -13l14 -6zM423 456l7 -7l18 19
v52q-8 0 -16.5 -14t-8.5 -23q0 -8 7 -8q1 0 4 0.5t5 0.5q0 -7 -2 -9t-6 -4t-8 -7zM418 542q0 -19 5 -24q19 11 19 33q-24 0 -24 -9zM442 598l-19 -31q27 0 27 31h-8zM436 616q-23 -5 -23 -25q15 0 25.5 15.5t10.5 31.5q0 13 -0.5 18t-5.5 11t-15 6q-8 0 -11.5 -0.5t-6.5 -2
t-4 -5.5t-1 -12q0 -27 12 -27l6 2l-5 -12h18z" />
    <glyph glyph-name="e" unicode="e" horiz-adv-x="494" 
d="M32 219q0 50 18 110t44 103q1 -1 2 -1q6 0 24.5 12.5t23.5 12.5q69 16 92 16v-9q20 7 49 7q90 0 90 -27q26 0 43 -21.5t27.5 -46.5t18.5 -29v-86l-18 -13l5 -6q-27 -21 -118 -21q-96 0 -112.5 1t-65.5 8q-1 6 -6 6q-1 0 -5 -1t-6 -1q0 -29 7.5 -64t22.5 -51q8 -8 37 -19
t31 -12q18 -13 31 -13q26 0 79.5 13t78.5 13q22 0 22 -41q0 -20 -3.5 -25t-11 -6t-12.5 -8q-6 -2 -117 -20q-94 0 -135 13q-47 15 -91.5 85t-44.5 121zM180 44q22 -6 25 -7q5 -5 6 -5q15 0 26.5 9.5t11.5 23.5q-38 0 -38 -9q0 3 -3.5 8t-5.5 5t-12.5 -9.5t-10.5 -12.5
q1 -2 1 -3zM248 37q5 -5 6 -5q20 0 65 8.5t59 8.5l6 -3l6 -2q32 0 32 21q-19 0 -49.5 -7.5t-44.5 -8.5q-10 0 -28 -1t-32 -2l-14 -2zM155 62q0 -1 3 -3.5t4 -2.5q9 2 20 9t11 10q0 4 -2 7t-4 4t-3 1q-9 0 -19 -8.5t-10 -16.5zM112 94l32 -26q12 18 12 23l-1 3l-36 5zM94 124
q12 -9 12 -25q23 12 23 38q-29 0 -35 -13zM106 180q-19 -30 -19 -40q29 0 38 8q-3 7 -10 16.5t-9 15.5zM102 194q-19 0 -24 -5.5t-5 -25.5q12 0 20.5 9.5t8.5 21.5zM81 223l-12 -19q1 0 5 -0.5t5 -0.5q9 0 18.5 4.5t9.5 12.5q0 1 -3 6.5t-3 8.5q2 5 5.5 12.5t5 13t1.5 13.5
q0 12 -10 16.5t-10 8.5t6.5 18.5t6.5 19.5q0 9 21 35.5t21 39.5q2 0 12 -2t13 -2t4 5.5t3 6.5q5 2 25 2.5t37.5 2.5t17.5 7q-17 8 -47 8q-68 0 -103.5 -46t-35.5 -116h32v-6l-37 -37v-19zM300 266h-6q-41 0 -41 -16l1 -1v-2l13 1q13 1 24.5 2.5t23 5.5t13.5 10h-28zM164 278
q-2 0 -12.5 -10t-14.5 -15q8 2 18 4l15 3t12.5 4t16.5 8q-3 1 -31 6h-4zM199 260q20 -7 35 -7q9 0 15.5 6t6.5 15q-50 0 -57 -14zM416 299q0 -14 -11 -19.5t-24.5 -4.5t-24.5 -2.5t-11 -14.5q70 0 75 14q5 -8 14 -8q0 8 -3.5 18t-3.5 14q0 3 7 8.5t7 21.5q0 39 -23 39
q-7 0 -10.5 -3.5t-4 -8t-0.5 -14.5q11 -33 13 -36v-4zM145 287q-9 0 -15.5 -7t-6.5 -16q13 0 17.5 5t4.5 18zM137 320q9 -17 148 -17q18 0 47.5 4t46.5 4q0 5 -7 20.5t-11 15.5l-2 -1q-7 21 -44.5 35t-63.5 14q-86 0 -114 -75zM348 410q0 -8 18 -24t24 -16t16 4t10 9t-4 18
l-4 13q0 -6 -12 -6q-8 1 -18.5 8t-10.5 16q-29 0 -29 14q-1 0 -4 -3.5t-9.5 -7t-16.5 -3.5q-4 0 -10 4t-13 4q-1 0 -6.5 -0.5t-6.5 -0.5q2 -1 9.5 -13t12.5 -13q1 0 7 3.5t10 3.5q1 0 14 -5t23 -5z" />
    <glyph glyph-name="f" unicode="f" horiz-adv-x="348" 
d="M64 65q0 2 10.5 19t10.5 29q0 11 -4 33.5t-4 32.5q0 31 7 73q0 27 -7 118q7 7 7 13q-18 14 -39 14q-3 0 -10.5 -0.5t-12.5 -0.5l-7 5v68l7 5q3 3 20.5 3.5t32 6t14.5 21.5q0 9 -3 28t-3 29q0 68 25 111q0 -1 14.5 6t31 15t22.5 9q5 0 29 3.5t34 3.5q16 0 20.5 -0.5
t11.5 -3.5t8.5 -10.5t1.5 -22.5q0 -26 -7 -38.5t-17.5 -13.5t-22.5 -4t-22.5 -8t-17.5 -26.5t-7 -58.5q0 -26 7 -50q22 2 39 2q37 0 61 -7q-1 -3 -1 -9q0 -9 4 -28t4 -26t-9 -7t-11 -11l-6 8q-4 -1 -26 -1q-16 0 -27 3t-15 3q-22 0 -33.5 -19.5t-11.5 -42.5q0 -2 4.5 -14
t4.5 -29q0 -11 -6.5 -34.5t-6.5 -33.5q0 -6 5 -6q-1 -5 -1 -14q0 -18 7 -48t7 -48q0 -19 -4 -56.5t-4 -55.5h-66q-7 0 -22.5 28.5t-15.5 36.5zM108 179q0 -20 37 -50q1 3 1 19q0 37 -32 37q-1 0 -3.5 -2.5t-2.5 -3.5zM132 291q2 -15 13 -15v15h-13zM108 388q6 -20 6 -30
q0 -2 -0.5 -12t-0.5 -20h-5q7 9 38 9q0 9 -19 17q2 -1 4 -1q8 0 8 12q0 2 -0.5 6t-0.5 5q0 -1 5 12t9.5 28.5t5.5 20.5q0 6 -13.5 22t-17.5 17q-11 0 -13 -5q6 -1 6 -12t-2.5 -15t-11.5 -4q-10 0 -27.5 3t-26.5 3q-16 0 -16 -10q0 -3 33 -8.5t41 -5.5q20 0 22 -6
q-18 0 -18 -9q0 -1 0.5 -4t0.5 -4q0 -6 -7 -9zM243 444l25 -13q8 5 8 12q-15 7 -21 7zM200 457q-6 0 -11.5 -6.5t-6.5 -11.5h31l6 11q-7 7 -19 7zM113 553q0 -72 35 -72q6 0 15 47t13 89v5q-1 6 -1 9q0 4 8.5 10.5t16.5 6.5q-1 5 -7 14t-11 11q-7 0 -32.5 -10.5t-29.5 -14.5
q-7 -10 -7 -65q0 -14 6 -18t20 -4q1 0 3 0.5t3 0.5q0 -9 -32 -9zM145 549h6v-6zM205 677q0 -13 3 -18t13 -5q24 0 24 15q0 8 -8 12.5t-8 11.5q-3 0 -11 -8t-13 -8z" />
    <glyph glyph-name="g" unicode="g" horiz-adv-x="492" 
d="M76 -173v9q-15 0 -29 24.5t-14 43.5q0 32 18.5 75t43.5 58q-1 3 -10.5 18.5t-9.5 26.5q0 16 10.5 45.5t10.5 44.5q0 21 -16 38t-32 39.5t-16 55.5q0 71 55.5 120.5t127.5 49.5q3 0 8 -0.5t8 -0.5q1 14 48 14q15 0 43 -10t40 -10q11 0 30.5 10.5t28.5 10.5q2 0 7 -0.5
t6 -0.5q-10 -10 -13 -25q0 -14 21 -14q12 0 19 4t10 4q14 -5 14 -22q0 -15 -20.5 -17.5t-41 -2t-20.5 -7.5q0 -17 15.5 -51t15.5 -49q0 -5 -3 -8t-3 -4q0 -3 1.5 -9t2.5 -11l2 -4q0 -13 -6.5 -30.5t-6.5 -32.5q-7 -33 -27.5 -52.5t-41.5 -23.5t-39 -9t-21 -13q-58 -7 -81 -7
q-3 0 -9 0.5t-9 0.5q9 -16 30 -24.5t56.5 -14t36.5 -5.5q4 -9 18.5 -12t32 -3.5t24.5 -2.5q34 -12 85.5 -52.5t51.5 -70.5q0 -24 -14.5 -48t-36.5 -39v1q-3 0 -38 -27t-42 -29q-37 -13 -106 -13q-99 0 -215 62zM187 -173q1 0 6 -6t7 -7q11 0 29.5 -8t25.5 -10q7 1 7 18l9 -6
l3 2q2 1 7 1q0 -10 1.5 -12.5t10.5 -2.5q19 0 58.5 10t39.5 21q0 -2 4 -4t7 -2q2 0 14 8t12 11l-13 5q7 7 7 10l-1 2q-27 -17 -100 -17q-22 0 -66 2.5t-66 2.5q-3 0 -12.5 -2.5t-14.5 -2.5q-4 1 -11 13t-20 12q-5 0 -31 -13q11 -18 74 -31q3 6 13 6zM434 -135q0 -4 7 -8.5
t12 -4.5q8 3 11 13q-20 5 -24 5q-1 0 -3.5 -2t-2.5 -3zM75 -127q0 -8 20 -8q19 6 25 11q-7 7 -13 7q-13 0 -31 -7zM131 -53q0 -25 11 -37.5t36 -23t34 -16.5h141q21 0 48 16t27 34t-21 18q-23 0 -25.5 13.5t-9.5 17.5q-86 31 -161 31q-26 0 -53 -14.5t-27 -38.5zM98 -92
q-20 0 -28 -14h44q0 14 -16 14zM481 -85q-15 0 -23 -21l38 20h-8zM70 -74v-13l5 1q5 1 13 2.5t12 2.5q-8 7 -30 7zM81 -56l-5 -6h26q0 4 -3.5 9t-3.5 11q0 14 67 66q-25 0 -55.5 -24t-30.5 -50zM434 -24q0 -3 3.5 -5.5t4.5 -2.5q7 0 11 8q-6 6 -11 6l-2 -1zM95 92
q7 -25 30 -25q25 0 25 11q0 14 -55 14zM120 129v-7q6 0 11 7h-11zM157 154q14 -12 33 -12q12 0 15 5.5t3 20.5q-18 0 -51 -14zM218 157q0 -10 3.5 -13t12.5 -3q43 0 43 13h-10l6 6q7 0 18.5 -3.5t20.5 -3.5q0 5 -4.5 10t-4.5 9q0 1 2 7q-7 -6 -29.5 -8t-40 -4.5t-17.5 -9.5z
M316 182q0 -23 12 -23t32 14q0 13 -0.5 17.5t-4.5 9t-14 4.5q-25 0 -25 -22zM348 222q17 -19 36 -25q2 0 5.5 4.5t5.5 9.5l2 5q2 7 -13 16.5t-18 15.5q-18 -18 -18 -26zM149 287q0 -50 16 -67t66 -17q49 0 83 27.5t34 79.5q0 43 -31 74t-74 31q-3 0 -16 -0.5t-15 -0.5
q-30 -19 -46.5 -54.5t-16.5 -72.5zM371 262q5 -9 7.5 -12t7.5 -6.5t11 -3.5q13 0 13 36q0 47 -16 47q-6 0 -14 -8t-8 -13q0 -8 7 -19q4 0 7.5 3t8.5 3q0 -1 1 -3l1 -2l-13 -8q-13 -8 -13 -14zM76 259q5 -12 19 -12q21 0 21 12h-40zM88 277l32 -5v24q-31 -19 -32 -19zM88 308
h-4q-8 0 -11.5 -0.5t-6.5 -3.5t-3 -10q26 0 44 14h-19zM120 345q0 -10 -7.5 -14t-20 -6t-16.5 -4h49l13 37q-42 0 -57 -6q17 -7 39 -7zM76 339l-12 -6h12v6zM372 352l-6 -13h29q0 17 -18 37.5t-18 27.5q3 10 30 20t27 22l-2 5q-2 5 -5 10.5t-6 6.5l-6 -11q-1 -1 -57 -26
q-2 2 -6 7t-7 8t-9 6.5t-13 4.5q-2 0 -14 -0.5t-21 -0.5t-19.5 1.5t-14.5 5.5q-8 -8 -8 -11q0 -2 18 -5t27 -3q3 0 19 0.5t19 0.5v-14q6 -4 22 -20.5t20 -22.5q4 -5 5.5 -20t13.5 -16zM81 376v-12q69 7 69 30q0 4 -1 6l32 39q-19 0 -35.5 -9.5t-36 -28t-28.5 -25.5z" />
    <glyph glyph-name="h" unicode="h" horiz-adv-x="555" 
d="M350 -2v198q0 108 -18 148h-1q-5 0 -32.5 16.5t-29.5 20.5q0 -1 -30 -5.5t-62 -20t-37 -42.5q-6 -24 -6 -56q-8 -133 -8 -159q0 -25 1 -37l-6 -6q19 -30 19 -39q0 -18 -13 -18h-73q-3 6 -9.5 7t-8.5 6q0 7 -0.5 41.5t-0.5 40.5q0 67 9.5 200.5t9.5 199.5q0 33 -3.5 97.5
t-3.5 98.5h74l13 -6v-52q0 -169 6 -169l6 -13q93 31 145 31q68 0 115.5 -60t47.5 -128q0 -31 -9.5 -97t-9.5 -99q0 -16 1 -24q-6 0 -6 -5l3 -13q3 -12 6 -26.5t3 -22.5q0 -10 -19.5 -14t-39 -4t-19.5 -1q-14 8 -14 12zM380 147v-132q26 0 30 8q1 3 1 7q0 16 -3.5 48t-3.5 51
h-5q15 15 15 30h-11q0 7 10 29t10 41q0 10 -6 10l-37 -24q0 -12 7 -12q-19 -15 -19 -25l12 6q-1 -1 -1 -3q0 -8 8 -10q-2 -2 -4 -3q-3 -3 -3 -9q0 -1 3 -3.5t4 -2.5zM65 38q0 -2 7 -5t12 -3q20 0 20 25q0 16 -7 24q-16 -7 -19 -7l25 25v-2q-3 22 -10 22l-3 -1l7 13
q-29 -2 -38 -20q0 -5 7 -5t12 5l-12 -18l6 -6q-7 -3 -7 -12q0 -2 3.5 -11.5t3.5 -13.5q-7 -5 -7 -10zM65 143q0 -9 16 -9q15 0 22 7q0 1 -2.5 3.5t-3.5 2.5q-3 0 -10 -3t-9 -3l6 12q-19 0 -19 -10zM64 173q7 0 18.5 -4.5t14.5 -9.5q7 10 7 25h-14q5 13 13 19q-2 30 -2 59
q0 51 8 82q-5 -5 -12 -5q-17 -8 -21.5 -13.5t-4.5 -20.5q0 -4 1 -4l12 -7l-12 -11v-80l12 -7q-20 -4 -20 -23zM393 246q-3 -4 -12 -9t-9 -13q17 0 34.5 17.5t17.5 35.5q-11 0 -28 -10t-17 -21h14zM428 321q-24 0 -42 -15t-18 -39q26 0 43 14t17 40zM387 326l-14 -13
q10 0 27.5 8.5t17.5 22.5t-14 14q-1 0 -2.5 -0.5t-2.5 -0.5q6 6 6 11q0 10 -5 18t-13 8q-22 0 -37 -26q8 -3 12 -5q0 -1 -4 -10l-3 -9q0 -5 7 -5q3 0 9 2.5t9 2.5l-7 -13zM78 363q0 -12 12 -12q25 4 35.5 9.5t13 12t7.5 8.5q3 2 32.5 13t55 23t29.5 20l-6 6l-73 -19h-8l-5 1
q-4 -3 -17 -18t-23 -15q-2 0 -10 8q-14 -5 -21 -8t-14.5 -10.5t-7.5 -18.5zM97 412q-15 -11 -15 -20q4 0 12 3.5t14.5 6.5t6.5 4q0 8 -4 22t-8 15l3 9q3 9 3 10q0 13 -4.5 38.5t-4.5 40.5h-3q7 13 7 38q0 15 -3.5 19t-3.5 5q0 5 3.5 15t3.5 22q0 24 -7 24t-16 -4t-9 -7
q0 -14 9 -48t9 -44t-6 -13v-99l6 -6q-9 0 -9 -31h16zM282 400l14 -8q6 0 29 26l-5 -2q-6 -1 -17.5 -5.5t-20.5 -10.5zM355 425l-30 -32l3 -1h4q23 0 36 20zM257 405l6 -5q9 0 69 37q-9 6 -44 6zM245 418l-25 -13l4 -1h5q16 0 16 14z" />
    <glyph glyph-name="i" unicode="i" horiz-adv-x="245" 
d="M93 10q-2 7 -9 17t-9 19q-22 90 -22 272v16q0 37 1 55.5t6 43t18 35.5t34 11q64 0 64 -113q0 -51 -7.5 -114.5t-7.5 -96.5q0 -24 3.5 -71.5t3.5 -70.5q0 -16 -13 -16q-30 3 -62 13zM93 52q6 -16 46 -16q0 5 -2.5 10.5t-5.5 8.5t-3 4h1q11 6 11 49h-15q-2 0 -14.5 -16
t-12.5 -20v-1h27zM93 108q0 -9 6 -12l26 24q-1 0 -5 0.5t-5 0.5q-19 0 -22 -13zM93 139v-8q25 0 34.5 10t9.5 35h-7zM87 170q0 -13 6 -13l32 25v6q-38 -5 -38 -18zM145 238h-9q-10 -5 -49 -44h49q9 0 9 44zM119 245q-13 0 -25 -8t-12 -20q11 0 24 8.5t13 19.5zM106 262v-7
q45 0 45 44h-8zM106 294q-20 0 -20 -17q1 -8 1 -10l25 26l-3 1h-3zM143 348q-27 -14 -37 -36h4q4 -1 5 -1q28 0 28 7v30zM81 325q0 -2 2.5 -4.5t3.5 -2.5q22 12 43 36h-4q-4 1 -5 1q-16 0 -28 -7.5t-12 -22.5zM145 408q-26 0 -52 -46q11 4 22 4.5t15.5 0t8.5 3t5 12t1 26.5z
M81 388l-1 -1q0 -2 2.5 -4.5t4.5 -2.5q8 0 38 30h-4q-2 0 -7 -1t-13 -3t-14 -6.5t-6 -11.5zM99 428l-6 -12h10q40 0 40 12t-2.5 16t-9.5 4q-3 0 -10 -3.5t-9 -3.5t-5 3.5t-8 3.5q-11 0 -18 -13q8 -8 15 -8l1 1h2zM68 658l13 11q5 7 55 7q8 0 19.5 -4.5t11.5 -8.5v-74
q0 -13 -26 -13q-73 0 -73 19v63zM90 645q0 -31 17 -31q13 0 18.5 0.5t10 4.5t4.5 13q0 5 -4 13q-16 -7 -18 -7l7 7h-35z" />
    <glyph glyph-name="j" unicode="j" horiz-adv-x="283" 
d="M-6 -130q2 0 7.5 -4t9.5 -4q6 0 11.5 7t13.5 18.5t18 19.5l-4 109l-3 445q0 13 46 13q12 0 25.5 -0.5t21.5 -0.5q19 -17 19 -58q0 -51 -3.5 -85.5t-3.5 -40.5q0 -1 3 -7l3 -6q0 -9 -6 -12v-136q7 -2 7 -12q0 -11 -7 -13q1 0 5.5 -23.5t9 -49.5t4.5 -32l-7 -5
q0 -4 4 -21.5t4 -49.5q0 -24 -32 -71q-1 1 -13 -10.5t-27 -24.5t-22 -15q-37 -13 -65 -13q-27 0 -27 19v55q0 3 3 5.5t5 2.5zM4 -171l-1 -1q0 -1 3.5 -6.5t3.5 -8.5q14 14 16 14q3 0 10 -7q22 4 44 12t44 26t22 41q0 8 -12 8q16 3 16 45v6q-13 -2 -29 -15q5 5 15 20t10 17
q0 19 -6 25l-3 1q-7 0 -16 -10t-18 -10l37 37q0 51 -9 75q-11 0 -31.5 -24.5t-21.5 -25.5h19l-19 -18l3 -1q14 0 22 15t18 16v-12l-37 -38v-5q9 0 19.5 2.5t12.5 2.5q-2 -2 -17 -11t-15 -16q0 -5 4 -13.5t4 -14.5h11q-16 -7 -16 -24h16q-12 -11 -24 -35.5t-38 -39.5
q-37 -21 -37 -27zM129 123l-25 -9q-26 -8 -26 -11v-33q13 0 32 19t19 34zM72 153q0 -32 18 -32q7 0 23 5.5t16 16.5q0 16 -9 16l-2 -1h-2q7 7 12 19h-7q-15 0 -32 -5.5t-17 -18.5zM106 147h3q-9 -10 -19 -13q13 13 16 13zM78 206q0 -12 3.5 -17.5t14.5 -5.5q21 0 29.5 8
t8.5 30q-7 0 -14.5 -4.5t-16.5 -12t-13 -9.5q0 8 19 24.5t19 44.5v25q-34 -31 -44 -50q26 6 37 6q-43 -20 -43 -39zM78 270q0 -1 6 -13q4 3 20 25t30 24v38h-18v7q-8 0 -23 -4.5t-15 -8.5l6 -19q2 2 10.5 7t9.5 5q5 0 5 -6q-13 -17 -25 -27h25q-31 0 -31 -28zM134 401
q-11 0 -30.5 -15.5t-19.5 -22.5v-7q1 0 14 2.5t24.5 5.5t11.5 4v33zM106 406q-34 0 -34 -26q21 0 44 25q-1 0 -5 0.5t-5 0.5zM119 443q-23 0 -41 -6v-26q56 0 56 15q0 17 -15 17zM54 585q0 7 -0.5 23.5t-0.5 27.5q0 36 68 36q24 0 25 -8q6 -66 6 -74q0 -14 -5.5 -21.5
t-11.5 -9t-18 -1.5h-8h-9t-8.5 0.5t-9 1t-7.5 2t-7.5 3.5t-5.5 4.5t-5 6.5t-3 9zM90 605q0 -17 31 -17v54q-12 0 -21.5 -12t-9.5 -25zM72 648q0 -21 6 -27l19 19q-2 8 -25 8z" />
    <glyph glyph-name="k" unicode="k" horiz-adv-x="484" 
d="M59 277v145q7 14 7 16q0 3 -9.5 16t-9.5 14q0 9 7 16q0 41 4.5 119t7.5 78h80l6 -6q-1 -10 -1 -30q0 -41 7 -123t7 -122q0 -10 -0.5 -26t-0.5 -23q0 -37 7 -71q29 26 77.5 83.5t76.5 82.5q14 7 37 7q14 0 21 -1t14.5 -6t7.5 -16q0 -13 -12 -27q-76 -84 -136 -178
q25 -36 73 -99t69 -92q6 -9 6 -19q0 -13 -6 -13h-81q-2 9 -23 9l-11 11q-12 12 -15.5 16t-14 16.5t-16.5 20.5t-14 20t-13.5 24.5t-9.5 24.5l-37 37h-7q0 -11 0.5 -36t0.5 -38q0 -111 -18 -111h-68q-6 10 -6 13q-7 87 -7 268zM121 46q-13 -9 -13 -29q19 0 19 17zM220 166
q0 -9 33 -49.5t35 -46.5q4 -15 17 -29t26 -14q8 0 24 7q-14 0 -14 12q0 2 2 6q-1 1 -6.5 12t-8.5 16.5t-10 15.5t-13 15.5t-14 10t-16 4.5q1 1 3 2t3 2t1 3q0 21 -44 27h26q-1 4 -7 13t-7 9q-2 0 -7.5 -3t-6.5 -3q0 25 -5.5 35t-29.5 19q1 -1 4 -1q18 0 59.5 58.5t53.5 84.5
h-18q-1 -1 -7 -9l-7.5 -10t-7.5 -9.5t-8.5 -10t-8 -9t-9 -9.5t-9 -8.5t-9.5 -8.5t-9.5 -6.5t-10.5 -5.5l6 -6q-8 -4 -14.5 -11t-13 -10.5t-17.5 -3.5q-3 0 -19 7.5t-22 11.5l-7 -7q0 -8 46.5 -53t46.5 -48zM90 114q0 -20 10 -20q3 0 10 17t7 22q-27 0 -27 -19zM116 206
q-5 0 -5 -6t5 -6q4 0 4 6t-4 6zM103 286q-17 0 -17 -20q15 0 17 20zM136 330q-15 0 -15 -13q15 2 15 13zM90 342v-6l7 6h-7zM116 385l11 -6v12zM325 391q-1 0 -19 -6h26q0 1 -3 3.5t-4 2.5zM90 416v-18q14 8 14 18h-14zM336 413q0 -3 3.5 -6.5t6.5 -3.5q7 0 16 13
q-3 7 -12 7q-14 0 -14 -10zM90 594v-112q38 0 38 30q0 8 -1 13.5t-2.5 7.5t-2.5 4t-1 3q6 9 6 12q0 27 -6 55zM104 650q-15 0 -15 -45q33 0 33 27q0 11 -3 14.5t-15 3.5z" />
    <glyph glyph-name="l" unicode="l" horiz-adv-x="291" 
d="M206 -16q-8 0 -21.5 -1t-19.5 -1q-29 0 -29 28q-14 0 -24.5 6t-19 20.5t-11.5 22l-11 27.5q-12 144 -12 407q0 153 7 210q14 7 43 12t43 12q2 1 3 1q9 0 9 -11q0 -76 -5.5 -217t-6.5 -186q0 -21 -3.5 -58t-3.5 -54q0 -30 2.5 -51.5t10 -44t24.5 -34.5t43 -12
q20 -7 20 -13q0 -7 -12.5 -35.5t-12.5 -30.5l-13 -5v8zM120 50q0 -21 25 -33t46 -12q6 0 10 8l-7 5q8 8 8 11q0 2 -17.5 11t-21.5 10q-3 0 -10 -3.5t-15 -3.5q1 0 13 12q0 17 -13 24q-3 0 -10.5 -13.5t-7.5 -15.5zM101 67q12 -6 13 -6q5 0 12 21t7 29q0 10 -2.5 13t-10.5 3
v101l-6 6q8 0 8 39q-10 0 -19 -10.5t-9 -21.5q0 -1 3.5 -3.5t3.5 -3.5l-6 -6v-43q7 -2 7 -13q0 -12 -3.5 -22t-3.5 -22q0 -11 10 -21t10 -17q0 -3 -6.5 -11.5t-7.5 -11.5zM121 303q-26 0 -26 -32q1 0 6.5 4t6.5 4.5t5 4t5 5.5t2 6t1 8zM89 349q0 -7 4 -15.5t4 -19.5h23v32
h-12q12 16 12 45q0 6 -3 16t-3 16q2 10 5.5 22.5t5.5 23t2 25.5q0 5 -7 12q0 -14 -12 -14q-1 0 -4 1l-3 1q11 6 11 24h15v37q-22 -26 -29 -26l-1 1h-2q19 21 25 37q-37 0 -37 -14q0 -8 1 -15t3 -11.5t4 -8t3 -5.5l1 -2q0 -2 -6 -15.5t-6 -20.5q6 6 12 6q1 0 3.5 -2.5
t2.5 -3.5q-12 -12 -12 -21q0 -5 5.5 -7t6.5 -3q-16 -5 -16 -45q7 0 12.5 4.5t7.5 4.5h1l2 -1q-2 -5 -19 -32q3 -5 19 -5q-2 -3 -10.5 -8t-8.5 -13zM89 617v-37q23 29 25 30l-1 -4q-1 -4 -4.5 -12t-7.5 -14q5 -1 11 -1q15 0 15 6v98q-26 0 -34 -12.5t-8 -41.5h14q0 -1 1 -3
l1 -2q0 -2 -4.5 -4.5t-7.5 -2.5z" />
    <glyph glyph-name="m" unicode="m" horiz-adv-x="889" 
d="M52 1q0 5 -0.5 27.5t-0.5 26.5q0 28 6.5 82.5t6.5 83.5q0 25 -4 49t-4 34q0 31 3.5 86.5t3.5 67.5l7 7q2 -1 21 -1q13 0 23 3t16 3q7 0 13.5 -12t6.5 -18q12 5 32.5 15.5t31 15t28.5 9t38 4.5q89 0 159 -81q1 0 2 -0.5t2 -0.5q3 0 38 25t39 31q13 4 80 19q85 0 135.5 -56
t61.5 -141q0 -3 -0.5 -18t-0.5 -25q0 -27 7 -37q0 -27 0.5 -68.5t0.5 -55.5q0 -42 -13.5 -64t-55.5 -22q-18 0 -30 9t-16.5 27t-5.5 33.5t-1.5 39t-1.5 33.5q0 6 -6.5 58t-6.5 59q0 8 3.5 23.5t3.5 22.5q0 60 -68 83v6q-9 -7 -40.5 -11t-58 -16t-31.5 -41q0 -4 -0.5 -23
t-0.5 -22q0 -42 7 -124.5t7 -123.5q0 -23 -76 -23q-42 0 -42 21l-12 -7q7 133 7 191q0 53 -18 136q-19 21 -35.5 30.5t-45.5 18.5l-2 2q-2 1 -3 2l-1 2q-3 -5 -29 -20.5t-45 -21.5q0 -2 -12 -39t-13 -47v-10q-1 -11 -1 -15q0 -17 4 -49.5t4 -49.5q0 -144 -26 -160
q-1 0 -10 -0.5t-11 -0.5q-20 0 -62 14q-10 3 -8 4zM125 39l-25 -18h25v18zM715 88q0 -17 5.5 -32.5t5.5 -30.5q47 0 47 29q0 7 -7 9q7 2 7 12q0 5 -3.5 15.5t-3.5 16.5l6 6q3 15 3 40q-20 0 -64 -27q0 -11 5 -21.5t5 -16.5h-6zM403 39l-7 -6h31v12h13q0 -2 -1 -5l-1 -2
q0 -2 8 -5l6 6v43q-10 -6 -26 -13.5t-23 -12t-7 -7.5q0 -5 7 -10zM82 52v-16q8 0 18 16h-18zM389 75v-12q25 1 45 20.5t20 43.5q-20 0 -39 -29h18q0 -10 -44 -23zM131 107q-15 -12 -15 -20q16 0 16 13v4zM75 107q0 -10 7 -12q13 8 18 24q-25 -8 -25 -12zM389 103q0 -8 7 -8
l50 49q-25 0 -38.5 -6.5t-16 -13.5t-2.5 -21zM748 168l-31 -24h6q9 0 30.5 9t21.5 13q0 15 -18 15q-3 0 -13 -2t-22 -8t-12 -15v-3q1 -3 1 -4q19 21 31 21l3 -1zM110 174q-20 0 -22 -18l3 -1q3 0 22 19h-3zM452 189q-17 0 -43 -33h43v33zM433 212q-7 -11 -23.5 -17.5
t-16.5 -26.5q22 0 40.5 24.5t18.5 46.5q0 16 -9 16q-13 0 -33.5 -17.5t-20.5 -25.5q0 -6 7 -6q4 0 15 3t22 3zM766 231q-23 -15 -55 -50q61 0 61 31q0 1 -6 19zM698 209q0 -4 3 -7t5 -3q5 0 29 24h-6q-31 0 -31 -14zM139 238q-10 -1 -18.5 -8.5t-8.5 -17.5l1 -6q16 2 21 8.5
t5 23.5zM729 254l-25 -23q1 0 26 3.5t36 8.5q0 7 0.5 19t0.5 19q0 24 -7 45h-18q3 1 7.5 8.5t4.5 8.5q0 20 -31.5 52.5t-49.5 32.5q-5 0 -11 -2.5t-12 -2.5q0 1 2.5 4t2.5 5q0 14 -61 14q-28 0 -55.5 -14t-43.5 -36l6 -6l62 32l-6 -13q20 14 30 19l-12 -19q65 -13 70 -13
q2 0 9 1t8 1q0 -17 7 -17q1 0 5 0.5t7 0.5q-1 -9 -1 -11q2 -2 4.5 -8t5 -10.5t5.5 -4.5q6 0 28 11q-20 -20 -20 -27q0 -4 7 -6t7 -3q0 -10 -6 -19h12q-5 -6 -8.5 -27.5t-15.5 -27.5l3 -1h6q13 0 21 6zM415 261q-27 -6 -27 -20q0 -3 1 -5q8 2 26 17.5t24 15.5v28
q-12 -5 -33.5 -19.5t-21.5 -16.5h31zM427 310q-16 0 -30 -8.5t-14 -23.5q36 17 50 26q0 6 -6 6zM476 379q-16 0 -54 -32t-38 -43q15 5 30 8.5t20 7t16 15.5t33 43h-3q-3 1 -4 1zM409 354q-38 -3 -38 -23q0 -3 7 -3q3 0 17 7.5t14 12.5v6zM150 371l-31 -30q21 0 39 20.5
t31 40.5t22 20l-6 -13q8 1 27 6.5t29 5.5v-8q7 0 18 7.5t19 7.5l-7 -6q15 -13 35 -13q22 0 22 16q0 28 -64 28h-17.5t-12.5 -2t-14.5 -6t-15.5 -12l6 13q-81 -30 -81 -68q0 -5 1 -7zM94 354l-6 -6h6v6zM409 384q-3 0 -20.5 -11.5t-17.5 -13.5q38 0 50 19zM389 390
q-31 0 -31 -20q24 0 38 20h-7zM113 386v-8l12 6q-7 8 -7 23q0 4 3.5 11t3.5 10q0 6 -22 6q-15 0 -15 -9q0 -5 3 -11.5t6 -6.5q1 0 3 2l-12 -19q0 -1 3 -3.5t5 -2.5q3 0 9.5 1t7.5 1zM340 400q0 -10 12 -10q20 0 44 13q-17 19 -30 19q-4 0 -7 -1l-4.5 -1.5t-4 -3.5t-3.5 -4
t-3.5 -6t-3.5 -6z" />
    <glyph glyph-name="n" unicode="n" horiz-adv-x="577" 
d="M407 -7l-5 8q0 17 -9 29q3 102 3 103q0 107 -21 188q-11 8 -21.5 20t-16.5 17t-20 9t-37 4q-41 0 -96 -32q-20 -12 -20 -58q0 -107 14 -145v-129q0 -6 -9 -6q-4 0 -24.5 1.5t-39.5 3.5l-19 1l-19 12q-1 1 -3.5 60t-2.5 94q0 30 3.5 84t3.5 104q0 22 -0.5 54t-0.5 35
q15 12 37 12q20 0 33.5 -21t19.5 -21q19 0 62 24.5t70 24.5q17 0 37.5 -6t50 -18t30.5 -13q100 -39 100 -280q0 -20 -4.5 -58t-4.5 -56q0 -13 1 -19q-9 0 -10.5 -5t-1 -11.5t-10 -11.5t-34.5 -5q2 6 2 11q0 2 -1 2t-3.5 -2.5t-7 -5t-7.5 -3.5q-12 0 -19 5zM474 111
q-27 -20 -33 -37t-6 -55h37q0 32 -16 37q18 8 18 12v43zM117 56q-2 -4 -12 -9.5t-10 -16.5h53q6 3 6 9q0 4 -3.5 11.5t-3.5 9.5t4.5 5t8.5 3q-4 2 -6.5 13.5t-8.5 11.5q-10 0 -47 -37h19zM123 99q-20 0 -30 -6t-10 -25h15l31 31h-6zM450 121q-16 -4 -16 -24q16 0 31.5 15
t15.5 30q0 4 -1 6q-6 58 -8 58q-1 0 -9.5 -6t-17.5 -13.5t-9 -11.5q0 -2 3 -5t5 -3q-16 0 -16 -19q10 0 21 9t19 9v-4q-29 -16 -36 -41h18zM92 148v-45q9 0 29.5 32t20.5 46q0 13 -3.5 38.5t-3.5 38.5q0 8 1 13l-13 -5q8 10 10.5 17t4 18t3.5 20q4 16 14 29.5t19.5 20
t16.5 13.5t7 12q0 3 -1 5q-7 -2 -23.5 -16t-22.5 -14q-13 0 -22 18.5t-18 18.5q-4 0 -7 -1q6 3 6 13q0 2 -2 3.5t-5 2.5l-3 1q-2 0 -5 -8t-3 -12q0 -14 3.5 -42.5t3.5 -34.5q0 -5 -0.5 -12.5t-0.5 -8.5q6 0 6 -6q0 -7 -6 -24.5t-6 -25.5h25l-19 -18l6 -7q-20 -15 -20 -46
q19 0 26 16q0 -4 2 -4q0 -1 -10.5 -15t-10.5 -17h32zM150 153q-10 0 -25.5 -16t-15.5 -26h32q9 0 9 42zM431 226q0 -28 -2 -35q17 0 29 15t12 33l-1 7q-1 6 -1 7q-37 -15 -37 -27zM437 253q-13 0 -13 -12l1 -6q4 1 8.5 7t4.5 8zM456 297q-13 -4 -24 -15t-11 -23q41 0 41 19
q0 11 -6 19zM444 309q-30 -4 -30 -27q13 0 27.5 13t14.5 26q0 4 -5 11t-10 7q-11 0 -20 -9.5t-9 -20.5h32zM400 333l7 -7q13 6 16 12.5t3 19.5q0 17 -7 18q-26 -10 -26 -31h20zM258 407q51 0 80 -12q5 -2 22 -16.5t25 -14.5t8 7l-5 5q2 4 10.5 8t8.5 8q0 10 -22 10
q-7 0 -13 -3.5t-9 -3.5q-5 7 -9 7l-2 -1l5 12q-7 7 -20 7q-6 0 -16 -1.5t-13 -1.5v20q-38 0 -43 -17v12q-5 -3 -19.5 -5.5t-25.5 -8t-11 -16.5l3 -2q3 -3 3 -5l13 12l6 -6h3q2 0 8.5 4.5t6.5 7.5z" />
    <glyph glyph-name="o" unicode="o" horiz-adv-x="574" 
d="M204 -19l-78 49q-25 0 -47.5 38t-34.5 46q-24 59 -24 153l38 106q1 2 27 28.5t39 38.5q27 24 67 40t76 16q51 0 105 -36q73 -49 104.5 -111t31.5 -152q0 -3 -0.5 -17.5t-0.5 -15.5q-2 -4 -10.5 -9.5t-8.5 -15.5t6 -13q-9 0 -19 -31.5t-17 -36.5q-103 -77 -254 -77zM310 4
q-11 0 -13 -8l19 7l-3 1h-3zM242 29q21 -9 51 -9q19 0 49 10.5t51 21.5t21 13v7h-9.5h-10t-8 -0.5t-9 -1.5t-7.5 -2.5t-9 -4t-8 -5.5q-12 -9 -13 -9h-80zM377 29l-19 -8l3 -1h4q10 0 12 9zM212 48q-11 0 -19.5 -7.5t-8.5 -17.5q28 0 28 25zM165 58v-20q12 0 23 5t11 15
q0 7 -13.5 13t-20.5 6h-3q-3 -1 -20 -6t-18 -6q0 -19 19 -19q13 0 22 12zM239 47q-14 0 -16 -7h3q3 -1 4 -1q10 0 18 7h-4q-4 1 -5 1zM431 52q-8 0 -11 -6l13 6h-2zM94 99v-4q13 -26 21 -26q11 0 23 8.5t12 19.5q-16 0 -20 -8v31l-36 -18v-3zM137 225q-1 -6 -1 -16
q0 -84 87 -126q4 0 24 -1t23 -1q87 0 118.5 41t31.5 131q0 16 -8.5 47.5t-16.5 47.5q-27 6 -49 43q-10 0 -31.5 4t-32.5 4q-34 0 -57 -12t-51 -39q-5 -5 -7.5 -22t-10.5 -21q-4 -9 -11 -39.5t-8 -40.5zM435 114q-13 0 -24.5 -10t-11.5 -23q53 0 53 27q0 6 -17 6zM81 120v-6
q18 3 43 18q0 20 -9 20l-3 -1zM443 151q0 -16 -16 -25q1 0 7.5 -0.5t8.5 -0.5q28 0 28 26h-28zM62 157l7 -25q1 1 5.5 3.5t6.5 4t6 5t6.5 6t4 6t1.5 7.5q-10 1 -11 1q-26 0 -26 -8zM453 203q0 -10 -4.5 -20t-4.5 -21q38 0 38 26q0 15 -29 15zM76 182l30 -7q9 0 9 27
q-4 0 -18.5 -7t-20.5 -13zM103 218h-45q-10 0 -10 -31q11 0 33 10.5t22 20.5zM445 230q8 -13 34 -13q0 39 -9 39zM112 274q-5 -4 -27.5 -16t-26.5 -20h48q6 0 6 36zM78 287q-31 0 -31 -33q19 0 52 26q0 7 -15 7q-2 0 -4 -1h-1zM452 266v-1q0 -2 -2.5 -5.5t-4.5 -3.5
q1 0 2 -0.5t2 -0.5q2 0 9 6l7 6q11 0 11 7q0 6 -4.5 15.5t-10.5 9.5q-16 0 -16 -12q0 -5 3.5 -11.5t3.5 -9.5zM127 318q-6 0 -15 -7t-9 -13q20 0 27 19q-2 1 -3 1zM439 317v-14q5 0 9.5 4.5t4.5 9.5h-14zM85 348q-18 0 -18 -38q45 0 57 26q-16 12 -39 12zM426 339
q0 -13 27 -13q0 22 -13 22q-14 0 -14 -9zM94 364q0 -12 17 -12q26 0 26 2l6 25q-24 6 -28 6q-3 0 -11.5 -8t-9.5 -13zM414 361v-9q17 0 19 9h-19zM395 385q0 -15 13 -19q19 12 19 13q-2 2 -7.5 7t-9.5 9t-5 4q-10 0 -10 -14zM143 416q2 -3 2 -6q0 -4 -8.5 -9.5t-8.5 -11.5
h14q32 0 32 9l-18 12q0 6 6 6t18 -3.5t14 -3.5q12 0 30 19t30 19q-2 -1 -15 -1q-18 0 -22 7q-14 0 -38.5 -17t-35.5 -20zM363 410q0 -14 27 -14v14h-27zM279 428q4 0 32.5 -6t41.5 -6q10 0 19 6q-10 13 -30.5 22t-35.5 9q-3 0 -13.5 -10t-13.5 -15z" />
    <glyph glyph-name="p" unicode="p" horiz-adv-x="597" 
d="M62 -221q59 6 59 27q-9 0 -21 -5t-20 -5q-13 0 -13 8v227q0 8 -3 23l-2 15q0 4 2.5 42.5t2.5 43.5q0 22 -3 50.5t-3 66.5q0 52 1 62l-7 5q7 28 7 44q0 2 -7 37q0 24 8 30.5t30 6.5q31 0 37 -2.5t18 -21.5q82 42 135 42q101 0 158.5 -59t57.5 -155v-44q0 -65 -12 -93
q-12 -29 -55 -74t-69 -45q25 22 25 23t-1 1l-54 -34q-3 -4 -6 -4q-2 0 -11.5 3.5t-15.5 3.5q-15 0 -28 -16q-7 1 -56 13q-8 19 -44 19q-5 0 -14.5 -2.5t-9.5 -4.5v-198q6 -16 6 -35q0 -15 -66 -15q-17 0 -26 1v19zM98 -122v-50q0 -2 7 -6q19 0 19 11q0 17 -3.5 47.5
t-3.5 47.5q0 23 -22 23q-2 0 -15 -8h18q-12 -12 -12 -20q0 -2 9 -20.5t10 -19.5zM92 1q4 -3 10 -13t15 -11q8 8 8 22q-17 0 -20 8q-1 0 -13 -6zM296 14q-14 16 -29 16q-14 0 -17 -16h46zM222 28q-22 0 -24 -9h24v9zM314 31l12 -12q9 5 9 12h-21zM111 56q-16 -8 -19 -31
q3 0 9 -0.5t8 -0.5q15 0 15 11q0 12 -13 21zM147 219q1 -64 39.5 -107.5t103.5 -43.5q72 0 91 32q-5 2 -5 12q0 14 10 14q0 9 7.5 22.5t7.5 21.5q0 5 -3 14.5t-3 14.5q0 2 4 8l4 6q0 3 -11 15t-11 16t3.5 10.5t3.5 8.5l-1 3q-1 2 -3 5.5t-4 7.5t-3 7.5t-1 4.5v17
q0 13 -13 24.5t-13 23.5q-7 0 -18.5 5t-19.5 10t-9 6q-8 0 -38 -6v7q-9 0 -28 -16t-28 -16q-4 0 -6 1l-18 -26h-6q-7 0 -19.5 -41.5t-12.5 -60.5zM148 105l12 -24q7 0 7 10q-4 14 -19 14zM445 94q-3 -2 -3 -4q0 -5 2 -9l12 12q-10 1 -11 1zM108 105q-23 0 -23 -9q1 -2 1 -3
q22 7 25 12h-3zM129 149l-24 -25q37 0 37 13q0 15 -7 15q-3 0 -6 -3zM431 142l19 -18q13 9 13 28q0 1 -1 5v4q-20 -5 -31 -19zM105 161q-19 -9 -19 -31q19 11 19 31zM438 199q1 -2 12 -7l12 -6h3q5 0 7.5 23.5t2.5 37.5q0 8 -3.5 17t-9.5 9q-8 -8 -15.5 -12.5t-11 -5.5
t-6 -3.5t-2.5 -7.5h33q2 -7 2 -13q0 -15 -24 -32zM117 229l-6 -12h6v12zM74 291q2 -5 7.5 -9.5t8.5 -4.5q2 0 5 5t3 9h-24zM117 303q1 -4 7.5 -10.5t10.5 -8.5q7 4 12 19t7 18h-25l6 6q-2 1 -3 1q-6 0 -10.5 -9.5t-4.5 -15.5zM413 303q0 -6 9 -6q40 0 40 16q0 9 -6 14
q-13 -5 -28 -13t-15 -11zM135 352q4 -6 13 -6q17 0 35 13t30 29t25 30t21 15q-6 -12 -6 -13l6 -12q7 4 17.5 7.5t18 8t13.5 14.5q-12 8 -32 8q-34 0 -55 -10t-42 -35q1 -1 2 -1t3.5 1.5t6 3.5t7.5 3v-1q1 -1 1 -2q0 -7 -13.5 -17.5t-30 -20.5t-20.5 -15zM431 372
q-13 0 -18 -14h5q6 -1 7 -1q16 0 19 8q-4 7 -13 7zM117 391q-13 0 -25 -14h25v14zM80 414q0 -2 4.5 -13t7.5 -12q19 14 19 22q0 6 -9.5 10.5t-14.5 4.5q-1 0 -4 -4.5t-3 -7.5zM342 433q-11 0 -11 -13h21q0 13 -10 13z" />
    <glyph glyph-name="q" unicode="q" horiz-adv-x="603" 
d="M364 37q-7 -3 -10 -4.5t-2.5 -3t-2.5 -4.5t-10 -7q-37 -23 -58.5 -27.5t-77.5 -4.5q-24 0 -24 7q0 3 2 8t2 8q-2 0 -13 -2t-14 -2q-2 0 -7.5 5t-16 13.5t-21.5 13.5q-35 17 -57.5 67.5t-22.5 96.5q0 35 9.5 71.5t20.5 61t32 66.5q54 74 166 74q29 0 70 -21.5t60 -46.5
q12 36 12 50q0 6 26.5 12t38.5 6q9 0 9 -19l13 6q0 -2 -3 -12t-4 -12q0 -18 3.5 -53t3.5 -55q0 -60 -9.5 -180.5t-9.5 -179.5q0 -30 9.5 -88t9.5 -86q0 -18 -54 -18q-36 0 -47 22t-11 70q0 7 0.5 24t0.5 26q0 1 -13 118zM397 -24q0 -36 4 -88q2 -16 9 -47t10 -33l6 -6h-6
q15 9 43 12q0 3 -3 11t-4 8t-4 -1l-4 -2q0 4 1.5 32t1.5 33q-1 6 -13 74q-7 7 -41 7zM420 11q-7 -4 -14 -12.5t-7 -11.5h39q1 0 3.5 9.5t2.5 14.5t-12.5 9t-17.5 4q-12 0 -16.5 -4t-4.5 -15q1 -1 3 -1q3 0 11 3.5t13 3.5zM192 20q0 -9 12 -9l18 31q-30 -9 -30 -22zM266 46
q-8 0 -17 -5.5t-9 -13.5q0 -1 0.5 -2t0.5 -2l25 14v9zM136 48l12 -11q13 5 13 23q-18 0 -25 -12zM302 42v-7q16 0 19 7h-19zM388 55q0 -16 8 -18q3 0 11.5 6t8.5 12h-28zM420 42q2 -6 12 -6q14 0 14 13q-18 0 -26 -7zM383 67l61 -7v5l1 5q0 14 -7 15q-29 0 -55 -18zM93 85
l12 -12l19 25q-21 -6 -31 -13zM192 104q1 1 2 1t2 -1h2q50 -25 91 -25q49 0 81 36t32 88q0 29 -21 66t-42 64.5t-21 32.5q-188 0 -188 -120q0 -78 62 -142zM429 111q-9 -3 -9 -7q2 -1 3 -1t5 2.5t4 4.5q-2 1 -3 1zM127 142q-5 0 -11.5 -4.5t-13.5 -11.5l-9 -9h3q41 0 41 12
q0 13 -10 13zM68 141v-12l13 12h-13zM432 147q16 -8 19 -8v26zM118 184q-14 -4 -18 -12h18v12zM56 196v-13q8 0 12 8zM74 227q9 -15 28 -15q0 21 -9 21q-13 0 -19 -6zM438 252q12 -7 19 -7v14q-12 0 -19 -7zM68 258v-6h6zM105 283l1 5q2 5 2.5 8t-0.5 4q-2 0 -8.5 -8
t-6.5 -9q0 -3 5 -3q6 0 7 3zM432 296q0 -2 2.5 -4.5t3.5 -2.5q13 0 16.5 3t3.5 13v5l-1 4q-22 -15 -25 -18zM396 314v-7q6 0 18 7h-18zM414 344q6 0 22 -5t16 -10v-1l-1 -2q7 1 7 13q0 8 -0.5 17.5t-0.5 12.5q-28 -5 -43 -25zM327 383v-2l37 -30h6q19 0 19 9q0 3 -23.5 21.5
t-30.5 18.5q-8 0 -8 -17zM266 400q24 -6 48 -6q13 0 13 17q0 9 -16.5 14.5t-27.5 5.5q-15 0 -16 -7q-1 -2 -1 -6q6 -4 6 -5q0 -7 -6 -13zM451 431q-19 -12 -19 -37q25 2 25 19q0 10 -6 18zM235 438q-15 0 -15 -21q14 0 21 20l-3 1h-3zM414 443l6 -18q8 5 12 18h-18zM109 362
q0 -9 12 -9l18 31q-30 -9 -30 -22zM183 388q-8 0 -17 -5.5t-9 -13.5q0 -1 0.5 -2t0.5 -2l25 14v9zM219 384v-7q16 0 19 7h-19z" />
    <glyph glyph-name="r" unicode="r" horiz-adv-x="383" 
d="M53 53v418h105q12 0 12 -8q0 -3 -5 -20t-5 -19l23 23q88 57 140 57q3 -4 3 -24q0 -10 -2 -33.5t-2 -36.5q0 -6 2 -16q0 -1 -33 -10.5t-68.5 -31.5t-39.5 -53q-1 -5 -4.5 -23.5t-6.5 -37t-3 -29.5q0 -25 7 -76.5t7 -78.5q0 -18 -6 -44l6 -7q-1 -6 -26 -9.5t-36 -3.5
q-10 0 -12 7q-7 -13 -28 -13q-3 0 -12 2.5t-9 3.5zM158 35q-41 0 -49 -20h13q36 0 36 12v8zM84 64q0 -10 6 -25q14 7 26 21t17 29q-5 -3 -19 -8t-22 -9t-8 -8zM152 84q-23 -22 -37 -45h7q5 0 20.5 6t15.5 8zM146 151q-6 -9 -21 -27t-22 -29q29 0 39 6.5t10 31.5q0 12 -6 18z
M78 120q0 -1 6 -19q3 3 10.5 10t12 11.5t10 10.5t8 10.5t2.5 7.5q-4 1 -5 1q-44 0 -44 -32zM90 163q4 -5 10 -5q17 0 31.5 11t14.5 27q0 22 -6 29q-1 -2 -20.5 -24.5t-29.5 -37.5zM124 231q-40 -6 -40 -12v-38l43 50h-3zM96 244v-7q12 1 29 7.5t21 10.5q2 8 6 28t6 28.5
t6.5 25t8.5 27.5t10 25t13 27q-64 -53 -100 -117h4q36 9 46 12v-5zM103 281q-23 0 -23 -26h10l19 26h-6zM109 342q-16 0 -21 -6t-5 -19q0 -1 0.5 -5.5t0.5 -5.5zM131 419q0 -25 -35 -65q14 5 29 13.5t15 12.5v61l-56 7v-20h4q0 -7 -2.5 -14t-2.5 -13q17 0 32 15l-31 -31v-13
l8 8q7 9 14.5 17t15 15t9.5 7zM235 409l-30 -31q5 -1 6 -1q11 0 18 6.5t7 16.5v4q-1 4 -1 5zM256 444q16 0 16 -22q0 -4 -1 -12t-1 -11q31 10 31 45q0 8 -14 18.5t-14 14.5q0 1 2 3q-13 -13 -13 -14v-3l1 -2q-6 -6 -19.5 -11.5t-21.5 -13.5t-8 -24q9 2 21 17t21 15z" />
    <glyph glyph-name="s" unicode="s" horiz-adv-x="458" 
d="M215 2l-45 6q-5 0 -42 13t-43 13q-5 0 -10 -3.5t-9 -3.5q-19 0 -19 70q0 29 10 29q7 -2 18 -10t16 -8l117 -26q20 0 47.5 18.5t27.5 37.5q0 16 -32.5 42.5t-40.5 26.5q-14 0 -31 9.5t-26 9.5q-46 0 -82 46.5t-36 96.5q0 30 19 52t43 32.5t58 16.5t53 7t38 1
q110 0 110 -26v-66q0 -9 -18 -9q-80 33 -116 33q-30 0 -47 -22.5t-17 -52.5q0 -4 6.5 -13.5t13.5 -10.5l105 -19q40 -7 79 -52t39 -83q0 -1 -4 -11t-4 -14q0 -1 2.5 -3.5t4.5 -2.5q-8 -6 -19 -36q-7 -15 -14 -26.5t-17.5 -20t-17 -13.5t-22.5 -10t-22 -6.5t-27 -5.5t-28 -5z
M97 58q5 -11 45 -20.5t57 -9.5q9 0 9 6q-9 4 -13 24h-61q-8 19 -63 19q0 -25 13 -25q11 0 13 6zM214 49q0 -16 38 -16q14 0 20 3t6 7.5t3.5 10.5t12.5 10q0 -8 2.5 -10t9.5 -2q18 0 25 6q-3 4 -18 13l12 11q3 -6 13 -6q12 0 18.5 12t6.5 25q0 9 -2 13l-60 -18
q-5 -5 -7.5 -14t-5.5 -12l-74 -29v-4zM361 181h-1q-3 0 -21.5 -16t-18.5 -20v-9q13 0 19 0.5t16.5 2.5t15 8.5t4.5 16.5q0 14 -5 16q-4 1 -9 1zM347 212q-10 0 -27 -13t-19 -18q11 0 28 4.5t30 4.5q0 22 -12 22zM226 225q6 -1 26.5 -13t23.5 -12q10 0 30 9t26 18
q0 18 -34.5 28t-76 14t-43.5 5q-5 2 -14 6.5t-15.5 8.5t-8.5 4q-16 0 -31 -19q6 -13 21 -13q6 0 16.5 3.5t18.5 3.5q-15 -6 -19 -13q5 -8 35 -14t45 -6v-10zM60 363q0 -19 11.5 -48t28.5 -29q2 0 34 25q0 16 -3.5 21.5t-15.5 9.5q20 0 25 36q-3 3 -10 4t-12.5 2t-5.5 3
q0 1 10.5 6t22 13t14.5 17q25 0 25 8q0 10 -14 10q-31 0 -70.5 -22.5t-39.5 -55.5zM301 434q9 -12 24 -12l6 1q0 8 -8 13t-17 5q-1 0 -3 -3t-2 -4zM196 447v-6h98q-29 6 -98 6z" />
    <glyph glyph-name="t" unicode="t" horiz-adv-x="375" 
d="M153 14q-33 0 -33 127q0 19 4 49t4 40q0 48 -13 161q-8 1 -34.5 7t-34.5 6q-5 0 -12 14.5t-7 23.5q0 17 11.5 25t25.5 7.5t26 1t13 7.5q0 68 12 80q13 -5 13 -47v-18l-1 -9l6 -6l11 5q12 6 22.5 12.5t10.5 11.5q0 1 -0.5 4t-0.5 5v-1q6 37 6 50h-2q-4 0 -25 -9.5
t-22 -9.5q5 5 25 19q-20 4 -31 12q13 11 38.5 12.5t35.5 5.5q0 -4 6 -9.5t6 -8.5q0 -1 -3 -12t-3 -13q0 -49 15 -61.5t59 -12.5q7 0 20 3t22 3q3 0 8.5 -4.5t5.5 -7.5v-74l-7 -6q-90 0 -123 -6q0 -1 0.5 -3.5t0.5 -3.5q0 -10 -6.5 -31t-6.5 -30q0 -2 2.5 -4.5t3.5 -2.5v-104
q7 -7 7 -31v-11t-0.5 -9.5t-0.5 -4.5q5 -1 6 -13.5t2.5 -27t19.5 -28.5t52 -17l7 -1q8 -1 10 -1t7.5 -2t7 -4.5t3.5 -6.5t2 -10q0 -13 -2 -22t-4 -13.5t-8 -14.5t-10 -17q-26 2 -76 18.5t-71 17.5zM287 27q-14 -8 -14 -19h23q0 16 -9 19zM203 35q0 -21 15 -21q14 0 20 13
q1 0 3 -1.5t3 -1.5v-11q24 0 43 26q-2 12 -43 12q-10 0 -19 -6q1 1 1 4q0 6 -11 10.5t-17 4.5t-16.5 -3t-17.5 -3q1 3 10.5 8t17.5 8l9 3l1 2q0 9 -7 9q-1 0 -4 -0.5t-5 -0.5q0 3 1.5 19.5t1.5 18.5q-1 12 -6 36t-6 26l-7 6l7 6q0 1 0.5 10t0.5 13q0 22 -4.5 63.5t-4.5 64.5
q-12 0 -18 -14.5t-6 -28.5q0 -12 3 -16t3 -5q0 -4 -3.5 -9t-3.5 -14q0 -21 10 -21q2 0 4 1q-5 0 -9 -15.5t-4 -28.5q7 0 7 -5q0 -4 -7 -13.5t-7 -10.5q0 -12 5 -22t5 -14q0 -8 -9 -21q7 -18 12 -18q18 0 26 6q-4 -6 -15.5 -12t-16.5 -7q0 -47 58 -47zM139 361q0 -19 6 -20
q26 20 26 43l-1 7q-12 0 -21.5 -10.5t-9.5 -19.5zM182 434q-5 -3 -19.5 -11t-22.5 -14t-8 -12h13l37 31v6zM53 437q0 -6 22.5 -11t32.5 -5l56 44h13l-32 -31v-6l62 31q-7 3 -18.5 17t-17.5 14q-14 0 -14 -13h7q-8 -13 -36 -21t-51.5 -12t-23.5 -7zM282 453l-31 -1
q-8 -1 -23 -10.5t-15 -13.5v-8q5 0 20.5 9t17.5 11l-13 -19q12 0 34 3.5t33 3.5l7 24q-3 0 -15.5 0.5t-14.5 0.5zM238 459q-14 0 -25 -19q5 1 16.5 7.5t14.5 11.5h-6z" />
    <glyph glyph-name="u" unicode="u" horiz-adv-x="571" 
d="M357 53q-1 0 -18.5 -20.5t-47.5 -32.5t-82 -12q-73 0 -112 61.5t-45 147.5q0 3 -3 37t-4 37v13q12 60 12 67q0 4 -2.5 34.5t-2.5 33.5v10q0 15 5.5 30.5t18.5 15.5l62 -7q14 0 14 -60q0 -22 -2 -44l6 -6q0 -23 -0.5 -61t-0.5 -53q0 -89 21.5 -124t91.5 -35q38 0 61 7
t37 31q0 6 0.5 18t0.5 18q0 36 -4.5 108t-4.5 109q0 66 2 68l11 6h69q5 0 15 -185.5t10 -246.5q-8 -28 -74 -28q-21 0 -28 7t-7 27q0 7 0.5 17t0.5 12zM169 30q16 -12 53 -12q23 0 33 12v-14q29 0 42.5 6t25.5 27l7 -6l18 18q-2 0 -7 0.5t-6 0.5q-19 0 -31 -7h-92
q-4 0 -20.5 -10t-22.5 -15zM386 23l9 -9l33 11v5zM125 49q24 -7 31 -12l37 18v6h-12v13h-56v7l5 -1h8q24 0 24 12q0 10 -6 13l-18 -13q0 6 3 15t3 16q-3 -2 -16.5 -5t-23.5 -7.5t-10 -12.5l1 -6zM426 75q-11 0 -22.5 -11t-12.5 -21l6 -1h11q26 0 26 15q0 18 -8 18zM371 66
q0 -4 7 -11l37 25v16q3 0 8 -2t6 -2q5 0 5 13q0 3 -3.5 11t-4.5 8q-5 0 -10.5 -4t-9.5 -7l-3 -3q0 -10 7 -12q-9 -14 -21.5 -23t-17.5 -9zM82 155v-4v-4.5v-4.5t0.5 -4.5t1 -4t1.5 -4l2 -3t3 -2.5t4 -1.5t5 -0.5q16 0 30.5 6.5t14.5 19.5q0 12 -12 12q-3 -1 -12 -12t-13 -19
l-12 6q21 24 24 37q-4 0 -13.5 -0.5t-13 -1t-7 -4.5t-3.5 -11zM396 139q0 -14 7 -16q19 19 19 21q0 3 -7 6.5t-12 3.5q-7 0 -7 -15zM430 193q-10 0 -19 -8.5t-9 -19.5q18 0 23 4.5t5 23.5zM132 246q-26 -22 -56 -61h56q1 0 3.5 7t2.5 11q0 7 -3 21t-3 22zM410 235
q-20 0 -20 -46q15 0 25.5 12t10.5 27h-11q10 8 10 55q-13 0 -21 -10t-8 -23q3 -15 14 -15zM74 253q0 -37 8 -37l32 30v7h-40zM82 271l37 -5h-5q3 0 9 3t9 3v37q0 2 -1 2q-3 0 -13 -7t-21 -16t-15 -11v-6zM384 293q0 -5 3 -11t7 -6q12 0 23 22t11 35q0 2 -2.5 6.5t-4.5 4.5
l-30 -30l-1 -2q0 -9 13 -9q-5 0 -12 -4t-7 -6zM120 326q-27 0 -35.5 -6.5t-8.5 -35.5q44 30 44 42zM125 370q-27 -23 -30 -37h16t9.5 2t7 6.5t1.5 12.5q0 4 -4 16zM385 342q0 -9 6 -9q22 13 26.5 24.5t4.5 45.5q0 23 -16 23q-3 0 -8.5 -0.5t-6.5 -0.5l-6 -46q17 -4 17 -8
q0 -2 -8.5 -11t-8.5 -18zM82 355q0 -15 6 -16q3 9 20.5 26.5t17.5 31.5q0 17 -5 20l-5 3q0 4 4 15q0 10 -38 10v-38l5 -23q0 -4 -2.5 -12.5t-2.5 -16.5z" />
    <glyph glyph-name="v" unicode="v" horiz-adv-x="524" 
d="M170 20q-39 163 -86 247q-16 10 -38 67q-1 0 -19 43q0 10 -9.5 38.5t-9.5 29.5q0 19 35 19q4 0 12 -0.5t11 -0.5q17 0 35.5 -43t18.5 -61q66 -185 112 -241l5 7q8 26 28 69t28 66q1 3 8.5 26.5t16.5 52t18.5 57t16.5 48t8 19.5h74l6 -5q0 -93 -35 -190.5t-95 -217.5
q-1 -1 -7 -24.5t-18 -31.5q-9 0 -25 -0.5t-24 -0.5q-49 0 -67 27zM182 94l4 -16l4.5 -18t4.5 -14t6.5 -11.5t8.5 -3.5q14 0 36.5 7.5t27.5 17.5l2 -4q0 -1 -5.5 -5.5t-7.5 -8.5l5 -7q11 8 24.5 32.5t13.5 37.5q-1 0 -9 -3t-18.5 -8t-15.5 -9l11 -12q-5 -1 -19.5 -10
t-19.5 -9q-6 0 -29 13q7 3 7 6q0 16 -3 21t-16 5q-1 0 -6 -0.5t-6 -0.5zM176 118q0 -14 20 -14q0 27 -11 27q-9 0 -9 -13zM274 130l-6 -24q4 -1 9 -1q23 0 23 10q0 7 -9 11t-17 4zM300 143q3 -9 23 -13v19q-1 0 -4.5 -1t-9 -2.5t-9.5 -2.5zM152 159q0 -23 20 -23q0 13 -4 19
t-15 11l-1 -3v-4zM293 186q-13 -24 -13 -38q2 0 19 9.5t24 16.5q-5 12 -30 12zM151 180q0 -8 14 -8q0 18 -7 20q-7 -2 -7 -12zM311 204q12 -12 25 -12q20 0 20 34q-8 0 -19.5 -12t-18.5 -12q-3 0 -7 2zM126 245q0 -4 4.5 -25t8.5 -21h13q0 11 -9 30.5t-17 24.5v-9zM348 254
q-3 -11 -11 -7.5t-17 -2t-9 -27.5q70 28 70 64l-1 9q-19 -12 -44 -23zM108 281q0 -14 12 -14q-4 19 -12 23v-9zM385 316h-44q-11 0 -11 -31q32 0 55 31zM40 436q0 -18 26 -73t37 -55q0 25 -22.5 76.5t-40.5 51.5zM398 365q-28 -8 -43 -31q6 0 14.5 -0.5t11.5 -0.5
q12 0 14.5 5.5t2.5 26.5zM398 390q-14 -2 -22.5 -5t-15 -10t-6.5 -18q19 0 44 33zM372 414q6 -3 6 -6t-5.5 -7t-5.5 -5q41 0 49 18q-5 8 -5 22h-7.5h-7.5t-6.5 -0.5t-6 -1t-4.5 -2.5t-4 -4t-2 -5.5t-1 -8.5z" />
    <glyph glyph-name="w" unicode="w" horiz-adv-x="753" 
d="M471 -7l-31 23q-17 18 -30 46t-13 40q0 1 -43 110q-5 13 -10 41t-9 40l-18 -93q-4 -2 -10.5 -25t-13 -51.5t-8.5 -34.5q-15 -42 -32 -63t-45 -21q-25 0 -58 16l-1 18q-1 12 -8.5 18t-9.5 13q-4 27 -32 102t-28 116q-7 0 -10.5 2t-4 4.5t-2 9.5t-3.5 13q-4 11 -12 29.5
t-12 28.5t-8 26t-5 33q0 6 2.5 15.5t4.5 9.5h73q10 0 45.5 -66t35.5 -76l30 -86q0 -2 3 -19l4 -18h6q7 0 21.5 66t34 132.5t39.5 66.5q9 0 9 -6q26 2 32 2q24 0 32.5 -10t19.5 -43q2 -6 3 -10q0 -7 6 -13q2 -7 10 -43t9 -43q6 -29 24.5 -73.5t33.5 -44.5q11 0 18 31.5
t12.5 72.5t9.5 51q23 69 37 104q-1 2 -1 6q0 9 8.5 14.5t17.5 5.5q39 0 56 -13q-1 -34 -17.5 -81t-19.5 -61q-2 -10 -6 -35.5t-7 -38.5q-2 -9 -13.5 -32t-11.5 -38q0 -7 1 -10l-31 -112q1 -3 1 -9q0 -37 -75 -37zM178 34q-10 0 -16 -6h3l3 -1q10 0 13 7h-3zM445 52
q0 -18 11 -18q6 0 16.5 13t10.5 17l-37 -6q-1 -5 -1 -6zM508 58q-20 -10 -31 -24h6h5.5h4.5t4.5 0.5t3.5 1.5t2.5 2t2 3t1.5 4.5t0.5 5.5t0.5 7zM168 58q0 -1 37 -12q15 11 15 25h-15q-33 0 -37 -13zM246 77q-4 0 -7.5 -2t-5.5 -5t-4 -7t-2.5 -7.5t-1 -6.5t-0.5 -5v-1
q5 0 8.5 2t6 7t4 7t3.5 9.5t2 8.5h-3zM433 83q0 -9 7 -13h-6q28 13 43 31q-1 0 -5 1h-4q-35 0 -35 -19zM458 77q1 -7 13 -7q13 0 20 3.5t10 3.5t10.5 -3.5t15.5 -3.5v41q-13 -11 -34.5 -18t-34.5 -16zM154 101q0 -24 30 -24q17 0 71 19q8 0 8 42h-14q0 -26 -9 -33.5
t-28.5 -8.5t-30.5 -7l6 12h-33zM468 139l-4 -1l-30 -30q6 0 22 3.5t21 8.5q0 6 -2 10.5t-4 7t-3 1.5zM181 152q-8 0 -17.5 -14.5t-13.5 -17.5q4 0 11 -0.5t11 -0.5q21 0 21 10q0 23 -12 23zM538 200q-9 -49 -11 -74l-1 -9q13 0 17.5 10t4 23t1 28t8.5 22q0 1 -5 4t-7 3
q-1 0 -4 -2.5t-3 -4.5zM415 151l6 -25q8 -2 22.5 8t14.5 20q-1 9 -5 9zM137 157q0 -8 7 -19q20 10 20 19h-27zM249 160q0 -6 13 -9q13 0 18 31h-4q-7 0 -17 -7t-10 -15zM125 204q0 -35 25 -35q31 0 31 19q0 12 -9 12q-5 0 -14.5 -3t-19.5 -3q25 0 25 26q-38 0 -38 -16z
M449 191q-19 0 -40 -21q1 0 6 -0.5t6 -0.5q15 0 21.5 4t6.5 18zM297 238q-15 0 -31.5 -20.5t-16.5 -35.5q21 5 34.5 20t13.5 36zM395 209q0 -21 8 -21l24 12q-8 9 -32 9zM403 225q2 -9 26 -9q0 15 -12 15q-8 0 -14 -6zM559 238q-15 0 -15 -26q9 0 17.5 5t8.5 14q0 7 -11 7z
M157 262q-10 -6 -23.5 -17.5t-14.5 -13.5h50q0 22 -12 31zM376 256q0 -26 11 -26q8 0 19 9t11 17h-41zM280 268q0 -2 -7 -11.5t-7 -16.5q22 0 32 23.5t10 48.5q-12 0 -23.5 -8t-11.5 -20q0 -2 3.5 -7.5t3.5 -8.5zM80 323q0 -18 12 -46t24 -28q8 0 34 26q-33 0 -37 11
q26 21 26 37h-59zM551 293v-43q30 0 30 18q-2 5 -12.5 14t-17.5 11zM395 299q-5 0 -14.5 -10.5t-9.5 -13.5h44q-2 3 -4 10.5t-5 10.5t-11 3zM563 308q0 -4 18 -22q14 19 14 44q-1 0 -16.5 -9.5t-15.5 -12.5zM379 317q-18 0 -18 -19q18 0 30 13t12 31q0 3 -7 14.5t-7 18.5
q-24 0 -42 -15q12 -4 14 -21t18 -22zM285 323v-6l14 6h-14zM595 373q-15 -5 -24.5 -19.5t-9.5 -31.5q7 0 18 10.5t17 10.5l2 -1h2q25 39 25 80q-44 -15 -44 -40q0 -9 14 -9zM317 348q-28 0 -28 -13h28v13zM63 367q0 -15 13 -25q13 20 13 25h-26zM113 360l-19 -18h33
q0 8 -14 18zM304 379l-5 -19q3 1 14.5 5t19 7.5t7.5 6.5h-36zM57 389q0 -10 12 -10q2 0 14.5 3t17.5 3l-18 44q-4 5 -44 5q5 -26 21 -26q2 0 10 2q-2 -1 -7 -9t-6 -9v-3zM310 397q0 -5 7 -5h62l5 5q-8 21 -31 21q-9 0 -13 -2l7 6q-2 8 -15 8q-10 0 -16 -10.5t-6 -22.5z
M609 435q-8 2 -14 2q-9 0 -9 -9q6 -2 7 -2q7 0 16 9z" />
    <glyph glyph-name="x" unicode="x" horiz-adv-x="513" 
d="M11 19q24 35 66 112.5t70 115.5q-3 4 -12 19.5t-19 33.5t-12 21q-8 14 -33.5 40t-42.5 51t-17 49q0 21 52 21q24 0 28 -1l148 -148l75 166q2 1 3 1q3 0 9 -6q55 -5 92 -19q6 -2 6.5 -9t6.5 -9q-9 -12 -22 -36.5t-23 -40.5t-15 -16q-3 0 -3.5 -7t-4.5 -7q-3 0 -6 1
q-4 -19 -36.5 -47.5t-32.5 -47.5q28 -55 70.5 -114.5t67.5 -95t25 -49.5q0 -16 -20 -16q-1 0 -13.5 3.5t-17.5 3.5q-32 -3 -37 -3q-8 0 -24 9.5t-16 20.5q0 -1 -10.5 13.5t-22 30.5t-13.5 21q-3 6 -16.5 34.5t-24 50t-13.5 21.5q-8 0 -29.5 -51t-46 -102.5t-40.5 -51.5
l-96 12v26zM111 30v-11q8 3 8 11h-8zM337 49q0 -31 26 -31q30 0 30 19h-23q0 2 -1 4l-1 2q0 2 8 6q-3 5 -6.5 17t-7 19.5t-8.5 7.5q-3 0 -12.5 -9.5t-9.5 -12.5q0 -12 31 -16q-2 -7 -16 -7q-2 0 -5.5 0.5t-4.5 0.5zM305 106q0 -18 14 -26q4 1 7 5t4.5 6.5t1.5 3.5
q0 11 -27 11zM110 117q9 -12 25 -12q13 0 13 12h-38zM300 123l1 -6l36 -6q0 1 0.5 3t0.5 3q0 18 -24 37q-14 -18 -14 -31zM159 173q-5 -8 -21.5 -16t-21.5 -15q32 0 47 15.5t28 42.5t30 41h-22q0 -17 -29.5 -34t-29.5 -34h19zM296 154q-16 -2 -16 -13q16 0 16 13zM270 173
q0 -8 32 -8q0 26 -12 26q-8 0 -14 -5.5t-6 -12.5zM239 225v-3q6 -6 7 -6q12 0 15 2t3 10q0 12 -5 19q-9 -1 -14.5 -7.5t-5.5 -14.5zM215 277l-13 -11h20q0 9 -7 11zM164 284q0 -13 11 -13q5 0 11 4t14 13l9 8h-4q-7 0 -24 -3t-17 -9zM264 289q0 -18 9 -18q8 0 20 20t12 33
q-22 0 -31.5 -7t-9.5 -28zM190 333q-25 -17 -36 -30q49 0 49 15q1 0 -1 3.5t-5.5 7t-6.5 4.5zM127 342q0 -2 2.5 -5.5t5.5 -3.5q9 0 26 4t17 11q0 2 -9.5 12.5t-11.5 10.5q-5 0 -17.5 -13.5t-12.5 -15.5zM282 345q10 -2 25 -12h3q3 0 22 21.5t19 25.5q0 5 -9.5 8.5
t-9.5 12.5l5 6q5 0 14.5 -3t11.5 -3v6q-32 14 -35 14l-2 -1zM110 370v-14q10 0 18 14h-18zM98 392q0 -10 12 -10q8 0 25 6q-4 5 -10 10t-9 8l-4 2q-2 0 -8.5 -6.5t-6.5 -8.5q0 -1 1 -1zM48 450l8 -15q7 -15 14.5 -25.5t14.5 -14.5q19 19 19 20q0 7 -11 9.5t-13 6.5q6 6 6 10
q0 10 -25 10q-1 0 -6.5 -0.5t-6.5 -0.5zM325 457q0 -4 1 -8t3.5 -7t4.5 -5.5t6 -4.5t6.5 -3.5t7.5 -3t7 -2l8 -2t7 -1.5q1 5 7 16t6 13l-1 2q-5 0 -11.5 -4t-13.5 -4q-17 0 -19 7l7 7h-26zM75 51q0 -18 9 -18q8 0 20 20t12 33q-22 0 -31.5 -7t-9.5 -28z" />
    <glyph glyph-name="y" unicode="y" horiz-adv-x="565" 
d="M117 -229v6q6 18 26.5 66t31 84t10.5 69q0 11 -5.5 26.5t-12.5 19.5l-44 99l-21 54q-20 54 -42.5 112.5t-28.5 67.5q-32 54 -32 86q0 13 63 13q43 0 43 -19q44 -116 111 -240q5 -17 25.5 -44.5t23.5 -42.5q33 62 69 151.5t49 150.5q4 22 11.5 27t31.5 5q30 0 43 -7.5
t13 -36.5l-7 6q-5 -6 -10.5 -28.5t-12 -40t-14.5 -17.5q2 0 5 -4.5t3 -5.5q-2 -3 -6.5 -13t-9.5 -19l-4 -8h-9q0 -5 0.5 -11t0.5 -7q0 -5 -13 -5q0 -26 -8.5 -57t-24 -71.5t-20.5 -57.5q-32 -29 -38 -78t-18 -64q-11 -11 -14.5 -17t-4.5 -12.5t-5 -13.5v12q-6 -4 -12 -15.5
t-6 -15.5q6 -2 6 -12q0 -4 -31 -50t-38 -49q-2 -1 -21 -3.5t-21 -2.5q-4 0 -11 -3.5t-13 -3.5q0 5 -4 10t-4 10zM139 -212q0 -4 8 -7.5t14 -3.5h-7q6 6 13 6q1 0 5 -1t8 -3t5 -2l38 55v19q-49 -29 -50 -31l6 -9q0 -6 -15.5 -14.5t-24.5 -8.5zM210 -137q-3 -8 -23.5 -13.5
t-20.5 -16.5q0 -5 1 -7q1 1 5 2q66 36 69 66q-46 -20 -46 -31h15zM228 -93q-18 0 -34 -10t-16 -29q10 0 50 32v7zM265 -50q-1 1 -25 -11t-24 -14v-9q31 0 38 4t18 30h-7zM216 -56q-10 0 -12 -7l1 -1h1q1 0 17 7q-1 0 -4 1h-3zM285 32l-1 -3l-68 -68q12 0 22 2t17 3.5t13.5 8
l9.5 9.5t7.5 13.5t5.5 14.5t5.5 19t6.5 20q0 3 -7 6t-12 3q55 18 55 77q0 8 -7 13h20v33q-13 2 -13 8q0 1 1 6t1 8q2 0 10 -5t11 -5q9 15 9 27q0 4 -7 11q0 11 7 13h-19q-4 0 -38 -81q-12 -27 -12 -57q0 -12 8 -12h2l2 1q-22 -6 -49.5 -33.5t-48.5 -34.5v-6l56 19q3 0 8 -4
t5 -6zM235 10l-1 1q-3 0 -7.5 -4.5t-4.5 -6.5q0 -1 1 -1q3 0 7.5 4t4.5 7zM197 54q0 -1 3 -3.5t4 -2.5q7 0 19.5 9t17.5 16h-3q-9 0 -41 -19zM241 105q-9 0 -17 -6t-8 -14q23 4 31 19zM213 153h-3l-19 -25q32 0 32 12q0 13 -10 13zM154 147l7 -13l18 19q-16 0 -25 -6z
M191 208q-7 0 -16 -9t-9 -17h2q2 0 5 -0.5t6 -0.5q25 0 25 12q0 3 -5 9t-8 6zM152 215q-10 0 -16 -9t-6 -16q19 7 24 25h-2zM161 269q-2 -4 -14 -19t-12 -25q44 0 44 11q0 26 -18 33zM120 258q-9 0 -9 -19q8 7 12 18q-1 0 -3 1zM380 301q-24 0 -24 -50q18 0 29 10t11 27h-20
l13 13h-9zM139 319q-8 0 -21 -15.5t-19 -27.5q2 0 9.5 -0.5t8.5 -0.5q9 0 23 4t22 4q0 8 -9 22t-14 14zM79 331q0 -37 11 -37q16 0 28.5 17.5t12.5 33.5q0 18 -16 18q-4 0 -16 -7q0 3 3 7t3 6q0 3 -3 7.5t-6 4.5q-7 0 -22 -3t-15 -7q0 -31 60 -39q3 -1 4 -1h-44zM389 331
q-15 -11 -15 -18h33q1 0 3.5 5t2.5 7q2 4 11.5 26t17.5 42t8 26q0 12 -9 12q-15 0 -34 -19q20 -7 20 -15q0 -6 -8 -10q1 1 1 3q0 4 -3 7.5t-6 3.5q-2 0 -5 -2.5t-5 -4.5l-2 -2q0 -1 4 -4.5t4 -6.5q0 -2 -2.5 -7t-3.5 -5l12 -6q-30 0 -30 -21q0 -5 6 -11zM29 447
q0 -13 11.5 -31t11.5 -32q48 0 48 21q0 17 -27 29.5t-44 12.5z" />
    <glyph glyph-name="z" unicode="z" 
d="M249 -7l11 7q-23 0 -24 -7h-80q-3 5 -29 6t-51 2t-25 4v8q-11 4 -12 9q0 19 37 63t43 56q30 59 80 141q5 9 20.5 28t22.5 34.5t7 37.5q-63 14 -219 14v22q0 62 17 62q21 0 61 -6t60 -6q6 0 58.5 3t58.5 3q19 0 60.5 -6t59.5 -6q3 0 8.5 2.5t7.5 3.5q2 -3 5 -13t7 -12
q-3 -22 -16.5 -41t-63.5 -76q-16 -18 -32.5 -53t-22.5 -45q-11 -18 -47 -69.5t-52 -78.5l-1 -2v-2l1 -3l24 -6h149q3 -6 12 -6q7 0 31 12v-6q3 -12 18 -62q-4 -11 -8.5 -15t-15.5 -4q-1 0 -12.5 2t-26 3.5t-23.5 1.5q-3 0 -25 -3.5t-24 -3.5q-28 0 -49 7zM390 5q0 3 -10 3
q-9 0 -9 -2q0 -3 10 -3q7 0 9 2zM273 23l7 -5q2 0 48.5 3.5t69.5 11.5q0 10 -30 10q-21 0 -57.5 -4t-56.5 -4q-12 0 -18 1q-14 -4 -19 -13h56zM205 42q-7 0 -13.5 -6t-6.5 -13q8 0 17.5 4t9.5 6q0 5 -7 9zM88 42v-15q31 0 31 8q0 -1 -2 -1t-5.5 1t-7.5 2l-8 2t-6 2zM134 55
q0 -22 -9 -25q7 0 17 10t10 15h-18zM175 36q-20 0 -32 -6h32v6zM125 92q-19 -3 -19 -25l37 6q-16 2 -18 19zM149 135q-4 0 -12.5 -13t-11.5 -18q13 0 31 7.5t24 17.5q-10 6 -31 6zM217 172q-18 -11 -24 -18q5 -1 6 -1q19 0 19 16zM196 198q-29 0 -29 -20l1 -3v-3
q43 23 43 24q-2 0 -8 1t-7 1zM230 221q1 -7 14 -7q15 0 23 20h-3q-5 0 -34 -13zM217 252q-7 -4 -7 -13q11 0 13 7zM267 270l18 -6l6 25q-9 0 -16.5 -5t-7.5 -14zM273 308q-32 0 -32 -15q0 -1 0.5 -2t0.5 -2l38 19h-7zM285 363q-6 -4 -6 -12h6v12zM378 437
q-14 -12 -33.5 -37.5t-22.5 -30.5q29 0 75 62q-2 4 -5 5t-7.5 0.5t-6.5 0.5zM112 425q3 0 23 0.5t33 0.5q50 0 81 -8q9 0 21 4.5t20 9t8 5.5l-7 6h-154q-9 0 -17 -5t-8 -13zM326 437q-6 0 -11.5 -6t-5.5 -10q0 -1 1 -3l18 19h-2zM57 450v-32q44 0 44 25q-1 9 -16 9
q-5 0 -14 -1t-14 -1z" />
    <glyph glyph-name="braceleft" unicode="{" horiz-adv-x="320" 
d="M66 147q5 19 5 36q0 6 -5 14q0 2 2.5 8t2.5 10q0 14 -17.5 47t-28.5 37q-3 1 -7.5 1h-7t-4.5 2.5t-2 8.5l1 8q46 35 58.5 84.5t12.5 125.5q0 45 8.5 66t37.5 48q2 1 6 4t7.5 4.5t6.5 1.5q1 -4 6.5 -3.5t11.5 3.5t7 5q4 1 25.5 3t25.5 2q21 0 21 -16q0 -8 -12 -20
q12 -5 12 -18q0 -4 -17 -9t-37 -11t-37 -25t-17 -49q0 -16 6 -46t6 -45q0 -25 -26.5 -67t-26.5 -48q0 -4 15.5 -38t20.5 -43v-152q0 -6 21 -26.5t35 -20.5q3 0 7.5 0.5t6.5 0.5q16 0 27 -12.5t11 -32.5q0 -11 -11 -15q-3 1 -18 3t-18 2q-28 2 -69.5 21.5t-41.5 44.5v92
q0 2 -3.5 7.5t-6.5 6.5zM162 0v-7q15 0 15 10q-1 4 -8.5 8.5t-14 7t-7.5 2.5q-11 0 -11 -9l1 -2zM187 0v-4h20v4h-20zM101 37q0 -12 25 -12q1 0 6 1h5q-8 1 -14 10.5t-14 9.5t-8 -9zM90 90q0 -8 3 -23t8 -16q6 1 6 12q0 27 -17 27zM97 117v-16q0 3 2.5 7.5t2.5 8.5h-5z
M97 167v-10q5 3 5 10h-5zM91 236v-3q0 -21 10 -25l1 7q0 16 -11 23v-2zM65 286l4 -8q4 -7 9.5 -16.5t7.5 -14.5v3q1 3 1 4q0 8 -7 18.5t-14 15.5zM40 311q0 -6 16 -12v15l30 41v13q-5 0 -25.5 -26t-20.5 -31zM101 400q-10 -1 -16 -10.5t-6 -20.5q15 0 26 14.5t11 29.5
q0 1 -2.5 6t-2.5 6q6 5 6 10q0 7 -6 12.5t-14 5.5q0 -6 -5.5 -17.5t-5.5 -15.5q0 -20 15 -20zM97 486v-25h7q0 5 4 9.5t4 8.5q0 8 -11 8zM96 529q0 -2 -0.5 -6.5t-0.5 -7.5q0 -13 6 -18q6 0 6 35q0 6 -0.5 14.5t-0.5 9.5q5 12 24 24.5t19 28.5q39 0 69 18q-2 0 -14 0.5
t-15 0.5q-17 0 -33.5 -3t-33.5 -14t-17 -29q0 -2 0.5 -3.5t0.5 -2.5q0 -4 -9 -9q4 -3 4 -6q-5 -6 -5 -32z" />
    <glyph glyph-name="bar" unicode="|" horiz-adv-x="244" 
d="M84 -76q-2 -5 -13 -5q-15 0 -15 5v62l-7 4l4 6v151q8 33 11 70.5t3 86t1 71.5q11 200 11 272l5 6h66l4 -6q0 -16 6 -40v-172q5 -1 5 -10q0 -30 -3 -85t-3 -84q0 -4 0.5 -14t0.5 -14q-9 -9 -9 -26q0 -4 0.5 -10.5t0.5 -9.5q0 -17 -8 -25v-111l-4 -5l4 -91q17 -17 17 -28
q0 -10 -31 -10q-43 0 -46 12zM94 0q-13 -8 -13 -35q0 -5 0.5 -12.5t0.5 -9.5q4 0 8.5 0.5t7.5 1.5t6 2.5t4 2.5h1q-1 2 -1 20q0 24 6 30q-6 5 -26 5zM72 55q0 -11 5 -26t13 -15q31 0 31 21q0 5 -3.5 12.5t-8.5 7.5h-37zM125 85q-22 0 -31 -19q31 0 31 19zM91 82
q-15 0 -15 -13q11 0 18 13h-3zM99 117q-1 -2 -7.5 -7t-11 -10.5t-4.5 -10.5q15 0 20.5 0.5t14 3t11.5 10t3 19.5h-16v5h-25q-5 0 -5 -10q0 -6 5 -6q11 0 15 6zM106 152q-10 0 -18 -10q5 -1 10 0.5t7.5 4t0.5 5.5zM84 167q3 0 20 -3l18 -2q9 0 9 31q-11 0 -29.5 -7t-18.5 -16
l1 -1v-2zM97 197q-15 0 -15 -10q14 0 22 10h-7zM137 240q-12 0 -25 -11.5t-13 -22.5q28 0 33 4t5 30zM113 256q0 -2 -12 -14.5t-13 -18.5q12 0 25 11t22 13v41q-15 -5 -15 -10q3 -9 4 -9v-5l-1 -3q-10 3 -18 3q-12 0 -12 -8h20zM135 329q-5 -3 -13.5 -12t-8.5 -11t1 -4v-3
q-4 -6 -13 -6.5t-9 -14.5q9 0 22.5 12t20.5 15v24zM124 349q-10 2 -12 2q-19 0 -19 -44q12 0 12 8q0 3 -1 4q38 15 38 73q-21 0 -48 -32q0 -1 2 -3t3 -2t12 0.5t13 0.5v-7zM129 403h-30q-5 -5 -5 -28l46 28v110q-13 0 -25 -12.5t-12 -25.5l1 -5l25 -9q1 -1 1 -2
q0 -10 -10 -23t-21 -21q15 -5 30 -5v-7zM97 456q0 -22 7 -26l16 26h-23zM116 517q-13 0 -13 -11l1 -4q12 7 12 15zM103 534q0 -8 18 -8q9 0 13 3t5 7t1 13q0 21 -5 23q-32 -36 -32 -38zM120 582q-18 -2 -18 -17q0 -5 2 -9l12 9t10.5 8.5t6.5 7.5t5.5 10.5t1.5 13.5
q0 10 -7 14.5t-11 4.5h-18v-22h9q1 -4 1 -5l-2 -3l-2 -4l-1 -2z" />
    <glyph glyph-name="braceright" unicode="}" horiz-adv-x="320" 
d="M56 653q4 -2 8 -2q7 0 7 2t-7 2q-8 0 -8 -2zM132 638q4 0 4 -6q0 -5 -4 -5t-4 5q0 6 4 6zM96 618q4 0 4 -6q0 -5 -4 -5t-4 5q0 6 4 6zM132 618q-4 0 -4 -6q0 -5 4 -5t4 5q0 6 -4 6zM45 607q-3 0 -3 -5t3 -5q5 0 5 5t-5 5zM111 602q0 3 6 3q4 0 4 -2q0 -3 -4 -3q-2 0 -6 2
zM152 578q-4 0 -4 -6q0 -5 4 -5t4 5q0 6 -4 6zM147 529q0 26 -5 32l4 6q-9 5 -9 9q0 1 0.5 2.5t0.5 3.5q0 18 -17 29t-33.5 14t-33.5 3q-3 0 -14.5 -0.5t-14.5 -0.5q30 -18 69 -18q0 -16 19 -28.5t24 -24.5q0 -1 -0.5 -9.5t-0.5 -14.5q0 -35 6 -35q6 5 6 18q0 3 -0.5 7.5
t-0.5 6.5zM146 461v25q-3 1 -4 1q-11 0 -11 -8q0 -4 4 -8.5t4 -9.5h7zM142 400q15 0 15 20q0 4 -5.5 15.5t-5.5 17.5q-8 0 -14 -5.5t-6 -12.5q0 -5 6 -10q0 -1 -2.5 -6t-2.5 -6q0 -15 11 -29.5t26 -14.5q0 11 -6 20.5t-16 10.5zM203 311q0 5 -20.5 31t-25.5 26v-13l30 -41
v-15q16 6 16 12zM182 278q-4 0 -4 -5q0 -4 4 -4t4 4q0 5 -4 5zM178 286l-1 2q-7 -5 -14 -15.5t-7 -18.5v-4l1 -3q2 5 7.5 14.5t9.5 16.5zM121 228q-3 0 -3 -5q0 -4 3 -4q5 0 5 4q0 5 -5 5zM152 236v2q-11 -7 -11 -23l1 -7q10 4 10 25v3zM146 183q-2 -2 -2 -3q0 -3 2 -3
q3 0 3 3t-3 3zM146 157v10h-5q0 -7 5 -10zM146 147q-3 0 -3 -5t3 -5q5 0 5 5t-5 5zM146 101v16h-5q0 -4 2.5 -8.5t2.5 -7.5zM157 76q-4 0 -4 -5t4 -5t4 5t-4 5zM153 90q-17 0 -17 -27q0 -11 6 -12q5 1 8 16t3 23zM142 37q0 9 -8 9t-14 -9.5t-14 -10.5h5q5 -1 6 -1
q25 0 25 12zM56 -4v4h-20v-4h20zM81 -7v7l25 10q1 1 1 2q0 9 -11 9q-1 0 -7.5 -2.5t-14 -7t-8.5 -8.5q0 -10 15 -10zM177 147q-3 -1 -6.5 -6.5t-3.5 -7.5v-92q0 -25 -41.5 -44.5t-69.5 -21.5q-3 0 -18 -2t-18 -3q-11 4 -11 15q0 23 5 28.5t24 5.5q0 11 9 11q2 0 6.5 -0.5
t7.5 -0.5q14 0 35 20.5t21 26.5v152q5 9 20.5 43t15.5 38q0 6 -26.5 48t-26.5 67q0 15 6 45t6 46q0 30 -17 49t-37 25t-37 11t-17 9q0 13 12 18q-12 12 -12 20q0 16 21 16q4 0 25.5 -2t25.5 -3q1 -2 13.5 -8t16.5 -7l-5 10q3 0 6.5 -1.5t7.5 -4.5t6 -4l-4 -5
q31 -23 40.5 -43.5t9.5 -65.5q0 -50 3 -80t19.5 -68t48.5 -62q1 -6 1 -8q0 -7 -2.5 -9t-8.5 -2q-12 0 -34 -30.5t-22 -54.5q0 -4 2.5 -10t2.5 -8q-5 -8 -5 -14q0 -17 5 -36z" />
    <glyph glyph-name="asciitilde" unicode="~" horiz-adv-x="459" 
d="M2 320q0 9 2.5 15.5t8 14t8.5 12.5q6 12 11.5 19.5t10 12t11.5 6.5t12.5 2.5t18 1.5t22.5 2q1 0 7 3l5 3q38 0 69.5 -23.5t54.5 -26.5q13 0 32 25t34 25q12 0 21 -15t12 -17q-10 -27 -41.5 -50t-60.5 -23q-31 0 -73 19t-63 19q-10 0 -33 -6q0 -1 0.5 -2.5t0.5 -2.5
q0 -9 -9.5 -18t-17.5 -9q-3 0 -22.5 6.5t-20.5 6.5zM58 325l-1 1q-2 0 -7.5 -5.5t-5.5 -7.5q4 0 9 4t5 8zM76 375q-11 0 -24 -12t-13 -24q28 28 43 36h-6zM169 357q7 -7 20 -13t17 -6h4l2 1l-34 24q-3 0 -9 -6zM305 375q-7 0 -7 -13q7 0 7 13zM320 378l3 -16q2 0 4 4.5
t2 5.5zM95 375q13 0 36 -4t35 -4q0 14 -34 14q-9 0 -19 -0.5t-12 -0.5z" />
    <glyph glyph-name="exclamdown" unicode="&#xa1;" horiz-adv-x="260" 
d="M160 -80q-5 0 -5 4q0 5 5 5q3 0 3 -5q0 -4 -3 -4zM109 -80q-4 0 -4 4q0 5 4 5t4 -5q0 -4 -4 -4zM68 -50h17q0 10 -10 10q-1 0 -2 -2t-2.5 -4.5t-2.5 -3.5zM88 -30l6 -15h26q-15 15 -32 15zM135 -15v15h-12q0 -6 12 -15zM78 20q0 -20 1 -20l20 -10q-1 3 -8.5 14t-7.5 19
q0 14 17 14q0 3 -6.5 9t-9.5 15q-7 -6 -7 -27q0 -4 1 -9v-5zM126 50q0 21 -22 21q9 -21 22 -21zM91 107h3q-2 12 -12 12q0 -12 9 -12zM122 114q0 29 -20 29q0 -10 5 -19.5t15 -9.5zM109 162q0 19 -21 31q0 -19 3 -23t18 -8zM104 207l10 -5v5h-10zM94 244q0 -13 17 -13
q0 60 -7 78q-11 -12 -11 -38q0 -5 0.5 -14t0.5 -13zM79 334q5 6 22 6q34 0 34 -8q0 -7 3 -48l2 -41l4 -11q0 -50 10 -141.5t10 -142.5q0 -8 -8 -13.5t-8 -11.5q-5 0 -8 6q-2 -5 -7.5 -5t-8.5 -4l-4 9h-26l-6 -9q-3 8 -4 9q-4 0 -10 -3t-11 -3q-15 0 -15 19q0 35 1.5 69.5
t5 77t6.5 71.5t9 86.5t9 87.5zM94 430q4 0 4 5q0 6 -4 6q-5 0 -5 -6q0 -5 5 -5zM104 466l5 -5q20 0 26 10q-2 6 -13 6q-18 0 -18 -11zM79 489q0 17 20 17q1 0 17.5 -2.5t18.5 -2.5l7 3q7 2 8 2q10 -7 10 -16q0 -1 -2.5 -20.5t-3.5 -24.5q-10 -15 -59 -15h-11q-1 4 -1.5 8
t-1 8.5l-1 9t-0.5 8.5t-0.5 8t-0.5 7v5.5v3.5v1z" />
    <glyph glyph-name="cent" unicode="&#xa2;" horiz-adv-x="455" 
d="M188 28q0 12 2 35.5t2 36.5q-17 0 -18 14l-10 -5v5l-26 20l-10 -6q0 1 -14 17t-29.5 34t-16.5 21q-36 64 -36 133q0 70 44.5 122.5t112.5 72.5v97q20 -25 20 -36l-3 -5q-2 -4 -2 -5q0 -10 9 -10q7 0 11.5 5.5t4.5 12.5q0 3 -4 7q9 7 9 15q0 9 -11 11.5t-14 8.5
q29 6 36 11q2 -3 9 -21.5t7 -19.5q0 -3 -5.5 -17.5t-5.5 -17.5q0 -46 12 -46q2 0 5 3.5t3 6.5q2 -4 16 -9.5t20 -5.5l14 6q7 0 15.5 -9.5t16.5 -9.5l-2 -2q-14 -22 -14 -40q0 -4 2.5 -8t2.5 -5q0 -2 -5 -4.5t-12 -5t-8 -2.5v1l1 2q0 12 -47 12v3q-10 0 -22 1t-17 1
q-13 0 -27 -5v3q-27 0 -40 -34h-6q0 -17 -15 -47t-15 -45q0 -73 31 -125q14 -24 15 -24h55q0 -7 10 -7q15 0 47.5 16t42.5 16q7 0 12.5 -21.5t5.5 -32.5q0 -15 -31 -24.5t-56 -9.5q-1 0 -4 1h-2l7 -5v-35q-7 -4 -7 -9q0 -3 7 -17q0 -41 -62 -41q-11 0 -11 18v3zM204 17
q-4 0 -4 -5t4 -5t4 5t-4 5zM204 37q6 -9 15 -9q20 4 20 32q-15 0 -35 -23zM219 83v-6q0 -8 6 -8q10 4 10 17q0 18 -8 18t-8 -21zM214 124q0 -11 5 -15q3 19 20.5 26t36.5 5t34.5 2t15.5 20q0 17 -14 17q-10 -3 -12 -5l11 -4q-14 -2 -22 -10t-19 -10q-7 -2 -21 -2t-22 -4.5
t-13 -19.5zM316 119q3 0 3 -5t-3 -5q-4 0 -4 5t4 5zM325 124q4 0 4 -5t-4 -5t-4 5t4 5zM211 145q-14 0 -22 -17q9 0 13 0.5t8.5 4t8.5 11.5q0 1 -8 1zM121 187q0 -1 -1.5 -5.5t-1.5 -6.5q0 -10 23.5 -23.5t34.5 -13.5q19 0 23 12q-3 -1 -8 -1q-21 0 -43 19.5t-22 39.5
q-7 0 -15.5 -4.5t-8.5 -11.5t6 -7q2 0 7 1t6 1zM194 174q-4 0 -4 -5t4 -5t4 5t-4 5zM209 174q-4 0 -4 -5t4 -5t4 5t-4 5zM311 194q-4 0 -4 -5q0 -4 4 -4t4 4q0 5 -4 5zM93 210l4 -5q7 0 14 4.5t7 10.5q0 9 -5 10zM83 230v-16q4 4 11 9.5t11 8.5t4 6q-1 1 -1 2zM62 248
q0 -2 2.5 -5t3.5 -3q2 0 5.5 2.5t3.5 3.5v-8q37 0 37 17l-1 1q-1 2 -2 5t-2 7.5t-2 12t-1 16.5q-8 0 -34 -26h25q-35 -17 -35 -23zM88 256q4 0 4 -5t-4 -5t-4 5t4 5zM57 281v-11q14 0 30 18.5t16 34.5l-7 -3q-6 -2 -15 -6t-13 -8l-6 5q-10 -13 -10 -30h5zM124 301
q-5 0 -5 -5t5 -5q3 0 3 5t-3 5zM47 326l3 -2q2 -2 2 -3h2l10 5q10 4 24 12.5t20 17.5l-5 1q-9 0 -24.5 -5.5t-23.5 -5.5q-5 0 -8 1q5 -5 5 -16q0 -5 -5 -5zM106 342q-11 0 -29 -21q10 0 20 5.5t11 15.5h-2zM113 397q-14 -6 -27 -5.5t-19 -3t-15 -21.5v-6h10l51 31v5z
M124 382q-18 -3 -21 -11q10 -2 21 11zM57 397q-4 0 -4 -5t4 -5t4 5t-4 5zM72 407q-3 0 -3 -5t3 -5q4 0 4 5t-4 5zM88 407l5 -5q36 13 50 21q4 1 8 7t8 13.5t5 8.5q0 1 -11 6q-20 -8 -42.5 -25.5t-22.5 -25.5zM88 448q-6 -1 -6 -8q0 -4 0.5 -10t0.5 -7l20 20h-15v5zM336 433
q-2 -3 -4 -3t-2 3q0 1 3 1t3 -1zM179 443q4 0 4 -5t-4 -5t-4 5t4 5zM295 443q4 0 4 -5t-4 -5q-5 0 -5 5t5 5zM289 466q0 -9 17 -9q11 0 14 4.5t3 17.5q-11 0 -34 -13zM184 468v-6q15 0 33 6t18 18q0 7 -10 7v11q-23 -12 -26 -16l10 -4zM311 495q-44 0 -66 -27q19 0 30 16
v-16q1 1 8.5 4t12.5 5.5t10 7t5 10.5zM138 478v-6q27 0 36 16q-1 0 -16.5 -4.5t-19.5 -5.5zM174 472q0 2 -2 2q-3 0 -3 -2t2 -2q1 0 3 2zM254 493q-11 0 -11 -10q8 0 18 5q0 5 -7 5zM133 498q-1 1 -2 1q-4 0 -4 -5q0 -1 2 -1q4 0 4 5zM184 524q-4 0 -4 -6q0 -5 4 -5t4 5
q0 6 -4 6zM225 528q0 2 -3 2t-3 -2t3 -2q2 0 3 2zM229 564q-5 -2 -5 -10h5v10z" />
    <glyph glyph-name="sterling" unicode="&#xa3;" horiz-adv-x="541" 
d="M29 16q0 13 26.5 50.5t29.5 44.5q13 28 25 93t12 93q0 17 -31 21t-31 15v43q0 6 19 11t44.5 9t28.5 5q0 1 0.5 12t0.5 12q0 17 -3.5 47.5t-3.5 46.5q0 75 43.5 120.5t116.5 45.5q47 0 90 -17.5t43 -56.5q0 -34 -27 -44l-7 14l-5 -14q-14 19 -43.5 31.5t-54.5 12.5
q-10 0 -12 -16t-10 -16q-1 0 -5 1.5t-7 1.5q-43 0 -43 -120q0 -39 14 -67q26 -3 80.5 -6t80.5 -6q2 -1 10 -15t8 -17q0 -31 -60 -31q-26 0 -75.5 3t-74.5 3l12 -23v-100h-9q0 -1 2 -13t2 -20q0 -15 -7 -22h8q0 -9 -10 -26.5t-10 -28.5q0 -20 111 -20q21 0 58.5 7.5t56.5 7.5
q8 0 17.5 -29.5t9.5 -46.5q0 -4 -6 -11.5t-13 -7.5q-60 0 -158.5 4t-147.5 4q-19 0 -42 -4t-35 -4q-7 0 -12.5 8t-5.5 15zM288 7q-3 0 -3 -4q0 -3 2 -3q5 0 5 4q0 3 -4 3zM306 7q-4 0 -4 -7t4 -7q5 0 5 7t-5 7zM78 7q0 2 -3 2t-3 -2q2 -3 4 -3t2 3zM208 12q-5 0 -5 -6t5 -6
q4 0 4 6t-4 6zM245 12q-5 0 -5 -6t5 -6t5 6t-5 6zM405 12q-4 0 -4 -6t4 -6q5 0 5 6t-5 6zM418 12q-5 0 -5 -6t5 -6q4 0 4 6t-4 6zM430 12q-5 0 -5 -6t5 -6q4 0 4 6t-4 6zM171 19q-5 0 -5 -6t5 -6t5 6t-5 6zM233 12q0 3 -4 3q-3 0 -3 -3q0 -2 4 -2q2 0 3 2zM54 30l6 -5
q26 17 37 24q13 20 35.5 32t37.5 28.5t20 54.5h-38q28 11 36 21t8 39q-17 0 -35.5 -21t-26.5 -24l-12 -6q0 -2 0.5 -7.5t0.5 -8.5q0 -24 -14 -33q7 -2 7 -11q0 -40 -38 -64q-1 1 -3 1q-7 0 -14 -6t-7 -14zM97 30q1 -5 11 -5q67 0 67 32q-9 0 -23 -4t-24 -4q13 10 24 31h-6z
M245 34q0 -9 15 -9q16 0 19.5 3.5t3.5 17.5q-5 1 -12 1q-26 0 -26 -13zM357 45q-9 0 -22 -1.5t-27.5 -6.5t-14.5 -14h8h11t12 0.5t12.5 2t10 4t8 6.5t2.5 9zM381 37q5 -13 37 -13v33q-15 0 -37 -8l6 -6zM228 52q-40 -3 -40 -22q40 0 40 22zM66 43q4 0 4 -7q0 -6 -4 -6
q-5 0 -5 6q0 7 5 7zM97 99q-5 0 -5 -6t5 -6t5 6t-5 6zM190 111q-5 0 -5 -6t5 -6q4 0 4 6t-4 6zM128 124q4 0 4 -7q0 -6 -4 -6q-5 0 -5 6q0 7 5 7zM196 129q-5 0 -5 -6t5 -6q4 0 4 6t-4 6zM152 154q5 0 5 -6t-5 -6t-5 6t5 6zM152 223q-12 0 -15 -4t-3 -21q20 8 31 24h-5
q-6 1 -8 1zM159 241q0 -9 37 -9v29l1 1l-6 -3q-6 -3 -15.5 -9t-16.5 -9zM190 308q-44 -22 -44 -56q26 0 26 10q0 9 -7 9q0 2 2.5 4t3.5 2q6 0 18.5 -3t13.5 -3q0 32 -13 37zM152 321q-6 -27 -6 -32q1 1 9.5 5.5t16 10t7.5 7.5q0 1 -4.5 3t-11 4t-11.5 2zM78 333q-5 0 -5 -6
t5 -6t5 6t-5 6zM91 333q-5 0 -5 -6t5 -6q4 0 4 6t-4 6zM104 333q-5 0 -5 -6t5 -6q4 0 4 6t-4 6zM174 345q-2 0 -15 -2.5t-13 -3.5v-6q0 -7 39 -7q0 19 -11 19zM387 339q-5 0 -5 -7q0 -6 5 -6q4 0 4 6q0 7 -4 7zM400 345q-5 0 -5 -6t5 -6q4 0 4 6t-4 6zM72 351q6 0 18 -3
t14 -3q32 6 42 6q-12 1 -24 7t-21 6q-23 0 -29 -13zM202 358q25 -8 68 -8q9 0 35 0.5t45 0.5l-7 7q-24 4 -51 7t-38 3t-24.5 5.5t-16.5 8.5t-7 16.5t-4 26v40.5q0 53 6 78l6 13q7 13 7 15q0 15 -33 15q0 -9 8 -13q-25 -8 -25 -64q0 -28 7 -96q1 -13 13 -26t12 -22
q0 -1 -0.5 -3.5t-0.5 -3.5zM381 364q-5 0 -5 -7q0 -6 5 -6q4 0 4 6q0 7 -4 7zM85 376q0 1 -2 1q-6 0 -6 -6q0 -2 3 -2q5 0 5 7zM159 370q1 2 -2 3t-8 1q-9 0 -9 -3q0 -4 10 -4q6 0 9 3zM178 376q-5 0 -5 -6t5 -6q4 0 4 6t-4 6zM190 444q4 0 4 -6t-4 -6q-5 0 -5 6t5 6z
M183 537q5 0 5 -7q0 -6 -5 -6q-4 0 -4 6q0 7 4 7zM208 567q0 -3 -3 -3t-3 3q0 4 3 4t3 -4zM202 599q0 2 -3 2t-3 -2q0 -3 3 -3t3 3zM368 626q0 -11 32 -22h2q10 0 10 9q0 8 -11 15t-20 7q-13 0 -13 -9zM226 641q-5 0 -5 -6t5 -6t5 6t-5 6zM306 654q-4 0 -4 -7q0 -6 4 -6
q5 0 5 6q0 7 -5 7z" />
    <glyph glyph-name="currency" unicode="&#xa4;" horiz-adv-x="587" 
d="M385 133q-3 3 -8.5 7t-9.5 6.5t-5 2.5l-15 -10l-3 -1l-3 -1q-10 0 -11 6q-1 -4 -18 -7t-25 -3q-11 0 -23 3t-21 3t-15 -1l-5 10q0 -2 -1.5 -3.5t-3.5 -1.5h-2q-9 0 -24.5 8.5t-18.5 8.5q-14 0 -25 -12t-17.5 -26.5t-17.5 -26.5t-24 -12q-10 0 -18 4l6 6q-27 9 -27 20
q0 16 23.5 37t23.5 36q0 11 -14.5 28t-16.5 26q-9 35 -10.5 48.5t-1.5 57.5t8 86q2 8 13.5 29.5t11.5 31.5q0 20 -26 42t-26 27t17 18.5t25 13.5q10 0 10 -14q0 -2 -8 -10.5t-8 -11.5v-1l20 -19l1 5q0 3 -3 7t-3 7q0 6 11 17q4 -2 12.5 -19t12.5 -17h36l5 -5q3 6 31.5 10.5
t43.5 4.5q20 0 60.5 -8t59.5 -8q11 4 45 33.5t56 29.5q0 -5 6.5 -11.5t6.5 -12.5q0 -17 -26.5 -40.5t-26.5 -42.5q0 -10 3.5 -22t7.5 -19.5t11.5 -21t9.5 -18.5q10 -21 10 -74v-12.5v-12v-11t-0.5 -11t-1 -9.5t-1.5 -10.5t-2.5 -9t-3.5 -9.5t-5 -9l-6 -10q-7 -3 -8.5 -12
t-5 -15.5t-16.5 -6.5q0 -7 6.5 -23.5t6.5 -25.5q6 0 11.5 -8t12 -22t8.5 -18q-5 -8 -16 -9t-14 -2q-1 0 -6 -5l-4 -4q-11 0 -21 21.5t-10 33.5zM102 98q-4 0 -4 -6q0 -5 4 -5t4 5q0 6 -4 6zM420 108q-2 0 -2 -3q0 -2 1 -2q4 0 4 2q0 1 -3 3zM86 113q-3 0 -3 -5t3 -5q4 0 4 5
t-4 5zM416 118q-5 0 -5 -5t5 -5q3 0 3 5t-3 5zM124 166q-6 0 -13 -6.5t-12.5 -13t-10.5 -14.5l-6 -9q17 0 29.5 12.5t12.5 30.5zM410 133q-4 0 -4 -5t4 -5t4 5t-4 5zM367 184q3 0 7 -4t8.5 -10t8 -11.5t6.5 -10.5l3 -5v5l1 5q0 9 -3 13t-3 17t1 16q-23 11 -41 11
q-6 0 -16 -4t-10 -9q0 -7 5 -9q7 0 10 6l6 -11q-18 2 -19 2q-10 0 -10 -13q-10 0 -13.5 2t-3 4.5t-1 4.5t-7.5 2q-2 0 -4.5 -8.5t-2.5 -13.5q0 -4 7 -4q10 0 20.5 2.5t19 6.5t15.5 7.5t11 6.5zM219 165l-3 -1q0 -8 53 -8v27q0 6 -18 6q-32 0 -32 -24zM127 194q-1 -5 -1 -11
q0 -14 6 -14l15 14q4 0 24 -7t22 -7q5 0 5 9q0 42 -23 42q-2 0 -11 -8.5t-11 -12.5l-1 2v3q0 3 5 10.5t7 11.5q0 5 -3.5 9.5t-6.5 6.5l-4 3q-3 0 -13 -5l10 -6q-15 -5 -25 -5t-10 6q0 1 6 5q-12 4 -16 4q-3 0 -11 -4zM278 179q0 -9 5 -10v19q-5 -1 -5 -9zM219 194
q-5 0 -5 -6q0 -5 5 -5q3 0 3 5q0 6 -3 6zM173 215q4 0 4 -6q0 -5 -4 -5t-4 5q0 6 4 6zM369 227q0 -5 11.5 -11.5t17.5 -6.5h2q41 57 41 118l-36 -21q0 -10 11 -10l-16 -12q8 0 16.5 5.5t14.5 5.5v-5l-35 -20q-3 -3 -3 -7q0 -7 6.5 -9.5t6.5 -6.5l-1 -3l-36 -15v-2zM158 325
q0 -51 33.5 -78.5t86.5 -27.5q16 0 41 8.5t41 22.5q-1 2 -1 6q0 9 8.5 27.5t8.5 28.5q0 37 -10 72t-35.5 62t-61.5 27q-49 0 -80 -42.5t-31 -105.5zM385 255q-4 0 -4 -6q0 -5 4 -5t4 5q0 6 -4 6zM77 265q6 -5 6 -12q3 0 13.5 3t20.5 6l10 3l-15 -10q1 0 6 -1h4q21 0 21 7
q0 6 -11.5 11.5t-22 8t-12.5 2.5h42q0 1 -1 4t-2.5 7t-3.5 6q-46 -3 -55 -26l5 -4zM132 331q-17 0 -26 -1.5t-16.5 -9.5t-7.5 -24l30 10q-1 5 -10 5l-16 -3v11h46v12zM66 306q-3 0 -3 -5t3 -5q4 0 4 5t-4 5zM418 331q-14 0 -18 -11q16 0 26 10h-4zM97 371l-2 -5q-2 -4 -4 -5
q-14 -10 -14 -31q22 0 50 10q-2 2 -14.5 6t-15.5 10q6 0 17 -2.5t18 -2.5v20h-35zM428 366q-11 0 -28 -30q38 0 38 8q0 22 -10 22zM389 361q9 0 11 -5q11 0 21.5 14.5t10.5 25.5q0 5 -6.5 11.5t-6.5 10.5l1 1v2l-29 -29q2 -8 19 -11q-6 -2 -13.5 -8t-7.5 -12zM127 392
q-7 0 -26 -3.5t-19 -7.5v-5h25l-5 5q40 0 40 11h-15zM86 421v-20h59q0 6 -22.5 13t-36.5 7zM396 432q-17 -9 -17 -23q0 -1 1 -5v-3q31 10 31 37q0 11 -10 27t-10 28q0 14 13.5 27.5t13.5 24.5q-11 0 -38.5 -39t-27.5 -50q6 0 17 3t16 3q6 0 6 -7q0 -5 -7 -13t-8 -10h20z
M122 427q0 -8 31 -8v8h-31zM107 432q-4 0 -4 -6q0 -5 4 -5t4 5q0 6 -4 6zM107 462q-7 0 -13.5 -9.5t-7.5 -15.5q36 0 57 7q0 5 -6 8t-16 5.5t-14 4.5zM365 447v-5l4 5h-4zM142 467q-4 0 -4 -5t4 -5t4 5t-4 5zM168 462q0 2 -2 2q-3 0 -3 -2q0 -3 2 -3q1 0 3 3zM117 477
q0 -11 22 -11q0 6 -5.5 14t-9.5 8q-7 0 -7 -11zM158 472q-4 0 -4 -5t4 -5t4 5t-4 5zM178 477l9 -10l1 2q0 2 -2 4.5t-4 3.5l-1 1zM153 477q-5 0 -5 -5t5 -5q4 0 4 5t-4 5zM330 482q-2 -2 -2 -3q0 -2 3.5 -4t6.5 -3l4 -1q1 0 23 22q-7 10 -55.5 19.5t-70.5 9.5
q-10 0 -14 -0.5t-8.5 -4t-4.5 -11.5q0 -19 9 -19q8 0 21 5.5t22 5.5q36 0 66 -16zM147 482q-4 0 -4 -5t4 -5t4 5t-4 5zM198 484l-1 -1q0 -2 6 -6l1 2q0 8 -6 8v-3zM137 500l5 -17v-1q11 0 11 9q0 1 -0.5 2.5t-0.5 2.5q0 6 6 6l7 -2q7 -3 8 -3t3 2t2 3q-7 12 -15 12
q-6 0 -16 -4.5t-10 -9.5zM173 487q-4 0 -4 -5t4 -5t4 5t-4 5zM187 513q0 -15 6 -20q0 18 10 18v2h-16zM344 497q4 0 4 -5t-4 -5q-2 0 -2 5t2 5zM410 502q-4 0 -4 -5q0 -4 4 -4t4 4q0 5 -4 5zM187 543q-3 0 -3 -5t3 -5q4 0 4 5t-4 5zM416 564q-5 0 -5 -6q0 -5 5 -5q3 0 3 5
q0 6 -3 6zM441 570q-12 0 -12 -14q12 0 12 14zM441 584q-4 0 -4 -5t4 -5t4 5t-4 5z" />
    <glyph glyph-name="yen" unicode="&#xa5;" horiz-adv-x="692" 
d="M280 19q-6 -8 -14 -8q0 5 -3 13.5t-3 12.5q1 16 12 80q-10 8 -31.5 13.5t-33.5 5.5q-2 0 -5.5 -4t-3.5 -9q-9 6 -24 6q-2 0 -29.5 2.5t-32.5 3.5v12h-10q-6 0 -7.5 3.5t-1.5 16.5q0 6 3.5 12t8.5 13t7 11q24 0 71 -2.5t70 -2.5v42q0 7 -86 12.5t-86 14.5q0 8 17.5 31
t25.5 23h128l-73 117l-98 135q-17 13 -37 44t-20 49q0 13 11 13q64 0 82 -9t51 -57l6 -9q3 -5 11 -12.5t12.5 -14.5t4.5 -16h8q12 0 46.5 -65.5t45.5 -65.5q6 0 7 1l37 38q-1 1 -1 6q0 8 35.5 54t70.5 81q5 20 30 47t44 27q12 0 36.5 -7t36.5 -7v-16h9q0 -8 -40.5 -61
t-87 -111.5t-53.5 -68.5q-35 -52 -55 -80v-8q26 0 77 -6t77 -6v-47l-7 -7l7 -6l-13 -6h-155v-31q27 -5 39 -7q17 0 50.5 3.5t51.5 3.5q25 0 34 -9q0 -15 -7.5 -34t-17.5 -19l5 -6q-10 0 -32.5 0.5t-33.5 0.5q-65 0 -82 -14q0 -25 10.5 -47t10.5 -41q0 -6 -2 -22q7 -3 7 -13
q0 -13 -15 -13q-1 0 -5.5 0.5t-5.5 0.5l7 7q-18 0 -25 -7h6q-12 5 -34 8.5t-34 9.5q-3 1 -4 1zM383 12q-5 0 -5 -6t5 -6q4 0 4 6t-4 6zM327 43q-11 0 -11 -13q6 2 14.5 10t15.5 8v-18q13 0 13 23v4q0 8 -0.5 11.5t-3 7.5t-8.5 4q-3 0 -10 -3t-10 -3q3 1 7.5 10.5t4.5 14.5
q0 12 -6.5 24.5t-14.5 12.5q-19 0 -21 -31l24 12q1 -2 1 -3q-2 -5 -11 -14.5t-9 -12.5h19q-22 -10 -30.5 -20t-8.5 -32q8 0 20 8v-6q4 4 8 5t9 0.5t8 0.5zM316 68q0 -10 -7 -13q0 1 -1 3q0 1 3 5.5t5 4.5zM235 142l13 -7v7h-13zM222 148q-5 0 -5 -7q0 -6 5 -6t5 6q0 7 -5 7z
M302 150v-8q13 0 29.5 13.5t16.5 23.5l-1 3q-1 2 -1 3q-16 -25 -30 -25h-3q-3 1 -4 1q5 2 11.5 14t6.5 16v80q-31 -21 -31 -27q0 -5 11.5 -8t13.5 -8l-37 -34h18q-10 -3 -14 -9.5t-4.5 -12t-6.5 -10t-20 -4.5q0 -10 21 -10q5 0 13 1t11 1zM124 163q19 0 47 -5t43 -5
q-2 18 -90 20v-10zM463 161v-7h7v7h-7zM248 161q0 3 -13 3t-13 -3t13 -3q8 0 13 3zM396 179q-18 0 -25 -13q31 0 43 7q-6 6 -18 6zM451 191q-12 -3 -25 -18h25v18zM482 191l-7 -6h7v6zM316 203q4 0 4 -6t-4 -6q-5 0 -5 6t5 6zM297 228q-13 0 -16.5 -3.5t-3.5 -16.5
q19 0 32 20h-12zM87 259q4 0 4 -6t-4 -6q-5 0 -5 6t5 6zM186 284q46 -2 104 -31l31 31v8q-13 0 -29 -4t-26 -4q-9 0 -26 3.5t-27 3.5q-3 0 -8 -0.5t-9 -0.5l-4 -1zM136 266q-5 0 -5 -7q0 -6 5 -6q4 0 4 6q0 7 -4 7zM396 277q1 -6 8 -6q2 0 6.5 0.5t7.5 0.5q7 0 8 -6v2l-1 2
q0 8 10 8q2 0 6.5 -0.5t6.5 -0.5q9 0 9 8q0 6 -21 6q-32 0 -40 -14zM124 289v-5q0 -1 9.5 -4t14.5 -3q22 0 22 12h-46zM393 297q-54 0 -54 -8v-5q0 -2 32 -7q31 8 37 19q-2 0 -8 0.5t-7 0.5zM470 284q0 2 -4 2q-3 0 -3 -2q0 -3 3 -3q2 0 4 3zM334 339q-7 -1 -16.5 -9
t-18 -17t-9.5 -10l12 -1q32 0 32 6v31zM279 344q0 -18 7 -18q12 0 12 18h-19zM297 388q-6 -3 -16.5 -13t-10.5 -18q30 0 76 13q0 9 -49 18zM241 392q0 -6 5 -14.5t11 -8.5q7 0 15.5 11t11.5 21h-9q-34 0 -34 -9zM371 401q-5 0 -5 -7q0 -6 5 -6q4 0 4 6q0 7 -4 7zM253 444
q-20 -16 -20 -38q33 0 33 17q0 14 -13 21zM352 438l-13 -19h34q0 6 -8 11.5t-13 7.5zM198 457q12 -32 22 -32q12 0 18.5 13t6.5 26q-40 0 -47 -7zM389 450q10 -12 19 -12q2 0 5 5t5 9l2 5q-1 0 -31 -7zM398 494q-5 -1 -13.5 -9.5t-8.5 -17.5q32 0 32 10q0 6 -3.5 11.5
t-6.5 5.5zM155 518l31 -43l2 -1h5.5h7.5q28 0 28 10q0 4 -3.5 8t-7 6t-4.5 2t-5 -1.5t-9.5 -4.5t-7.5 -7q1 5 6.5 19.5t5.5 17.5zM377 499q-5 0 -5 -6t5 -6q4 0 4 6t-4 6zM426 505q8 -12 22 -12q6 0 11 9.5t5 16.5q-14 0 -38 -14zM448 555q-10 0 -21 -10.5t-13 -20.5
q14 0 61 19q-5 12 -27 12zM67 643q0 -21 40 -66.5t63 -45.5q4 0 22 5q-4 13 -18 25l-13 -18q1 4 1 13q0 21 -11 37t-33 17q6 6 6 7q0 26 -44 26h-13zM470 561q12 -6 18 -6t15.5 8t9.5 13l-1 2v2q-30 -7 -42 -19zM142 561q0 -2 -2 -2q-3 0 -4 2q0 2 3 2t3 -2zM537 580
q-5 0 -5 -7q0 -6 5 -6t5 6q0 7 -5 7zM488 610q1 -1 1 -4q0 -4 -11 -12.5t-11 -14.5q41 0 51 6q6 4 28 28.5t22 31.5v2l-6 7h-44zM525 635q4 0 4 -7q0 -6 -4 -6q-5 0 -5 6q0 7 5 7zM537 640q5 0 5 -6q0 -5 -5 -5t-5 5q0 6 5 6zM549 672q-4 0 -4 -7q0 -6 4 -6q5 0 5 6
q0 7 -5 7zM518 679q-5 0 -5 -7q0 -6 5 -6t5 6q0 7 -5 7zM562 679q-5 0 -5 -7q0 -6 5 -6q4 0 4 6q0 7 -4 7z" />
    <glyph glyph-name="brokenbar" unicode="&#xa6;" horiz-adv-x="213" 
d="M58 -69q0 3 -2.5 20t-2.5 20v127q-6 4 -6 17q0 3 0.5 7t0.5 5q0 93 18 93q3 0 8 -7h40q4 0 7 -5t3 -7q0 -4 -2.5 -38t-2.5 -53q0 -29 5 -86.5t5 -85.5q0 -14 -17 -14q-20 0 -24 11q-5 -10 -20 -10q-2 0 -2.5 1.5t-2.5 3t-5 1.5zM74 -25q0 -24 20 -24v32q-20 0 -20 -8z
M94 11l-15 -20q2 -1 5 -1q11 0 11 13zM84 42q-11 0 -11 -31q10 0 21 16q0 15 -10 15zM74 74q0 -3 2 -12.5t3 -9.5h9v45q-14 0 -14 -23zM84 72q2 -2 2 -3q0 -2 -2 -2t-2 2q0 3 2 3zM79 153q0 -1 -2.5 -5t-2.5 -5q-2 -14 -2 -41h15q0 17 3.5 47.5t3.5 46.5q-14 0 -17.5 -4
t-3.5 -19q0 -18 6 -20zM74 310q-7 0 -10 6.5t-4 16.5t-2 12q0 5 0.5 45t0.5 67q0 60 -3 108.5t-3 68.5q0 16 9.5 20.5t30.5 4.5h4q10 0 14 -0.5t7 -2.5t3 -7q0 -19 -12 -26v-75q12 -16 12 -50q0 -10 -0.5 -32t-0.5 -24q4 -2 9.5 -49.5t5.5 -62.5q0 -14 -19 -19.5t-37 -5.5
q-1 0 -5.5 0.5t-5.5 0.5zM79 370q0 -18 6.5 -25t24.5 -7q0 16 -6 32l-10 -4q-1 0 -1 1l3 3q3 4 3 6q-20 0 -20 -6zM108 404q-9 0 -17.5 -5.5t-8.5 -14.5q26 0 26 20zM84 426l-5 -20q15 0 25 15zM79 446l-1 -1v-2q0 -8 15 -8q6 0 6 1l5 26q-6 0 -15 -5t-10 -11zM84 477v-12
q7 0 15 12h-15zM79 507q5 -1 6 -5t0.5 -7.5t3 -6.5t12.5 -3q0 14 -2 18q-12 20 -12 89q0 10 0.5 26.5t0.5 22.5q-14 0 -14 -13q0 -14 5 -45t5 -45q0 -18 -5 -31zM68 644q-4 0 -4 -5t4 -5t4 5t-4 5z" />
    </font>
</defs>
</svg>
